<svg width="328" height="328" viewBox="0 0 328 328" fill="none" xmlns="http://www.w3.org/2000/svg">
<mask id="mask0_299_22520" style="mask-type:luminance" maskUnits="userSpaceOnUse" x="0" y="0" width="328" height="328">
<path d="M164 328C254.575 328 328 254.575 328 164C328 73.4253 254.575 0 164 0C73.4253 0 0 73.4253 0 164C0 254.575 73.4253 328 164 328Z" fill="white"/>
</mask>
<g mask="url(#mask0_299_22520)">
<path d="M-76.2374 -55.3442C-76.2374 -55.3442 -245.48 112.199 -176.429 102.1C-125.035 94.584 -68.5863 144.261 -7.05677 149.811C54.4728 155.36 66.3606 227.764 106.944 206.904C147.527 186.044 130.319 94.2083 181.546 90.172C232.772 86.1357 235.478 210.667 302.137 139.863C324.683 115.915 316.192 176.431 347.825 196.328" stroke="url(#paint0_linear_299_22520)" stroke-width="0.46825" stroke-miterlimit="10"/>
<path d="M-81.6074 -54.7107C-81.6074 -54.7107 -128.762 -9.57351 -160.699 33.1541C-187.61 69.1555 -205.092 101.123 -174.2 97.5902C-149.728 94.7915 -124.047 105.061 -96.568 116.338C-67.4978 128.337 -38.5211 143.949 -8.29336 147.831C50.5975 155.396 61.3321 226.65 101.71 207.025C142.356 187.27 126.752 98.027 177.37 93.5234C227.967 89.0314 230.617 207.844 297.837 140.586C321.12 117.289 313.024 178.804 346.665 197.38" stroke="url(#paint1_linear_299_22520)" stroke-width="0.469149" stroke-miterlimit="10"/>
<path d="M-86.9772 -54.076C-86.9772 -54.076 -131.263 -13.323 -160.599 28.5841C-185.386 63.9914 -202.23 95.5394 -171.97 93.0804C-147.927 91.1265 -122.663 101.876 -94.9887 112.74C-65.8646 124.304 -38.2998 140.947 -9.52984 145.852C46.6809 155.436 56.3137 225.541 96.4745 207.147C137.193 188.497 123.185 101.847 173.194 96.8758C223.162 91.9282 225.877 205.052 293.536 141.31C317.591 118.647 309.857 181.18 345.503 198.433" stroke="url(#paint2_linear_299_22520)" stroke-width="0.470947" stroke-miterlimit="10"/>
<path d="M-92.3474 -53.4417C-92.3474 -53.4417 -133.744 -17.0979 -160.5 24.0129C-183.148 58.8117 -199.36 89.958 -169.74 88.5704C-146.119 87.4631 -121.25 98.6103 -93.4098 109.141C-64.2003 120.189 -38.1095 137.942 -10.7658 143.873C42.7181 155.474 51.3048 224.438 91.2409 207.269C132.042 189.728 119.619 105.666 169.019 100.227C218.358 94.8239 221.263 202.299 289.237 142.034C314.101 119.989 306.69 183.554 344.343 199.485" stroke="url(#paint3_linear_299_22520)" stroke-width="0.471845" stroke-miterlimit="10"/>
<path d="M-97.7177 -52.808C-97.7177 -52.808 -136.204 -20.9022 -160.4 19.4419C-180.894 53.6134 -196.483 84.3813 -167.51 84.0604C-144.305 83.8025 -119.86 95.4009 -91.8308 105.542C-62.5602 116.133 -37.9524 134.93 -12.0027 141.893C38.7032 155.501 46.3058 223.338 86.0055 207.389C126.901 190.96 116.051 109.483 164.841 103.578C213.551 97.7188 216.77 199.594 284.935 142.755C310.644 121.317 303.52 185.928 343.18 200.536" stroke="url(#paint4_linear_299_22520)" stroke-width="0.472744" stroke-miterlimit="10"/>
<path d="M-103.088 -52.1735C-103.088 -52.1735 -138.643 -24.7408 -160.3 14.8717C-178.627 48.3925 -193.599 78.8108 -165.281 79.5505C-142.484 80.1464 -118.472 92.1933 -90.2534 101.944C-60.9226 112.079 -37.8354 131.905 -13.241 139.914C34.6311 155.505 41.3142 222.247 80.7694 207.511C121.767 192.198 112.482 113.303 160.664 106.93C208.745 100.615 212.4 196.95 280.633 143.48C307.227 122.64 300.351 188.303 342.019 201.59" stroke="url(#paint5_linear_299_22520)" stroke-width="0.474542" stroke-miterlimit="10"/>
<path d="M-108.458 -51.5398C-108.458 -51.5398 -141.063 -28.6216 -160.2 10.3007C-176.348 43.1438 -190.706 73.2458 -163.051 75.0406C-140.655 76.4939 -117.083 88.9874 -88.6734 98.3462C-59.2842 108.027 -37.7545 128.862 -14.4768 137.936C30.5049 155.472 36.3351 221.165 75.5351 207.634C116.646 193.442 108.915 117.123 156.489 110.283C203.94 103.512 208.152 194.373 276.333 144.204C303.846 123.96 297.183 190.679 340.858 202.642" stroke="url(#paint6_linear_299_22520)" stroke-width="0.47544" stroke-miterlimit="10"/>
<path d="M-113.828 -50.9053C-113.828 -50.9053 -143.465 -32.5509 -160.1 5.72966C-174.063 37.861 -187.807 67.6897 -160.821 70.5298C-138.819 72.8459 -115.696 85.7825 -87.0943 94.7467C-57.6475 103.976 -37.715 125.79 -15.7126 135.955C26.3239 155.379 31.365 220.089 70.3016 207.753C111.535 194.69 105.349 120.939 152.314 113.632C199.136 106.406 204.018 191.866 272.034 144.925C300.505 125.276 294.017 193.05 339.698 203.692" stroke="url(#paint7_linear_299_22520)" stroke-width="0.476339" stroke-miterlimit="10"/>
<path d="M-119.198 -50.2708C-119.198 -50.2708 -145.853 -36.5369 -160 1.1595C-171.776 32.5386 -184.901 62.1426 -158.591 66.0207C-136.979 69.2059 -114.31 82.5803 -85.515 91.149C-56.0117 99.928 -37.7139 122.684 -16.9491 133.977C22.0945 155.213 26.4031 219.024 65.0666 207.875C106.432 195.947 101.782 124.759 148.137 116.985C194.33 109.303 199.992 189.442 267.732 145.649C297.197 126.601 290.848 195.426 338.536 204.745" stroke="url(#paint8_linear_299_22520)" stroke-width="0.477238" stroke-miterlimit="10"/>
<path d="M-124.568 -49.6372C-124.568 -49.6372 -148.236 -40.5868 -159.901 -3.41163C-169.497 27.1702 -181.989 56.6062 -156.362 61.5098C-135.134 65.5722 -112.926 79.3788 -83.9371 87.5494C-54.3789 95.8799 -37.7475 119.531 -18.187 131.997C17.8278 154.95 21.4489 217.968 59.8311 207.997C101.337 197.213 98.2132 128.577 143.96 120.336C189.524 112.199 196.069 187.101 263.431 146.373C293.925 127.936 287.679 197.801 337.374 205.797" stroke="url(#paint9_linear_299_22520)" stroke-width="0.479035" stroke-miterlimit="10"/>
<path d="M-129.938 -49.0026C-129.938 -49.0026 -150.62 -44.7065 -159.8 -7.98167C-167.232 21.7527 -179.073 51.0817 -154.131 57.0009C-133.283 61.9485 -111.542 76.1812 -82.3568 83.9518C-52.7438 91.8366 -37.8047 116.327 -19.4225 130.018C13.5464 154.573 16.5042 216.925 54.597 208.118C96.2533 198.488 94.6464 132.396 139.784 123.687C184.719 115.094 192.241 184.848 259.131 147.096C290.688 129.285 284.512 200.175 336.213 206.849" stroke="url(#paint10_linear_299_22520)" stroke-width="0.479934" stroke-miterlimit="10"/>
<path d="M-135.308 -48.3681C-135.308 -48.3681 -153.02 -48.9002 -159.7 -12.5528C-164.999 16.281 -176.153 45.5687 -151.901 52.4909C-131.429 58.3337 -110.159 72.9843 -80.7776 80.3531C-51.1115 87.7939 -37.8765 113.061 -20.6582 128.039C9.26852 154.072 11.5675 215.892 49.3637 208.239C91.1773 199.773 91.0802 136.215 135.61 127.039C179.916 117.99 188.5 182.685 254.832 147.819C287.486 130.655 281.345 202.549 335.055 207.901" stroke="url(#paint11_linear_299_22520)" stroke-width="0.480833" stroke-miterlimit="10"/>
<path d="M-140.678 -47.7344C-140.678 -47.7344 -155.452 -53.171 -159.6 -17.1238C-162.809 10.7556 -173.232 40.0693 -149.672 47.9801C-129.574 54.7289 -108.777 69.7884 -79.1986 76.7537C-49.4795 83.7532 -37.9459 109.73 -21.895 126.059C5.02084 153.442 6.63501 214.871 44.1292 208.361C86.1073 201.071 87.5129 140.034 131.434 130.39C175.111 120.886 184.834 180.614 250.531 148.543C284.312 132.052 278.177 204.924 333.894 208.954" stroke="url(#paint12_linear_299_22520)" stroke-width="0.481732" stroke-miterlimit="10"/>
<path d="M-146.048 -47.0999C-146.048 -47.0999 -157.933 -57.5119 -159.5 -21.6939C-160.677 5.18238 -170.312 34.5842 -147.443 43.4711C-127.719 51.1356 -107.396 66.596 -77.6205 73.1569C-47.8502 79.716 -37.9944 106.336 -23.1327 124.081C0.828097 152.691 1.70798 213.866 38.893 208.483C81.0409 202.381 83.9448 143.854 127.256 133.743C170.303 123.783 181.233 178.635 246.229 149.266C281.166 133.479 275.008 207.299 332.73 210.006" stroke="url(#paint13_linear_299_22520)" stroke-width="0.483529" stroke-miterlimit="10"/>
<path d="M-151.418 -46.4654C-151.418 -46.4654 -160.484 -61.9149 -159.4 -26.2641C-158.614 -0.43213 -167.391 29.1126 -145.212 38.9611C-125.863 47.5532 -106.015 63.4054 -76.0412 69.5583C-46.2196 75.6806 -38.0006 102.88 -24.3692 122.102C-3.28351 151.834 -3.21341 212.873 33.6588 208.604C75.9829 203.706 80.3778 147.673 123.08 137.094C165.499 126.679 177.693 176.746 241.929 149.99C278.049 134.944 271.84 209.674 331.569 211.058" stroke="url(#paint14_linear_299_22520)" stroke-width="0.484428" stroke-miterlimit="10"/>
<path d="M-156.788 -45.8317C-156.788 -45.8317 -163.125 -66.3629 -159.3 -30.8361C-156.635 -6.07719 -164.476 23.6527 -142.982 34.4503C-124.012 43.9807 -104.634 60.2157 -74.4624 65.9588C-44.5896 71.6452 -37.9497 99.3726 -25.6053 120.122C-7.30038 150.893 -8.13081 211.891 28.4242 208.725C70.9271 205.044 76.8104 151.49 118.904 140.445C160.694 129.573 174.2 174.947 237.629 150.712C274.956 136.45 268.673 212.048 330.409 212.11" stroke="url(#paint15_linear_299_22520)" stroke-width="0.485327" stroke-miterlimit="10"/>
<path d="M-162.158 -45.1973C-162.158 -45.1973 -165.874 -70.8316 -159.2 -35.4063C-154.741 -11.7322 -161.566 18.207 -140.753 29.9402C-122.164 40.4197 -103.254 57.0287 -72.8832 62.3601C-42.9601 67.6133 -37.8246 95.8287 -26.8418 118.142C-11.2116 149.899 -13.0469 210.924 23.19 208.846C65.8754 206.398 73.2433 155.309 114.729 143.796C155.889 132.469 170.745 173.236 233.328 151.435C271.883 138.004 265.505 214.421 329.249 213.161" stroke="url(#paint16_linear_299_22520)" stroke-width="0.487124" stroke-miterlimit="10"/>
<path d="M-167.528 -44.5637C-167.528 -44.5637 -168.742 -75.2929 -159.101 -39.9773C-152.932 -17.3818 -158.663 12.7723 -138.524 25.4303C-120.324 36.8697 -101.875 53.8435 -71.305 58.7615C-41.3316 63.5833 -37.6189 92.2634 -28.0795 116.163C-15.0197 148.882 -17.9631 209.972 17.9537 208.967C60.8225 207.768 69.6743 159.128 110.551 147.148C151.082 135.365 167.318 171.61 229.027 152.158C268.828 139.612 262.336 216.796 328.087 214.213" stroke="url(#paint17_linear_299_22520)" stroke-width="0.488023" stroke-miterlimit="10"/>
<path d="M-172.898 -43.9291C-172.898 -43.9291 -171.734 -79.7121 -159.001 -44.5475C-151.2 -23.0043 -155.768 7.34746 -136.294 20.9213C-118.491 33.3295 -100.496 50.6629 -69.7258 55.1638C-39.703 59.556 -37.3285 88.6945 -29.3161 114.185C-18.727 147.871 -22.8774 209.035 12.7195 209.09C55.7716 209.157 66.1082 162.948 106.375 150.5C146.276 138.262 163.91 170.067 224.726 152.883C265.787 141.28 259.167 219.172 326.925 215.267" stroke="url(#paint18_linear_299_22520)" stroke-width="0.488922" stroke-miterlimit="10"/>
<path d="M-178.268 -43.2946C-178.268 -43.2946 -174.846 -84.0612 -158.9 -49.1185C-149.532 -28.5874 -152.882 1.93065 -134.063 16.4105C-116.666 29.7965 -99.116 47.4813 -68.1459 51.5643C-38.0727 55.5296 -36.9555 85.1354 -30.551 112.204C-22.3454 146.886 -27.7928 208.108 7.486 209.21C50.7196 210.56 62.5418 166.766 102.2 153.851C141.472 141.157 160.514 168.601 220.427 153.604C262.759 143.009 256.001 221.545 325.765 216.317" stroke="url(#paint19_linear_299_22520)" stroke-width="0.489821" stroke-miterlimit="10"/>
<path d="M-183.638 -42.661C-183.638 -42.661 -178.062 -88.3132 -158.8 -53.6896C-147.912 -34.1166 -150.007 -3.47896 -131.833 11.9005C-114.852 26.2707 -97.7365 44.3032 -66.5668 47.9666C-36.4442 51.5068 -36.5116 81.6033 -31.7878 110.226C-25.892 145.95 -32.7117 207.198 2.25161 209.332C45.6632 211.983 58.9746 170.585 98.0245 157.203C136.667 144.054 157.117 167.21 216.126 154.329C259.735 144.809 252.833 223.92 324.604 217.37" stroke="url(#paint20_linear_299_22520)" stroke-width="0.491618" stroke-miterlimit="10"/>
<path d="M-189.008 -42.0265C-189.008 -42.0265 -181.36 -92.4475 -158.701 -58.2598C-146.321 -39.5819 -147.143 -8.88321 -129.604 7.39052C-113.049 22.7511 -96.3585 41.127 -64.9884 44.3679C-34.8164 47.4848 -36.0063 78.1044 -33.0252 108.247C-29.3825 145.07 -37.6349 206.299 -2.98346 209.454C40.6025 213.423 55.4067 174.404 93.8482 160.554C131.862 146.95 153.711 165.888 211.826 155.052C256.713 146.682 249.665 226.294 323.444 218.422" stroke="url(#paint21_linear_299_22520)" stroke-width="0.492517" stroke-miterlimit="10"/>
<path d="M-194.378 -41.392C-194.378 -41.392 -184.714 -96.4568 -158.601 -62.83C-144.742 -44.9834 -144.291 -14.2838 -127.375 2.88149C-111.257 19.2361 -94.979 37.9544 -63.4094 40.7702C-33.187 43.4656 -35.4528 74.6469 -34.262 106.268C-32.8311 144.253 -42.5628 205.412 -8.21879 209.576C35.5343 214.88 51.8386 178.224 89.6707 163.907C127.055 149.847 150.287 164.633 207.523 155.777C253.685 148.633 246.495 228.67 322.281 219.476" stroke="url(#paint22_linear_299_22520)" stroke-width="0.493416" stroke-miterlimit="10"/>
<path d="M-199.748 -40.7584C-199.748 -40.7584 -188.096 -100.343 -158.5 -67.4019C-143.156 -50.3238 -141.448 -19.6844 -125.144 -1.63024C-109.476 15.7211 -93.5983 34.781 -61.8301 37.1698C-31.5583 39.4464 -34.8639 71.2281 -35.4975 104.287C-36.2498 143.499 -47.4959 204.535 -13.452 209.695C30.4611 216.352 48.2735 182.04 85.4962 167.256C122.252 152.74 146.842 163.435 203.225 156.497C250.653 150.662 243.329 231.043 321.121 220.525" stroke="url(#paint23_linear_299_22520)" stroke-width="0.494314" stroke-miterlimit="10"/>
<path d="M-205.118 -40.1239C-205.118 -40.1239 -191.481 -104.115 -158.4 -71.9721C-141.557 -55.6058 -138.617 -25.0842 -122.914 -6.13935C-107.705 12.2096 -92.2179 31.6128 -60.2511 33.5721C-29.9289 35.4307 -34.2511 67.8541 -36.7343 102.309C-39.6535 142.809 -52.4373 203.671 -18.6873 209.818C25.3767 217.843 44.7053 185.86 81.3196 170.609C117.446 155.637 143.361 162.295 198.924 157.222C247.604 152.776 240.161 233.418 319.96 221.579" stroke="url(#paint24_linear_299_22520)" stroke-width="0.496112" stroke-miterlimit="10"/>
<path d="M-210.489 -39.4892C-210.489 -39.4892 -194.845 -107.787 -158.3 -76.5421C-139.929 -60.8364 -135.795 -30.4846 -120.684 -10.6483C-105.946 8.69831 -90.8384 28.4457 -58.672 29.9745C-28.2987 31.4179 -33.6256 64.519 -37.971 100.33C-43.049 142.177 -57.3859 202.816 -23.9217 209.939C20.2825 219.349 41.1381 189.678 77.1439 173.96C112.641 158.533 139.839 161.204 194.624 157.945C244.535 154.976 236.993 235.793 318.799 222.631" stroke="url(#paint25_linear_299_22520)" stroke-width="0.49701" stroke-miterlimit="10"/>
<path d="M-215.859 -38.8556C-215.859 -38.8556 -198.176 -111.38 -158.2 -81.1132C-138.273 -66.0258 -132.984 -35.8889 -118.454 -15.1591C-104.196 5.18417 -89.458 25.2803 -57.093 26.3759C-26.6684 27.4058 -32.9938 61.2178 -39.2078 98.3507C-46.4437 141.597 -62.3444 201.97 -29.157 210.061C15.1767 220.871 37.57 193.498 72.9674 177.312C107.835 161.43 136.27 160.159 190.323 158.669C241.44 157.26 233.825 238.167 317.639 223.683" stroke="url(#paint26_linear_299_22520)" stroke-width="0.497909" stroke-miterlimit="10"/>
<path d="M-221.229 -38.2212C-221.229 -38.2212 -201.462 -114.909 -158.1 -85.6843C-136.582 -71.1811 -130.181 -41.2967 -116.225 -19.6691C-102.455 1.6682 -88.0767 22.1166 -55.5139 22.7772C-25.0372 23.3956 -32.363 57.949 -40.4436 96.3716C-49.8428 141.064 -67.311 201.131 -34.3906 210.183C10.06 222.405 34.0037 197.317 68.7917 180.664C103.031 164.325 132.648 159.15 186.022 159.392C238.313 159.629 230.657 240.542 316.477 224.735" stroke="url(#paint27_linear_299_22520)" stroke-width="0.499707" stroke-miterlimit="10"/>
<path d="M-226.599 -37.5867C-226.599 -37.5867 -204.699 -118.393 -158 -90.2545C-134.857 -76.3104 -127.387 -46.7082 -113.995 -24.1791C-100.722 -1.85048 -86.6942 18.9557 -53.9346 19.1786C-23.4058 19.3862 -31.7372 54.7072 -41.6801 94.3916C-53.2498 140.57 -72.2881 200.298 -39.6256 210.303C4.92831 223.95 30.4367 201.135 64.6154 184.014C98.2252 167.22 128.965 158.173 181.722 160.115C235.149 162.08 227.489 242.916 315.316 225.787" stroke="url(#paint28_linear_299_22520)" stroke-width="0.500606" stroke-miterlimit="10"/>
<path d="M-231.968 -36.9531C-231.968 -36.9531 -207.886 -121.847 -157.901 -94.8256C-133.101 -81.4198 -124.599 -52.1249 -111.766 -28.689C-98.9981 -5.37268 -85.3128 15.8559 -52.3564 15.58C-21.7745 15.4344 -31.1198 51.4878 -42.9177 92.4126C-56.6687 140.113 -77.2771 199.471 -44.8608 210.425C-0.217949 225.511 26.8687 204.954 60.4389 187.367C93.4195 170.117 125.218 157.225 177.421 160.838C231.941 164.611 224.32 245.29 314.154 226.839" stroke="url(#paint29_linear_299_22520)" stroke-width="0.501504" stroke-miterlimit="10"/>
<path d="M-237.338 -36.3184C-237.338 -36.3184 -211.024 -125.281 -157.8 -99.3965C-131.314 -86.5156 -121.817 -57.547 -109.535 -33.1989C-97.278 -8.89927 -83.9279 12.6699 -50.7765 11.9815C-20.1407 11.4018 -30.5105 48.2884 -44.1536 90.4336C-60.0975 139.685 -82.2751 198.649 -50.0943 210.547C-5.37687 227.079 23.3023 208.773 56.2641 190.718C88.6156 173.013 121.405 156.298 173.122 161.562C228.688 167.218 221.155 247.665 312.995 227.892" stroke="url(#paint30_linear_299_22520)" stroke-width="0.502403" stroke-miterlimit="10"/>
<path d="M-242.708 -35.6849C-242.708 -35.6849 -214.118 -128.707 -157.7 -103.967C-101.283 -79.2277 -115.874 10.5847 -49.1983 8.3828C17.4784 6.18176 -114.539 186.881 -55.3296 210.668C33.3521 246.296 65.1968 148.347 168.82 162.285C225.381 169.893 217.986 250.04 311.833 228.944" stroke="url(#paint31_linear_299_22520)" stroke-width="0.504201" stroke-miterlimit="10"/>
<path d="M522.586 -50.3149C480.049 -85.1964 451.407 109.151 389.391 134.066C327.375 158.981 269.036 -90.1414 190.801 9.24366C133.105 82.537 39.672 -53.0561 -70.3705 138.384C-186.132 339.773 -280.676 -9.5295 -280.676 -9.5295" stroke="url(#paint32_linear_299_22520)" stroke-width="0.768434" stroke-miterlimit="10"/>
<path d="M522.714 -45.4041C479.531 -79.3131 451.03 106.722 389.834 130.495C386.776 131.683 383.726 132.212 380.681 132.161C322.657 131.169 268.008 -77.8257 193.998 13.3582C155.821 60.3945 103.594 14.6956 40.0899 33.8633C6.62305 43.9653 -28.2225 73.9369 -66.122 138.29C-73.2878 150.359 -80.5632 160.206 -87.6454 168.215C-196.137 290.914 -276.233 -14.4843 -280.396 -6.86013" stroke="url(#paint33_linear_299_22520)" stroke-width="0.768434" stroke-miterlimit="10"/>
<path d="M522.842 -40.4941C479.013 -73.4307 450.653 104.292 390.277 126.924C387.258 128.053 384.245 128.552 381.236 128.494C323.815 127.369 270.859 -70.4783 197.193 17.4719C158.808 63.2993 107.827 14.1582 44.3278 32.4163C10.3486 42.1867 -23.4561 75.0379 -61.8752 138.195C-69.1533 150.159 -76.7998 159.643 -84.1364 167.312C-194.856 283.058 -271.788 -19.439 -280.117 -4.19078" stroke="url(#paint34_linear_299_22520)" stroke-width="0.768434" stroke-miterlimit="10"/>
<path d="M522.97 -35.5833C478.494 -67.5484 450.276 101.863 390.72 123.353C387.74 124.424 384.766 124.893 381.793 124.828C324.973 123.57 273.683 -63.1346 200.389 21.5864C161.786 66.2077 112.053 13.6073 48.5655 30.9703C14.0704 40.4045 -18.8123 76.0697 -57.6276 138.102C-65.0405 149.948 -73.0232 159.075 -80.6267 166.411C-193.376 275.196 -267.344 -24.3938 -279.837 -1.52055" stroke="url(#paint35_linear_299_22520)" stroke-width="0.768434" stroke-miterlimit="10"/>
<path d="M523.097 -30.6735C477.975 -61.6661 449.899 99.4327 391.162 119.781C388.221 120.795 385.284 121.233 382.347 121.162C326.13 119.771 276.476 -55.7973 203.584 25.7008C164.749 69.1204 116.271 13.0427 52.8017 29.5241C17.7871 38.6168 -14.1797 77.0996 -53.3815 138.008C-60.9311 149.738 -69.2356 158.502 -77.1194 165.509C-191.688 267.35 -262.901 -29.3479 -279.559 1.14862" stroke="url(#paint36_linear_299_22520)" stroke-width="0.768434" stroke-miterlimit="10"/>
<path d="M523.224 -25.7627C477.456 -55.7829 449.521 97.0034 391.605 116.211C388.704 117.167 385.804 117.573 382.904 117.496C327.288 115.972 279.24 -48.467 206.78 29.8153C167.7 72.0342 120.482 12.4649 57.0393 28.078C21.5017 36.8238 -9.55383 78.1269 -49.1349 137.915C-56.822 149.527 -65.4338 157.925 -73.6107 164.608C-189.781 259.547 -258.456 -34.3027 -279.28 3.81796" stroke="url(#paint37_linear_299_22520)" stroke-width="0.768434" stroke-miterlimit="10"/>
<path d="M523.352 -20.8529C476.938 -49.9006 449.145 94.5731 392.048 112.639C389.185 113.538 386.324 113.913 383.46 113.83C328.447 112.173 281.971 -41.1458 209.976 33.9297C170.637 74.9506 124.688 11.8734 61.2769 26.631C25.2127 35.0244 -4.93689 79.1505 -44.8874 137.82C-52.7137 149.314 -61.6168 157.347 -70.101 163.705C-187.654 251.813 -254.012 -39.2575 -279 6.48721" stroke="url(#paint38_linear_299_22520)" stroke-width="0.768434" stroke-miterlimit="10"/>
<path d="M523.481 -15.9421C476.42 -44.0174 448.768 92.1446 392.491 109.068C389.668 109.909 386.844 110.254 384.017 110.164C329.605 108.373 284.668 -33.8354 213.172 38.0442C173.559 77.8679 128.888 11.2694 65.5146 25.1848C28.921 33.2197 -0.328051 80.1714 -40.6398 137.726C-48.6073 149.101 -57.7862 156.768 -66.5922 162.803C-185.309 244.171 -249.568 -44.2124 -278.72 9.15643" stroke="url(#paint39_linear_299_22520)" stroke-width="0.768434" stroke-miterlimit="10"/>
<path d="M523.608 -11.0313C475.902 -38.1341 448.392 89.7154 392.934 105.497C390.15 106.281 387.364 106.595 384.573 106.498C330.763 104.574 287.331 -26.5374 216.368 42.1588C176.466 80.7854 133.084 10.6521 69.7532 23.7388C32.6284 31.4106 4.2727 81.1898 -36.3923 137.632C-44.5026 148.889 -53.9413 156.193 -63.0826 161.901C-182.754 236.645 -245.124 -49.1671 -278.441 11.8258" stroke="url(#paint40_linear_299_22520)" stroke-width="0.768434" stroke-miterlimit="10"/>
<path d="M523.736 -6.12122C475.383 -32.2516 448.014 87.2853 393.376 101.926C390.632 102.652 387.883 102.934 385.129 102.832C331.921 100.776 289.958 -19.2556 219.563 46.2734C179.355 83.7011 137.275 10.0231 73.9901 22.2929C36.3306 29.5943 8.86291 82.2037 -32.1454 137.539C-40.3996 148.676 -50.0836 155.622 -59.5736 161C-180.001 229.255 -240.68 -54.1218 -278.161 14.4962" stroke="url(#paint41_linear_299_22520)" stroke-width="0.768434" stroke-miterlimit="10"/>
<path d="M523.863 -1.21066C474.864 -26.3686 447.637 84.8557 393.819 98.355C391.113 99.0237 388.403 99.2753 385.684 99.1657C333.078 96.9763 292.548 -11.9903 222.758 50.3877C182.227 86.6128 141.461 9.38115 78.2264 20.8465C40.0303 27.7723 13.4443 83.2137 -27.8993 137.445C-36.2981 148.462 -46.2132 155.057 -56.0653 160.099C-177.068 222.018 -236.237 -59.0769 -277.882 17.1652" stroke="url(#paint42_linear_299_22520)" stroke-width="0.768434" stroke-miterlimit="10"/>
<path d="M523.991 3.69926C474.346 -20.4871 447.261 82.4265 394.262 94.7834C391.596 95.3946 388.923 95.6148 386.24 95.4997C334.235 93.1773 295.101 -4.74542 225.954 54.5013C185.083 89.5203 145.645 8.72599 82.4641 19.3987C43.7305 25.9416 18.0181 84.2177 -23.6526 137.35C-32.1989 148.247 -42.3314 154.5 -52.5574 159.196C-173.975 214.947 -231.792 -64.0308 -277.603 19.8346" stroke="url(#paint43_linear_299_22520)" stroke-width="0.768434" stroke-miterlimit="10"/>
<path d="M524.119 8.61013C473.827 -14.6038 446.883 79.9972 394.704 91.2128C392.077 91.7664 389.442 91.956 386.795 91.8338C335.393 89.3784 297.616 2.47705 229.149 58.6159C187.918 92.4225 149.825 8.061 86.7008 17.9527C47.4271 24.1073 22.5838 85.219 -19.406 137.256C-28.1005 148.031 -38.4389 153.956 -49.0487 158.294C-170.745 208.05 -227.348 -68.9855 -277.323 22.504" stroke="url(#paint44_linear_299_22520)" stroke-width="0.768434" stroke-miterlimit="10"/>
<path d="M524.246 13.5199C473.309 -8.72157 446.527 77.6756 395.148 87.641C392.56 88.1425 389.962 88.2952 387.352 88.1667C336.552 85.5783 300.093 9.67232 232.345 62.7293C190.736 95.3145 154.003 7.38319 90.9394 16.5055C51.1246 22.2647 27.1423 86.2137 -15.1576 137.161C-24.0022 147.814 -34.5356 153.424 -45.5381 157.391C-167.404 201.332 -222.904 -73.9405 -277.043 25.1731" stroke="url(#paint45_linear_299_22520)" stroke-width="0.768434" stroke-miterlimit="10"/>
<path d="M524.374 18.4306C472.79 -2.83835 446.149 75.2507 395.591 84.0702C393.042 84.5151 390.482 84.6364 387.908 84.5016C337.71 81.7802 302.533 16.8425 235.541 66.8447C193.534 98.1986 158.18 6.69652 95.1773 15.0603C54.8197 20.4178 31.6929 87.205 -10.9107 137.069C-19.9063 147.598 -30.6266 152.908 -42.03 156.491C-163.976 194.794 -218.46 -78.8953 -276.764 27.8424" stroke="url(#paint46_linear_299_22520)" stroke-width="0.768434" stroke-miterlimit="10"/>
<path d="M524.502 23.3416C472.272 3.04502 445.771 72.8251 396.033 80.4996C393.524 80.8869 391.002 80.9768 388.464 80.8357C338.867 77.9813 304.935 23.9797 238.736 70.9593C196.31 101.068 162.355 5.99922 99.414 13.6144C58.5127 18.5629 36.2353 88.1902 -6.66403 136.975C-15.8133 147.379 -26.7125 152.409 -38.5212 155.59C-160.488 188.434 -214.015 -83.8501 -276.484 30.5127" stroke="url(#paint47_linear_299_22520)" stroke-width="0.768434" stroke-miterlimit="10"/>
<path d="M524.629 28.2515C471.753 8.92739 445.392 70.3976 396.476 76.928C394.006 77.2578 391.521 77.3171 389.02 77.1697C340.026 74.1823 307.3 31.0835 241.932 75.0738C199.068 103.92 166.528 5.29014 103.652 12.1674C62.2066 16.7007 40.7704 89.1681 -2.41649 136.881C-11.7204 147.159 -22.7939 151.926 -35.0116 154.687C-156.966 182.245 -209.572 -88.8048 -276.205 33.182" stroke="url(#paint48_linear_299_22520)" stroke-width="0.768434" stroke-miterlimit="10"/>
<path d="M524.758 33.1622C471.235 14.8105 445.013 67.97 396.919 73.3571C394.488 73.6294 392.042 73.6573 389.576 73.5036C341.184 70.3831 309.63 38.1485 245.128 79.1882C201.803 106.753 170.702 4.57194 107.889 10.7212C65.8993 14.8321 45.2981 90.1414 1.83079 136.787C-7.62859 146.938 -18.8738 151.461 -31.5031 153.785C-153.433 176.219 -205.128 -93.7598 -275.925 35.8512" stroke="url(#paint49_linear_299_22520)" stroke-width="0.768434" stroke-miterlimit="10"/>
<path d="M524.885 38.0722C470.717 20.693 444.633 65.5408 397.362 69.7856C394.97 70.0004 392.561 69.9977 390.133 69.8368C342.342 66.5833 311.928 45.1732 248.324 83.3019C204.52 109.561 174.875 3.84314 112.127 9.27431C69.5914 12.9556 49.8197 91.1067 6.07743 136.692C-3.54013 146.715 -14.9552 151.015 -27.9943 152.883C-149.911 170.343 -200.683 -98.7136 -275.646 38.5206" stroke="url(#paint50_linear_299_22520)" stroke-width="0.768434" stroke-miterlimit="10"/>
<path d="M525.013 42.9828C470.198 26.5752 444.254 63.1104 397.805 66.2147C395.452 66.372 393.082 66.3387 390.689 66.1715C343.5 62.785 314.193 52.1555 251.52 87.4172C207.217 112.343 179.048 3.10692 116.365 7.82897C73.2853 11.0744 54.3351 92.0673 10.3258 136.6C0.549211 146.492 -11.0357 150.589 -24.4838 151.982C-146.419 164.607 -196.24 -103.669 -275.366 41.1898" stroke="url(#paint51_linear_299_22520)" stroke-width="0.768434" stroke-miterlimit="10"/>
<path d="M525.141 47.8928C469.68 32.4576 443.874 60.6784 398.247 62.6431C395.933 62.7429 393.6 62.6782 391.244 62.5047C344.658 58.9852 316.432 59.0894 254.715 91.5308C209.892 115.091 183.221 2.35924 120.602 6.38206C76.9773 9.18437 58.8432 93.0183 14.5724 136.505C4.6358 146.266 -7.12259 150.18 -20.9751 151.08C-142.977 158.998 -191.796 -108.623 -275.088 43.8592" stroke="url(#paint52_linear_299_22520)" stroke-width="0.768434" stroke-miterlimit="10"/>
<path d="M525.268 52.8035C469.161 38.3408 443.493 58.2464 398.691 59.0723C396.415 59.1146 394.12 59.0193 391.801 58.8386C345.816 55.1861 318.647 65.9756 257.911 95.6453C212.552 117.803 187.395 1.60424 124.84 4.93502C80.6703 7.28706 63.346 93.9628 18.8191 136.411C8.72067 146.038 -3.21476 149.789 -17.4672 150.177C-139.598 153.499 -187.351 -113.578 -274.808 46.5284" stroke="url(#paint53_linear_299_22520)" stroke-width="0.768434" stroke-miterlimit="10"/>
<path d="M525.396 57.7144C468.643 44.2242 443.114 55.8127 399.133 55.5017C396.897 55.4855 394.64 55.3597 392.356 55.1737C346.974 51.3881 320.843 72.8099 261.106 99.7608C215.194 120.474 191.57 0.842239 129.077 3.48997C84.3627 5.38454 67.8436 94.9013 23.066 136.318C12.804 145.809 0.686106 149.417 -13.9582 149.276C-136.293 148.098 -182.908 -118.533 -274.528 49.1988" stroke="url(#paint54_linear_299_22520)" stroke-width="0.768434" stroke-miterlimit="10"/>
<path d="M525.523 62.6242C468.124 50.1064 442.734 53.376 399.576 51.9299C397.378 51.8562 395.159 51.6999 392.912 51.5066C348.131 47.5881 323.023 79.5891 264.302 103.873C217.823 123.095 195.746 0.0691714 133.314 2.04193C88.057 3.47185 72.3351 95.8295 27.313 136.222C16.8866 145.576 4.57904 149.058 -10.449 148.372C-133.075 142.78 -178.464 -123.488 -274.249 51.8679" stroke="url(#paint55_linear_299_22520)" stroke-width="0.768434" stroke-miterlimit="10"/>
<path d="M525.651 67.535C467.605 55.9896 442.355 50.9395 400.019 48.3592C397.86 48.228 395.68 48.0402 393.469 47.8415C349.29 43.79 325.198 86.3136 267.498 107.989C220.442 125.665 199.923 -0.709118 137.551 0.596771C91.7527 1.55574 76.8235 96.7517 31.5596 136.13C20.9669 145.345 8.46254 148.717 -6.94119 147.472C-129.948 137.53 -174.019 -128.443 -273.97 54.5372" stroke="url(#paint56_linear_299_22520)" stroke-width="0.768434" stroke-miterlimit="10"/>
<path d="M525.779 72.4448C467.086 61.8719 441.975 48.5003 400.461 44.7875C398.342 44.5979 396.198 44.3804 394.024 44.1746C350.447 39.99 327.371 92.9796 270.693 112.102C223.052 128.176 204.102 -1.49649 141.789 -0.850282C95.4484 -0.370348 81.3075 97.6648 35.8072 136.035C25.0473 145.109 12.3371 148.387 -3.43149 146.57C-126.919 132.337 -169.576 -133.397 -273.69 57.2065" stroke="url(#paint57_linear_299_22520)" stroke-width="0.768434" stroke-miterlimit="10"/>
<path d="M525.907 77.3556C466.569 67.7552 441.607 45.9838 400.905 41.2168C398.825 40.9651 396.72 40.7207 394.581 40.5086C351.606 36.1909 329.552 99.589 273.89 116.217C225.662 130.624 208.285 -2.28918 146.028 -2.29727C99.1478 -2.30266 85.7887 98.5689 40.0556 135.941C29.1277 144.871 16.2018 148.069 0.0790641 145.667C-123.99 127.187 -165.132 -138.351 -273.411 59.8758" stroke="url(#paint58_linear_299_22520)" stroke-width="0.768434" stroke-miterlimit="10"/>
<path d="M526.035 82.2656C466.05 73.6367 441.23 43.5545 401.348 37.6452C399.307 37.336 397.239 37.061 395.138 36.8426C352.764 32.392 331.747 106.141 277.086 120.331C228.273 133.004 212.469 -3.08992 150.265 -3.74331C102.846 -4.24122 90.2663 99.4659 44.3022 135.847C33.2053 144.63 20.0548 147.76 3.58692 144.765C-121.162 122.07 -160.687 -143.306 -273.131 62.5451" stroke="url(#paint59_linear_299_22520)" stroke-width="0.768434" stroke-miterlimit="10"/>
<path d="M526.162 87.1764C465.532 79.52 440.853 41.1252 401.79 34.0736C399.789 33.7069 397.759 33.4004 395.693 33.1758C353.922 28.5921 333.965 112.635 280.281 124.445C230.892 135.31 216.654 -3.89782 154.502 -5.19022C106.546 -6.18784 94.7403 100.353 48.5489 135.752C37.2812 144.387 23.8961 147.461 7.0957 143.863C-118.434 116.975 -156.244 -148.261 -272.852 65.2154" stroke="url(#paint60_linear_299_22520)" stroke-width="0.768434" stroke-miterlimit="10"/>
<path d="M526.29 92.0873C465.013 85.4033 440.477 38.6959 402.234 30.5029C400.271 30.0787 398.279 29.7417 396.25 29.5107C355.081 24.794 336.218 119.077 283.477 128.56C233.528 137.543 220.845 -4.70933 158.74 -6.63536C110.249 -8.13897 99.2128 101.234 52.7966 135.66C41.3582 144.144 27.7286 147.171 10.6056 142.962C-115.806 111.892 -151.799 -153.216 -272.572 67.8848" stroke="url(#paint61_linear_299_22520)" stroke-width="0.768434" stroke-miterlimit="10"/>
<path d="M526.418 96.997C464.494 91.2854 440.099 36.2656 402.675 26.9311C400.752 26.4494 398.797 26.0809 396.805 25.8436C356.237 20.994 338.511 125.464 286.672 132.674C236.186 139.695 225.035 -5.52915 162.977 -8.08251C113.954 -10.0993 103.683 102.103 57.0428 135.565C45.4318 143.896 31.5497 146.883 14.1139 142.06C-113.273 106.816 -147.355 -158.171 -272.293 70.5539" stroke="url(#paint62_linear_299_22520)" stroke-width="0.768434" stroke-miterlimit="10"/>
<path d="M526.545 101.908C460.755 96.9242 437.327 27.1611 397.361 22.1784C357.395 17.1949 340.858 131.806 289.868 136.789C238.877 141.772 229.23 -6.35337 167.215 -9.52867C105.199 -12.704 105.904 168.249 17.6226 141.158C-110.833 101.738 -142.912 -163.126 -272.013 73.2231" stroke="url(#paint63_linear_299_22520)" stroke-width="0.768434" stroke-miterlimit="10"/>
<path d="M-92.8752 168.176C-44.1269 133.295 -11.3026 327.642 59.7681 352.557C130.839 377.473 197.695 128.35 287.354 227.735C353.474 301.028 460.549 165.435 586.659 356.875C719.322 558.264 827.671 208.962 827.671 208.962" stroke="url(#paint64_linear_299_22520)" stroke-width="0.822359" stroke-miterlimit="10"/>
<path d="M-93.022 173.087C-43.622 139.184 -10.9425 325.368 59.1055 349.034C65.1505 351.069 71.1695 351.149 77.1785 349.66C141.042 333.854 202.065 144.217 283.691 231.85C325.479 276.712 381.788 236.685 450.161 249.987C491.426 257.866 534.61 287.317 582.26 356.987C588.29 365.729 594.392 373.264 600.353 379.841C727.221 519.83 822.578 204.008 827.351 211.632" stroke="url(#paint65_linear_299_22520)" stroke-width="0.822359" stroke-miterlimit="10"/>
<path d="M-93.1682 177.997C-43.1166 145.072 -10.5809 323.092 58.4443 345.508C64.4111 347.433 70.3545 347.48 76.2935 346.026C139.555 330.582 198.741 151.51 280.028 235.963C322.147 279.723 377.13 236.094 445.634 248.619C487.55 256.282 529.311 289.315 577.861 357.095C583.999 365.666 590.39 372.855 596.534 379.166C725.55 511.69 817.485 199.052 827.03 214.3" stroke="url(#paint66_linear_299_22520)" stroke-width="0.822359" stroke-miterlimit="10"/>
<path d="M-93.3147 182.908C-42.6115 150.961 -10.2205 320.817 57.7828 341.984C63.6705 343.798 69.5394 343.812 75.4091 342.394C138.068 327.31 195.453 158.794 276.367 240.078C318.83 282.736 372.5 235.374 441.109 247.252C483.693 254.624 524.163 291.22 573.463 357.207C579.729 365.594 586.382 372.446 592.717 378.494C723.703 503.552 812.392 194.097 826.71 216.97" stroke="url(#paint67_linear_299_22520)" stroke-width="0.822359" stroke-miterlimit="10"/>
<path d="M-93.4614 187.818C-42.1067 156.85 -9.8594 318.541 57.1211 338.458C62.9297 340.161 68.724 340.143 74.5237 338.76C136.582 324.037 192.199 166.066 272.704 244.192C315.528 285.751 367.872 234.643 436.583 245.885C479.836 252.96 519.024 293.124 569.063 357.317C575.458 365.521 582.363 372.033 588.898 377.822C721.666 495.432 807.299 189.144 826.389 219.64" stroke="url(#paint68_linear_299_22520)" stroke-width="0.822359" stroke-miterlimit="10"/>
<path d="M-93.6077 192.729C-41.6013 162.738 -9.54277 316.423 56.459 334.934C62.1849 336.54 67.9082 336.475 73.6386 335.128C135.094 320.766 188.983 173.327 269.041 248.308C312.241 288.768 363.247 233.904 432.056 244.518C475.981 251.293 513.896 295.027 564.664 357.429C571.189 365.448 578.336 371.618 585.08 377.149C719.436 487.351 802.205 184.19 826.068 222.31" stroke="url(#paint69_linear_299_22520)" stroke-width="0.822359" stroke-miterlimit="10"/>
<path d="M-93.7534 197.639C-41.0955 168.627 -9.18614 314.177 55.7982 331.409C61.4451 332.906 67.0946 332.806 72.755 331.494C133.609 317.493 185.804 180.568 265.38 252.421C308.973 291.783 358.626 233.154 427.532 243.149C472.129 249.62 508.782 296.925 560.268 357.538C566.924 365.374 574.302 371.201 581.263 376.475C717.012 479.328 797.113 179.234 825.749 224.978" stroke="url(#paint70_linear_299_22520)" stroke-width="0.822359" stroke-miterlimit="10"/>
<path d="M-93.8999 202.549C-40.5895 174.515 -8.82931 311.928 55.1368 327.884C60.7045 329.273 66.2795 329.138 71.8698 327.862C132.121 314.221 182.662 187.794 261.718 256.536C305.72 294.796 354.006 232.394 423.006 241.782C468.279 247.941 503.679 298.821 555.87 357.648C562.659 365.3 570.259 370.785 577.446 375.801C714.391 471.386 792.021 174.278 825.43 227.647" stroke="url(#paint71_linear_299_22520)" stroke-width="0.822359" stroke-miterlimit="10"/>
<path d="M-94.0461 207.46C-40.0841 180.404 -8.47135 309.678 54.4755 324.359C59.9642 325.639 65.4646 325.47 70.9856 324.229C130.635 310.949 179.559 195.001 258.056 260.65C302.485 297.808 349.39 231.627 418.48 240.415C464.429 246.259 498.587 300.714 551.472 357.76C558.395 365.227 566.206 370.372 573.629 375.13C711.579 463.547 786.929 169.325 825.11 230.318" stroke="url(#paint72_linear_299_22520)" stroke-width="0.822359" stroke-miterlimit="10"/>
<path d="M-94.1929 212.37C-39.5792 186.293 -8.11208 307.427 53.8129 320.834C59.2225 322.005 64.6483 321.801 70.0992 320.595C129.146 307.676 176.494 202.184 254.392 264.764C299.267 300.814 344.773 230.85 413.953 239.047C460.579 244.571 493.505 302.6 547.071 357.869C554.13 365.153 562.142 369.96 569.809 374.456C708.583 455.825 781.834 164.369 824.788 232.986" stroke="url(#paint73_linear_299_22520)" stroke-width="0.822359" stroke-miterlimit="10"/>
<path d="M-94.3396 217.281C-39.0744 192.181 -7.75103 305.173 53.1512 317.309C58.4826 318.372 63.8338 318.132 69.2146 316.962C127.66 304.404 173.468 209.343 250.73 268.878C296.068 303.814 340.16 230.065 409.428 237.679C456.732 242.878 488.437 304.481 542.673 357.98C549.87 365.078 558.073 369.554 565.991 373.782C705.422 448.239 776.741 159.414 824.467 235.656" stroke="url(#paint74_linear_299_22520)" stroke-width="0.822359" stroke-miterlimit="10"/>
<path d="M-94.4858 222.191C-38.569 198.069 -7.38857 302.918 52.49 313.784C57.7423 314.738 63.0189 314.464 68.3305 313.33C126.173 301.132 170.482 216.475 247.068 272.993C292.888 306.806 335.548 229.273 404.902 236.312C452.885 241.181 483.379 306.357 538.275 358.09C545.61 365.003 553.994 369.153 562.174 373.109C702.107 440.8 771.649 154.46 824.148 238.325" stroke="url(#paint75_linear_299_22520)" stroke-width="0.822359" stroke-miterlimit="10"/>
<path d="M-94.6323 227.101C-38.0639 203.958 -7.02545 300.66 51.8285 310.259C57.0026 311.103 62.2037 310.796 67.4452 309.696C124.686 297.858 167.532 223.576 243.406 277.107C289.728 309.788 330.936 228.473 400.376 234.945C449.038 239.48 478.333 308.225 533.877 358.201C541.351 364.926 549.909 368.759 558.356 372.438C698.659 433.522 766.556 149.506 823.827 240.996" stroke="url(#paint76_linear_299_22520)" stroke-width="0.822359" stroke-miterlimit="10"/>
<path d="M-94.7781 232.012C-37.5581 209.847 -6.65982 298.4 51.1669 306.735C56.2628 307.47 61.3884 307.128 66.5607 306.064C123.199 294.588 164.622 230.648 239.744 281.223C286.587 312.759 326.326 227.667 395.85 233.578C445.193 237.773 473.297 310.086 529.478 358.312C537.093 364.849 545.817 368.374 554.538 371.765C695.096 426.407 761.462 144.552 823.507 243.665" stroke="url(#paint77_linear_299_22520)" stroke-width="0.822359" stroke-miterlimit="10"/>
<path d="M-94.9246 236.922C-37.0529 215.736 -6.294 296.138 50.5054 303.21C55.5223 303.834 60.5732 303.459 65.6755 302.43C121.712 291.315 161.746 237.682 236.081 285.336C283.465 315.712 321.716 226.851 391.323 232.21C441.347 236.06 468.269 311.937 525.079 358.422C532.837 364.77 541.719 367.997 550.719 371.091C691.441 419.461 756.368 139.596 823.186 246.334" stroke="url(#paint78_linear_299_22520)" stroke-width="0.822359" stroke-miterlimit="10"/>
<path d="M-95.071 241.833C-36.5478 221.624 -5.92732 293.873 49.8439 299.686C54.7826 300.201 59.759 299.791 64.7911 298.798C120.225 288.043 158.907 244.682 232.419 289.451C280.363 318.648 317.107 226.03 386.798 230.842C437.503 234.343 463.253 313.779 520.681 358.532C528.583 364.69 537.619 367.631 546.903 370.417C687.721 412.685 751.278 134.641 822.867 249.003" stroke="url(#paint79_linear_299_22520)" stroke-width="0.822359" stroke-miterlimit="10"/>
<path d="M-95.2173 246.743C-36.0425 227.512 -5.55947 291.605 49.1827 296.16C54.0431 296.564 58.944 296.122 63.9061 295.164C118.738 284.77 156.1 251.64 228.757 293.564C277.281 321.563 312.499 225.202 382.273 229.474C433.659 232.621 458.247 315.612 516.284 358.642C524.33 364.608 533.515 367.276 543.086 369.744C683.955 406.075 746.186 129.686 822.548 251.672" stroke="url(#paint80_linear_299_22520)" stroke-width="0.822359" stroke-miterlimit="10"/>
<path d="M-95.364 251.654C-35.5376 233.402 -5.1912 289.334 48.5201 292.636C53.3024 292.93 58.1278 292.454 63.0206 291.532C117.251 281.498 153.323 258.559 225.094 297.68C274.216 324.455 307.889 224.368 377.746 228.108C429.813 230.895 453.246 317.434 511.884 358.754C520.077 364.527 529.409 366.935 539.267 369.073C680.162 399.63 741.091 124.733 822.226 254.344" stroke="url(#paint81_linear_299_22520)" stroke-width="0.822359" stroke-miterlimit="10"/>
<path d="M-95.5105 256.563C-35.0325 239.289 -4.8218 287.059 47.8586 289.11C52.5627 289.293 57.3126 288.785 62.1362 287.898C115.765 278.225 150.576 265.431 221.432 301.792C271.17 327.317 303.281 223.526 373.221 226.738C425.97 229.161 448.254 319.243 507.485 358.862C515.825 364.441 525.301 366.601 535.449 368.397C676.369 393.333 735.999 119.776 821.906 257.01" stroke="url(#paint82_linear_299_22520)" stroke-width="0.822359" stroke-miterlimit="10"/>
<path d="M-95.6567 261.474C-34.5271 245.179 -4.45217 284.781 47.1974 285.586C51.8242 285.658 56.4977 285.117 61.2512 284.266C114.278 274.954 147.853 272.259 217.769 305.908C268.141 330.15 298.671 222.681 368.694 225.372C422.125 227.426 443.267 321.043 503.086 358.975C511.574 364.357 521.195 366.285 531.631 367.726C672.592 387.186 730.905 114.823 821.586 259.681" stroke="url(#paint83_linear_299_22520)" stroke-width="0.822359" stroke-miterlimit="10"/>
<path d="M-95.8025 266.385C-34.0204 251.068 -4.08203 282.5 46.5366 282.061C51.0852 282.021 55.6842 281.448 60.3676 280.633C112.792 271.681 145.153 279.04 214.108 310.022C265.13 332.947 294.063 221.828 364.169 224.005C418.282 225.685 438.288 322.83 498.69 359.085C507.327 364.269 517.092 365.979 527.815 367.053C668.854 381.17 725.813 109.868 821.266 262.35" stroke="url(#paint84_linear_299_22520)" stroke-width="0.822359" stroke-miterlimit="10"/>
<path d="M-95.9492 271.295C-33.5155 256.955 -3.71287 280.212 45.874 278.536C50.3444 278.385 54.8679 277.78 59.4812 276.999C111.303 268.409 142.468 285.77 210.445 314.137C262.129 335.704 289.452 220.971 359.642 222.637C414.436 223.938 433.311 324.605 494.29 359.195C503.076 364.179 513.266 363.832 523.995 366.38C661.62 399.044 720.719 104.913 820.945 265.02" stroke="url(#paint85_linear_299_22520)" stroke-width="0.822359" stroke-miterlimit="10"/>
<path d="M-96.0955 276.206C-33.0102 262.845 -3.34322 277.923 45.2128 275.011C49.605 274.748 54.053 274.112 58.5971 273.367C109.817 265.137 139.797 292.451 206.783 318.251C259.143 338.418 284.843 220.108 355.116 221.27C410.591 222.187 428.339 326.367 489.891 359.306C498.827 364.089 509.076 363.649 520.177 365.707C659.219 391.489 715.626 99.9593 820.624 267.69" stroke="url(#paint86_linear_299_22520)" stroke-width="0.822359" stroke-miterlimit="10"/>
<path d="M-96.2422 281.116C-32.5053 268.733 -2.97495 275.628 44.5511 271.486C48.8651 271.111 53.2376 270.443 57.7124 269.734C108.33 261.865 137.134 299.08 203.121 322.366C256.167 341.085 280.233 219.241 350.591 219.903C406.746 220.431 423.369 328.115 485.493 359.416C494.58 363.994 504.902 363.5 516.36 365.033C656.745 383.824 710.534 95.0037 820.305 270.359" stroke="url(#paint87_linear_299_22520)" stroke-width="0.822359" stroke-miterlimit="10"/>
<path d="M-96.3887 286.026C-32.0002 274.622 -2.60737 273.329 43.8896 267.961C48.1254 267.472 52.4224 266.774 56.8272 266.1C106.843 258.592 134.473 305.656 199.458 326.479C253.198 343.698 275.626 219.372 346.065 218.534C402.896 217.859 418.401 329.851 481.094 359.526C490.333 363.899 500.742 363.385 512.542 364.36C654.181 376.063 705.44 90.0487 819.984 273.028" stroke="url(#paint88_linear_299_22520)" stroke-width="0.822359" stroke-miterlimit="10"/>
<path d="M-96.5349 290.936C-31.4948 280.51 -2.24222 271.024 43.2284 264.437C47.386 263.834 51.6084 263.106 55.9431 262.467C105.357 255.32 131.809 312.181 195.796 330.594C250.232 346.258 271.019 218.376 341.54 217.167C399.046 216.182 413.434 331.576 476.697 359.637C486.086 363.802 496.633 364.624 508.725 363.688C651.16 352.654 700.349 85.0948 819.665 275.698" stroke="url(#paint89_linear_299_22520)" stroke-width="0.822359" stroke-miterlimit="10"/>
<path d="M-96.6816 295.847C-30.99 286.398 -1.87935 268.716 42.5658 260.912C46.6443 260.195 50.7921 259.438 55.0567 258.835C103.868 252.048 129.135 318.655 192.133 334.708C247.264 348.758 266.395 216.608 337.013 215.8C395.205 215.134 408.463 333.286 472.297 359.747C481.838 363.702 492.558 364.382 504.906 363.014C647.887 347.171 695.255 80.14 819.344 278.367" stroke="url(#paint90_linear_299_22520)" stroke-width="0.822359" stroke-miterlimit="10"/>
<path d="M-96.8269 300.758C-30.4836 292.288 -1.51681 266.404 41.9055 257.388C45.9059 256.557 49.9781 255.77 54.1735 255.202C102.383 248.776 126.446 325.077 188.472 338.823C244.295 351.193 261.783 215.722 332.489 214.432C391.359 213.358 403.496 334.986 467.9 359.858C477.591 363.6 488.492 364.149 501.089 362.341C644.715 341.733 690.163 75.1851 819.024 281.036" stroke="url(#paint91_linear_299_22520)" stroke-width="0.822359" stroke-miterlimit="10"/>
<path d="M-96.9736 305.668C-29.9788 298.176 -1.16025 264.086 41.2438 253.862C45.1651 252.916 49.1627 252.1 53.288 251.568C100.895 245.503 123.733 331.45 184.809 342.936C241.313 353.563 257.167 214.832 327.961 213.065C387.508 211.578 398.522 336.672 463.501 359.968C473.343 363.496 484.432 363.92 497.27 361.667C641.642 336.329 685.068 70.2295 818.703 283.705" stroke="url(#paint92_linear_299_22520)" stroke-width="0.822359" stroke-miterlimit="10"/>
<path d="M-97.1201 310.578C-29.4737 304.065 -0.807027 261.765 40.5824 250.338C44.4236 249.277 48.3485 248.433 52.4037 247.936C99.4085 242.232 120.99 337.777 181.147 347.053C238.318 355.868 252.551 213.939 323.436 211.699C383.66 209.795 393.546 338.348 459.103 360.08C469.096 363.393 480.38 363.701 493.453 360.997C638.673 330.952 679.977 65.2773 818.383 286.377" stroke="url(#paint93_linear_299_22520)" stroke-width="0.822359" stroke-miterlimit="10"/>
<path d="M-97.2664 315.489C-28.9683 309.953 -0.474224 259.384 39.9202 246.812C43.6806 245.631 47.5327 244.764 51.5186 244.302C97.9213 238.958 118.211 344.056 177.485 351.166C235.302 358.099 247.929 212.956 318.91 210.33C379.806 207.934 388.565 340.011 454.705 360.189C464.848 363.283 476.336 363.483 489.636 360.322C635.803 325.586 674.884 60.3209 818.063 289.045" stroke="url(#paint94_linear_299_22520)" stroke-width="0.822359" stroke-miterlimit="10"/>
<path d="M-97.4131 320.399C-22.0167 315.416 4.83269 245.653 50.6332 240.67C96.4345 235.686 115.386 350.297 173.822 355.281C232.258 360.264 243.312 212.138 314.383 208.963C385.454 205.788 384.647 386.741 485.817 359.65C633.027 320.23 669.79 55.3669 817.742 291.715" stroke="url(#paint95_linear_299_22520)" stroke-width="0.822359" stroke-miterlimit="10"/>
</g>
<g clip-path="url(#clip0_299_22520)">
<path d="M272.539 196.59C259.169 262.48 164.923 272.265 161.249 169.688C157.324 60.0842 53.3979 84.6928 53.6674 182.325" stroke="url(#paint96_linear_299_22520)" stroke-width="0.898753" stroke-miterlimit="10"/>
<path d="M270.41 192.515C260.814 256.625 168.84 270.591 161.179 170.433C153.014 63.6886 52.719 94.5417 57.869 187.113" stroke="url(#paint97_linear_299_22520)" stroke-width="0.898753" stroke-miterlimit="10"/>
<path d="M268.28 188.441C262.46 250.771 172.77 268.941 161.108 171.179C148.719 67.3162 52.0402 104.391 62.0698 191.902" stroke="url(#paint98_linear_299_22520)" stroke-width="0.898753" stroke-miterlimit="10"/>
<path d="M266.151 184.366C264.105 244.916 176.717 267.313 161.038 171.923C144.444 70.9656 51.3621 114.24 66.2714 196.69" stroke="url(#paint99_linear_299_22520)" stroke-width="0.898753" stroke-miterlimit="10"/>
<path d="M264.022 180.292C265.751 239.062 180.684 265.707 160.968 172.669C140.193 74.6352 50.6838 124.089 70.4731 201.478" stroke="url(#paint100_linear_299_22520)" stroke-width="0.898753" stroke-miterlimit="10"/>
<path d="M261.892 176.217C267.397 233.208 184.675 264.119 160.897 173.414C135.97 78.3232 50.0051 133.938 74.6744 206.266" stroke="url(#paint101_linear_299_22520)" stroke-width="0.898753" stroke-miterlimit="10"/>
<path d="M259.763 172.143C269.042 227.353 188.696 262.547 160.827 174.159C131.777 82.0264 49.3263 143.788 78.8757 211.054" stroke="url(#paint102_linear_299_22520)" stroke-width="0.898753" stroke-miterlimit="10"/>
<path d="M257.633 168.068C270.688 221.499 192.747 260.988 160.757 174.904C127.621 85.7398 48.6483 153.637 83.0769 215.842" stroke="url(#paint103_linear_299_22520)" stroke-width="0.898753" stroke-miterlimit="10"/>
<path d="M255.504 163.994C272.333 215.644 196.832 259.435 160.686 175.65C123.502 89.4599 47.9695 163.486 87.2781 220.631" stroke="url(#paint104_linear_299_22520)" stroke-width="0.898753" stroke-miterlimit="10"/>
<path d="M253.374 159.919C273.979 209.79 200.954 257.883 160.615 176.395C119.422 93.1795 47.2906 173.335 91.4793 225.419" stroke="url(#paint105_linear_299_22520)" stroke-width="0.898753" stroke-miterlimit="10"/>
<path d="M251.245 155.844C275.624 203.935 205.113 256.327 160.545 177.14C115.38 96.8937 46.6122 183.184 95.6805 230.207" stroke="url(#paint106_linear_299_22520)" stroke-width="0.898753" stroke-miterlimit="10"/>
<path d="M249.116 151.77C277.27 198.081 209.309 254.761 160.475 177.885C111.378 100.595 45.9339 193.033 99.8823 234.996" stroke="url(#paint107_linear_299_22520)" stroke-width="0.898753" stroke-miterlimit="10"/>
<path d="M246.986 147.695C278.916 192.227 213.538 253.177 160.404 178.63C107.41 104.28 45.2548 202.883 104.083 239.784" stroke="url(#paint108_linear_299_22520)" stroke-width="0.898753" stroke-miterlimit="10"/>
<path d="M244.856 143.621C280.561 186.372 217.8 251.571 160.333 179.376C103.474 107.943 44.5765 212.732 108.285 244.572" stroke="url(#paint109_linear_299_22520)" stroke-width="0.898753" stroke-miterlimit="10"/>
<path d="M242.727 139.546C282.207 180.518 222.09 249.938 160.263 180.121C99.5661 111.579 43.8982 222.581 112.486 249.36" stroke="url(#paint110_linear_299_22520)" stroke-width="0.898753" stroke-miterlimit="10"/>
<path d="M240.598 135.472C283.852 174.664 226.403 248.275 160.193 180.867C95.6801 115.186 43.2199 232.431 116.688 254.149" stroke="url(#paint111_linear_299_22520)" stroke-width="0.898753" stroke-miterlimit="10"/>
<path d="M238.468 131.397C285.498 168.809 230.734 246.577 160.122 181.612C91.809 118.761 42.5405 242.28 120.888 258.937" stroke="url(#paint112_linear_299_22520)" stroke-width="0.898753" stroke-miterlimit="10"/>
<path d="M236.339 127.323C287.143 162.955 235.078 244.846 160.052 182.357C87.9501 122.304 41.8626 252.129 125.09 263.725" stroke="url(#paint113_linear_299_22520)" stroke-width="0.898753" stroke-miterlimit="10"/>
<path d="M234.21 123.248C288.789 157.1 239.43 243.079 159.982 183.102C84.0962 125.814 41.1843 261.978 129.292 268.513" stroke="url(#paint114_linear_299_22520)" stroke-width="0.898753" stroke-miterlimit="10"/>
<path d="M232.08 119.174C290.435 151.246 243.783 241.279 159.911 183.847C80.2418 129.294 40.505 271.827 133.493 273.301" stroke="url(#paint115_linear_299_22520)" stroke-width="0.898753" stroke-miterlimit="10"/>
<path d="M229.951 115.099C292.08 145.391 248.135 239.446 159.841 184.592C76.3843 132.744 39.8269 281.676 137.694 278.089" stroke="url(#paint116_linear_299_22520)" stroke-width="0.898753" stroke-miterlimit="10"/>
<path d="M227.822 111.024C293.726 139.536 252.481 237.584 159.77 185.337C72.5195 136.168 39.1483 291.525 141.896 282.877" stroke="url(#paint117_linear_299_22520)" stroke-width="0.898753" stroke-miterlimit="10"/>
<path d="M225.691 106.95C295.371 133.683 256.819 235.696 159.7 186.083C68.6447 139.568 38.4695 301.375 146.097 287.666" stroke="url(#paint118_linear_299_22520)" stroke-width="0.898753" stroke-miterlimit="10"/>
<path d="M223.562 102.875C297.017 127.828 261.145 233.783 159.629 186.828C64.7572 142.946 37.7913 311.224 150.298 292.454" stroke="url(#paint119_linear_299_22520)" stroke-width="0.898753" stroke-miterlimit="10"/>
<path d="M221.433 98.8008C298.663 121.974 265.46 231.85 159.559 187.573C60.8563 146.306 37.1126 321.073 154.499 297.243" stroke="url(#paint120_linear_299_22520)" stroke-width="0.898753" stroke-miterlimit="10"/>
<path d="M219.303 94.7258C300.308 116.119 269.76 229.899 159.489 188.318C56.9411 149.65 36.4341 330.922 158.701 302.03" stroke="url(#paint121_linear_299_22520)" stroke-width="0.898753" stroke-miterlimit="10"/>
</g>
<defs>
<linearGradient id="paint0_linear_299_22520" x1="-193.046" y1="90.4863" x2="346.954" y2="78.7861" gradientUnits="userSpaceOnUse">
<stop stop-color="#7AA2FF"/>
<stop offset="1" stop-color="#3867FF" stop-opacity="0.08"/>
</linearGradient>
<linearGradient id="paint1_linear_299_22520" x1="-190.657" y1="90.6431" x2="345.801" y2="79.058" gradientUnits="userSpaceOnUse">
<stop stop-color="#7AA2FF"/>
<stop offset="1" stop-color="#3867FF" stop-opacity="0.08"/>
</linearGradient>
<linearGradient id="paint2_linear_299_22520" x1="-188.268" y1="90.8079" x2="344.647" y2="79.3383" gradientUnits="userSpaceOnUse">
<stop stop-color="#7AA2FF"/>
<stop offset="1" stop-color="#3867FF" stop-opacity="0.08"/>
</linearGradient>
<linearGradient id="paint3_linear_299_22520" x1="-185.877" y1="90.9794" x2="343.494" y2="79.6256" gradientUnits="userSpaceOnUse">
<stop stop-color="#7AA2FF"/>
<stop offset="1" stop-color="#3867FF" stop-opacity="0.08"/>
</linearGradient>
<linearGradient id="paint4_linear_299_22520" x1="-183.486" y1="91.1577" x2="342.339" y2="79.9201" gradientUnits="userSpaceOnUse">
<stop stop-color="#7AA2FF"/>
<stop offset="1" stop-color="#3867FF" stop-opacity="0.08"/>
</linearGradient>
<linearGradient id="paint5_linear_299_22520" x1="-181.096" y1="91.3452" x2="341.185" y2="80.2241" gradientUnits="userSpaceOnUse">
<stop stop-color="#7AA2FF"/>
<stop offset="1" stop-color="#3867FF" stop-opacity="0.08"/>
</linearGradient>
<linearGradient id="paint6_linear_299_22520" x1="-178.708" y1="91.541" x2="340.031" y2="80.5367" gradientUnits="userSpaceOnUse">
<stop stop-color="#7AA2FF"/>
<stop offset="1" stop-color="#3867FF" stop-opacity="0.08"/>
</linearGradient>
<linearGradient id="paint7_linear_299_22520" x1="-176.326" y1="91.7444" x2="338.879" y2="80.8567" gradientUnits="userSpaceOnUse">
<stop stop-color="#7AA2FF"/>
<stop offset="1" stop-color="#3867FF" stop-opacity="0.08"/>
</linearGradient>
<linearGradient id="paint8_linear_299_22520" x1="-173.954" y1="91.9588" x2="337.724" y2="81.188" gradientUnits="userSpaceOnUse">
<stop stop-color="#7AA2FF"/>
<stop offset="1" stop-color="#3867FF" stop-opacity="0.08"/>
</linearGradient>
<linearGradient id="paint9_linear_299_22520" x1="-171.599" y1="92.1822" x2="336.57" y2="81.528" gradientUnits="userSpaceOnUse">
<stop stop-color="#7AA2FF"/>
<stop offset="1" stop-color="#3867FF" stop-opacity="0.08"/>
</linearGradient>
<linearGradient id="paint10_linear_299_22520" x1="-169.266" y1="92.4173" x2="335.416" y2="81.8791" gradientUnits="userSpaceOnUse">
<stop stop-color="#7AA2FF"/>
<stop offset="1" stop-color="#3867FF" stop-opacity="0.08"/>
</linearGradient>
<linearGradient id="paint11_linear_299_22520" x1="-166.971" y1="92.6637" x2="334.265" y2="82.2404" gradientUnits="userSpaceOnUse">
<stop stop-color="#7AA2FF"/>
<stop offset="1" stop-color="#3867FF" stop-opacity="0.08"/>
</linearGradient>
<linearGradient id="paint12_linear_299_22520" x1="-164.729" y1="92.8532" x2="333.111" y2="82.5595" gradientUnits="userSpaceOnUse">
<stop stop-color="#7AA2FF"/>
<stop offset="1" stop-color="#3867FF" stop-opacity="0.08"/>
</linearGradient>
<linearGradient id="paint13_linear_299_22520" x1="-162.566" y1="93.2124" x2="331.959" y2="83.1157" gradientUnits="userSpaceOnUse">
<stop stop-color="#7AA2FF"/>
<stop offset="1" stop-color="#3867FF" stop-opacity="0.08"/>
</linearGradient>
<linearGradient id="paint14_linear_299_22520" x1="-160.523" y1="93.2071" x2="330.809" y2="83.33" gradientUnits="userSpaceOnUse">
<stop stop-color="#7AA2FF"/>
<stop offset="1" stop-color="#3867FF" stop-opacity="0.08"/>
</linearGradient>
<linearGradient id="paint15_linear_299_22520" x1="-160.581" y1="92.9083" x2="329.655" y2="83.1867" gradientUnits="userSpaceOnUse">
<stop stop-color="#7AA2FF"/>
<stop offset="1" stop-color="#3867FF" stop-opacity="0.08"/>
</linearGradient>
<linearGradient id="paint16_linear_299_22520" x1="-163.243" y1="92.3958" x2="328.497" y2="82.7424" gradientUnits="userSpaceOnUse">
<stop stop-color="#7AA2FF"/>
<stop offset="1" stop-color="#3867FF" stop-opacity="0.08"/>
</linearGradient>
<linearGradient id="paint17_linear_299_22520" x1="-167.631" y1="91.7363" x2="327.333" y2="82.0965" gradientUnits="userSpaceOnUse">
<stop stop-color="#7AA2FF"/>
<stop offset="1" stop-color="#3867FF" stop-opacity="0.08"/>
</linearGradient>
<linearGradient id="paint18_linear_299_22520" x1="-172.952" y1="90.9745" x2="326.167" y2="81.3213" gradientUnits="userSpaceOnUse">
<stop stop-color="#7AA2FF"/>
<stop offset="1" stop-color="#3867FF" stop-opacity="0.08"/>
</linearGradient>
<linearGradient id="paint19_linear_299_22520" x1="-178.323" y1="90.14" x2="325.004" y2="80.4782" gradientUnits="userSpaceOnUse">
<stop stop-color="#7AA2FF"/>
<stop offset="1" stop-color="#3867FF" stop-opacity="0.08"/>
</linearGradient>
<linearGradient id="paint20_linear_299_22520" x1="-183.693" y1="89.2598" x2="323.839" y2="79.594" gradientUnits="userSpaceOnUse">
<stop stop-color="#7AA2FF"/>
<stop offset="1" stop-color="#3867FF" stop-opacity="0.08"/>
</linearGradient>
<linearGradient id="paint21_linear_299_22520" x1="-189.064" y1="88.3502" x2="322.676" y2="78.6834" gradientUnits="userSpaceOnUse">
<stop stop-color="#7AA2FF"/>
<stop offset="1" stop-color="#3867FF" stop-opacity="0.08"/>
</linearGradient>
<linearGradient id="paint22_linear_299_22520" x1="-194.434" y1="87.4221" x2="321.51" y2="77.7564" gradientUnits="userSpaceOnUse">
<stop stop-color="#7AA2FF"/>
<stop offset="1" stop-color="#3867FF" stop-opacity="0.08"/>
</linearGradient>
<linearGradient id="paint23_linear_299_22520" x1="-199.804" y1="86.4785" x2="320.347" y2="76.8153" gradientUnits="userSpaceOnUse">
<stop stop-color="#7AA2FF"/>
<stop offset="1" stop-color="#3867FF" stop-opacity="0.08"/>
</linearGradient>
<linearGradient id="paint24_linear_299_22520" x1="-205.175" y1="85.5271" x2="319.183" y2="75.8674" gradientUnits="userSpaceOnUse">
<stop stop-color="#7AA2FF"/>
<stop offset="1" stop-color="#3867FF" stop-opacity="0.08"/>
</linearGradient>
<linearGradient id="paint25_linear_299_22520" x1="-210.546" y1="84.566" x2="318.018" y2="74.9109" gradientUnits="userSpaceOnUse">
<stop stop-color="#7AA2FF"/>
<stop offset="1" stop-color="#3867FF" stop-opacity="0.08"/>
</linearGradient>
<linearGradient id="paint26_linear_299_22520" x1="-215.916" y1="83.5943" x2="316.855" y2="73.9447" gradientUnits="userSpaceOnUse">
<stop stop-color="#7AA2FF"/>
<stop offset="1" stop-color="#3867FF" stop-opacity="0.08"/>
</linearGradient>
<linearGradient id="paint27_linear_299_22520" x1="-221.287" y1="82.6128" x2="315.69" y2="72.9697" gradientUnits="userSpaceOnUse">
<stop stop-color="#7AA2FF"/>
<stop offset="1" stop-color="#3867FF" stop-opacity="0.08"/>
</linearGradient>
<linearGradient id="paint28_linear_299_22520" x1="-226.657" y1="81.6202" x2="314.526" y2="71.9845" gradientUnits="userSpaceOnUse">
<stop stop-color="#7AA2FF"/>
<stop offset="1" stop-color="#3867FF" stop-opacity="0.08"/>
</linearGradient>
<linearGradient id="paint29_linear_299_22520" x1="-232.027" y1="80.617" x2="313.361" y2="70.9895" gradientUnits="userSpaceOnUse">
<stop stop-color="#7AA2FF"/>
<stop offset="1" stop-color="#3867FF" stop-opacity="0.08"/>
</linearGradient>
<linearGradient id="paint30_linear_299_22520" x1="-237.397" y1="79.6037" x2="312.198" y2="69.9851" gradientUnits="userSpaceOnUse">
<stop stop-color="#7AA2FF"/>
<stop offset="1" stop-color="#3867FF" stop-opacity="0.08"/>
</linearGradient>
<linearGradient id="paint31_linear_299_22520" x1="-242.768" y1="78.5806" x2="311.034" y2="68.9718" gradientUnits="userSpaceOnUse">
<stop stop-color="#7AA2FF"/>
<stop offset="1" stop-color="#3867FF" stop-opacity="0.08"/>
</linearGradient>
<linearGradient id="paint32_linear_299_22520" x1="-280.763" y1="85.5378" x2="520.769" y2="58.6744" gradientUnits="userSpaceOnUse">
<stop stop-color="#7AA2FF"/>
<stop offset="1" stop-color="#3867FF" stop-opacity="0.08"/>
</linearGradient>
<linearGradient id="paint33_linear_299_22520" x1="-280.483" y1="85.8013" x2="520.834" y2="58.016" gradientUnits="userSpaceOnUse">
<stop stop-color="#7AA2FF"/>
<stop offset="1" stop-color="#3867FF" stop-opacity="0.08"/>
</linearGradient>
<linearGradient id="paint34_linear_299_22520" x1="-280.203" y1="86.0962" x2="520.892" y2="57.3303" gradientUnits="userSpaceOnUse">
<stop stop-color="#7AA2FF"/>
<stop offset="1" stop-color="#3867FF" stop-opacity="0.08"/>
</linearGradient>
<linearGradient id="paint35_linear_299_22520" x1="-279.924" y1="86.4319" x2="520.943" y2="56.6229" gradientUnits="userSpaceOnUse">
<stop stop-color="#7AA2FF"/>
<stop offset="1" stop-color="#3867FF" stop-opacity="0.08"/>
</linearGradient>
<linearGradient id="paint36_linear_299_22520" x1="-279.646" y1="86.8146" x2="520.986" y2="55.8958" gradientUnits="userSpaceOnUse">
<stop stop-color="#7AA2FF"/>
<stop offset="1" stop-color="#3867FF" stop-opacity="0.08"/>
</linearGradient>
<linearGradient id="paint37_linear_299_22520" x1="-279.366" y1="87.2525" x2="521.021" y2="55.1529" gradientUnits="userSpaceOnUse">
<stop stop-color="#7AA2FF"/>
<stop offset="1" stop-color="#3867FF" stop-opacity="0.08"/>
</linearGradient>
<linearGradient id="paint38_linear_299_22520" x1="-279.087" y1="87.7514" x2="521.045" y2="54.3956" gradientUnits="userSpaceOnUse">
<stop stop-color="#7AA2FF"/>
<stop offset="1" stop-color="#3867FF" stop-opacity="0.08"/>
</linearGradient>
<linearGradient id="paint39_linear_299_22520" x1="-278.807" y1="88.3191" x2="521.06" y2="53.6266" gradientUnits="userSpaceOnUse">
<stop stop-color="#7AA2FF"/>
<stop offset="1" stop-color="#3867FF" stop-opacity="0.08"/>
</linearGradient>
<linearGradient id="paint40_linear_299_22520" x1="-278.527" y1="88.9607" x2="521.061" y2="52.8461" gradientUnits="userSpaceOnUse">
<stop stop-color="#7AA2FF"/>
<stop offset="1" stop-color="#3867FF" stop-opacity="0.08"/>
</linearGradient>
<linearGradient id="paint41_linear_299_22520" x1="-278.248" y1="89.6798" x2="521.049" y2="52.0519" gradientUnits="userSpaceOnUse">
<stop stop-color="#7AA2FF"/>
<stop offset="1" stop-color="#3867FF" stop-opacity="0.08"/>
</linearGradient>
<linearGradient id="paint42_linear_299_22520" x1="-277.969" y1="90.4802" x2="521.021" y2="51.2412" gradientUnits="userSpaceOnUse">
<stop stop-color="#7AA2FF"/>
<stop offset="1" stop-color="#3867FF" stop-opacity="0.08"/>
</linearGradient>
<linearGradient id="paint43_linear_299_22520" x1="-277.689" y1="91.3615" x2="520.975" y2="50.406" gradientUnits="userSpaceOnUse">
<stop stop-color="#7AA2FF"/>
<stop offset="1" stop-color="#3867FF" stop-opacity="0.08"/>
</linearGradient>
<linearGradient id="paint44_linear_299_22520" x1="-277.409" y1="91.816" x2="520.942" y2="49.3294" gradientUnits="userSpaceOnUse">
<stop stop-color="#7AA2FF"/>
<stop offset="1" stop-color="#3867FF" stop-opacity="0.08"/>
</linearGradient>
<linearGradient id="paint45_linear_299_22520" x1="-277.13" y1="90.4861" x2="521.02" y2="47.5366" gradientUnits="userSpaceOnUse">
<stop stop-color="#7AA2FF"/>
<stop offset="1" stop-color="#3867FF" stop-opacity="0.08"/>
</linearGradient>
<linearGradient id="paint46_linear_299_22520" x1="-276.85" y1="89.1627" x2="521.106" y2="45.8306" gradientUnits="userSpaceOnUse">
<stop stop-color="#7AA2FF"/>
<stop offset="1" stop-color="#3867FF" stop-opacity="0.08"/>
</linearGradient>
<linearGradient id="paint47_linear_299_22520" x1="-276.571" y1="87.8485" x2="521.201" y2="44.2138" gradientUnits="userSpaceOnUse">
<stop stop-color="#7AA2FF"/>
<stop offset="1" stop-color="#3867FF" stop-opacity="0.08"/>
</linearGradient>
<linearGradient id="paint48_linear_299_22520" x1="-276.291" y1="86.5448" x2="521.303" y2="42.6868" gradientUnits="userSpaceOnUse">
<stop stop-color="#7AA2FF"/>
<stop offset="1" stop-color="#3867FF" stop-opacity="0.08"/>
</linearGradient>
<linearGradient id="paint49_linear_299_22520" x1="-276.012" y1="85.2544" x2="521.415" y2="41.2503" gradientUnits="userSpaceOnUse">
<stop stop-color="#7AA2FF"/>
<stop offset="1" stop-color="#3867FF" stop-opacity="0.08"/>
</linearGradient>
<linearGradient id="paint50_linear_299_22520" x1="-275.732" y1="83.9789" x2="521.535" y2="39.9032" gradientUnits="userSpaceOnUse">
<stop stop-color="#7AA2FF"/>
<stop offset="1" stop-color="#3867FF" stop-opacity="0.08"/>
</linearGradient>
<linearGradient id="paint51_linear_299_22520" x1="-275.453" y1="82.7195" x2="521.662" y2="38.6439" gradientUnits="userSpaceOnUse">
<stop stop-color="#7AA2FF"/>
<stop offset="1" stop-color="#3867FF" stop-opacity="0.08"/>
</linearGradient>
<linearGradient id="paint52_linear_299_22520" x1="-275.174" y1="81.476" x2="521.797" y2="37.4673" gradientUnits="userSpaceOnUse">
<stop stop-color="#7AA2FF"/>
<stop offset="1" stop-color="#3867FF" stop-opacity="0.08"/>
</linearGradient>
<linearGradient id="paint53_linear_299_22520" x1="-274.894" y1="80.2497" x2="521.938" y2="36.3713" gradientUnits="userSpaceOnUse">
<stop stop-color="#7AA2FF"/>
<stop offset="1" stop-color="#3867FF" stop-opacity="0.08"/>
</linearGradient>
<linearGradient id="paint54_linear_299_22520" x1="-274.615" y1="79.0425" x2="522.087" y2="35.354" gradientUnits="userSpaceOnUse">
<stop stop-color="#7AA2FF"/>
<stop offset="1" stop-color="#3867FF" stop-opacity="0.08"/>
</linearGradient>
<linearGradient id="paint55_linear_299_22520" x1="-274.336" y1="77.8502" x2="522.241" y2="34.4049" gradientUnits="userSpaceOnUse">
<stop stop-color="#7AA2FF"/>
<stop offset="1" stop-color="#3867FF" stop-opacity="0.08"/>
</linearGradient>
<linearGradient id="paint56_linear_299_22520" x1="-274.056" y1="76.6664" x2="522.399" y2="33.51" gradientUnits="userSpaceOnUse">
<stop stop-color="#7AA2FF"/>
<stop offset="1" stop-color="#3867FF" stop-opacity="0.08"/>
</linearGradient>
<linearGradient id="paint57_linear_299_22520" x1="-273.776" y1="75.4815" x2="522.562" y2="32.6506" gradientUnits="userSpaceOnUse">
<stop stop-color="#7AA2FF"/>
<stop offset="1" stop-color="#3867FF" stop-opacity="0.08"/>
</linearGradient>
<linearGradient id="paint58_linear_299_22520" x1="-273.497" y1="74.291" x2="522.729" y2="31.8168" gradientUnits="userSpaceOnUse">
<stop stop-color="#7AA2FF"/>
<stop offset="1" stop-color="#3867FF" stop-opacity="0.08"/>
</linearGradient>
<linearGradient id="paint59_linear_299_22520" x1="-273.217" y1="73.0912" x2="522.897" y2="30.9997" gradientUnits="userSpaceOnUse">
<stop stop-color="#7AA2FF"/>
<stop offset="1" stop-color="#3867FF" stop-opacity="0.08"/>
</linearGradient>
<linearGradient id="paint60_linear_299_22520" x1="-272.938" y1="71.8797" x2="523.067" y2="30.1925" gradientUnits="userSpaceOnUse">
<stop stop-color="#7AA2FF"/>
<stop offset="1" stop-color="#3867FF" stop-opacity="0.08"/>
</linearGradient>
<linearGradient id="paint61_linear_299_22520" x1="-272.658" y1="70.6549" x2="523.239" y2="29.3905" gradientUnits="userSpaceOnUse">
<stop stop-color="#7AA2FF"/>
<stop offset="1" stop-color="#3867FF" stop-opacity="0.08"/>
</linearGradient>
<linearGradient id="paint62_linear_299_22520" x1="-272.379" y1="69.4127" x2="523.411" y2="28.5854" gradientUnits="userSpaceOnUse">
<stop stop-color="#7AA2FF"/>
<stop offset="1" stop-color="#3867FF" stop-opacity="0.08"/>
</linearGradient>
<linearGradient id="paint63_linear_299_22520" x1="-272.099" y1="68.1543" x2="523.584" y2="27.7763" gradientUnits="userSpaceOnUse">
<stop stop-color="#7AA2FF"/>
<stop offset="1" stop-color="#3867FF" stop-opacity="0.08"/>
</linearGradient>
<linearGradient id="paint64_linear_299_22520" x1="-92.9745" y1="304.029" x2="825.265" y2="268.761" gradientUnits="userSpaceOnUse">
<stop stop-color="#7AA2FF"/>
<stop offset="1" stop-color="#3867FF" stop-opacity="0.08"/>
</linearGradient>
<linearGradient id="paint65_linear_299_22520" x1="-93.1212" y1="304.22" x2="824.849" y2="267.722" gradientUnits="userSpaceOnUse">
<stop stop-color="#7AA2FF"/>
<stop offset="1" stop-color="#3867FF" stop-opacity="0.08"/>
</linearGradient>
<linearGradient id="paint66_linear_299_22520" x1="-93.2675" y1="304.443" x2="824.422" y2="266.634" gradientUnits="userSpaceOnUse">
<stop stop-color="#7AA2FF"/>
<stop offset="1" stop-color="#3867FF" stop-opacity="0.08"/>
</linearGradient>
<linearGradient id="paint67_linear_299_22520" x1="-93.4139" y1="304.707" x2="823.984" y2="265.503" gradientUnits="userSpaceOnUse">
<stop stop-color="#7AA2FF"/>
<stop offset="1" stop-color="#3867FF" stop-opacity="0.08"/>
</linearGradient>
<linearGradient id="paint68_linear_299_22520" x1="-93.5606" y1="305.017" x2="823.533" y2="264.327" gradientUnits="userSpaceOnUse">
<stop stop-color="#7AA2FF"/>
<stop offset="1" stop-color="#3867FF" stop-opacity="0.08"/>
</linearGradient>
<linearGradient id="paint69_linear_299_22520" x1="-93.7068" y1="305.383" x2="823.068" y2="263.107" gradientUnits="userSpaceOnUse">
<stop stop-color="#7AA2FF"/>
<stop offset="1" stop-color="#3867FF" stop-opacity="0.08"/>
</linearGradient>
<linearGradient id="paint70_linear_299_22520" x1="-93.8526" y1="305.807" x2="822.59" y2="261.84" gradientUnits="userSpaceOnUse">
<stop stop-color="#7AA2FF"/>
<stop offset="1" stop-color="#3867FF" stop-opacity="0.08"/>
</linearGradient>
<linearGradient id="paint71_linear_299_22520" x1="-93.999" y1="306.297" x2="822.094" y2="260.528" gradientUnits="userSpaceOnUse">
<stop stop-color="#7AA2FF"/>
<stop offset="1" stop-color="#3867FF" stop-opacity="0.08"/>
</linearGradient>
<linearGradient id="paint72_linear_299_22520" x1="-94.1453" y1="306.862" x2="821.576" y2="259.171" gradientUnits="userSpaceOnUse">
<stop stop-color="#7AA2FF"/>
<stop offset="1" stop-color="#3867FF" stop-opacity="0.08"/>
</linearGradient>
<linearGradient id="paint73_linear_299_22520" x1="-94.292" y1="307.503" x2="821.035" y2="257.76" gradientUnits="userSpaceOnUse">
<stop stop-color="#7AA2FF"/>
<stop offset="1" stop-color="#3867FF" stop-opacity="0.08"/>
</linearGradient>
<linearGradient id="paint74_linear_299_22520" x1="-94.4387" y1="308.227" x2="820.47" y2="256.294" gradientUnits="userSpaceOnUse">
<stop stop-color="#7AA2FF"/>
<stop offset="1" stop-color="#3867FF" stop-opacity="0.08"/>
</linearGradient>
<linearGradient id="paint75_linear_299_22520" x1="-94.5849" y1="309.035" x2="819.878" y2="254.764" gradientUnits="userSpaceOnUse">
<stop stop-color="#7AA2FF"/>
<stop offset="1" stop-color="#3867FF" stop-opacity="0.08"/>
</linearGradient>
<linearGradient id="paint76_linear_299_22520" x1="-94.7314" y1="309.542" x2="819.29" y2="253.08" gradientUnits="userSpaceOnUse">
<stop stop-color="#7AA2FF"/>
<stop offset="1" stop-color="#3867FF" stop-opacity="0.08"/>
</linearGradient>
<linearGradient id="paint77_linear_299_22520" x1="-94.8771" y1="308.156" x2="818.885" y2="251.017" gradientUnits="userSpaceOnUse">
<stop stop-color="#7AA2FF"/>
<stop offset="1" stop-color="#3867FF" stop-opacity="0.08"/>
</linearGradient>
<linearGradient id="paint78_linear_299_22520" x1="-95.0236" y1="306.779" x2="818.493" y2="249.076" gradientUnits="userSpaceOnUse">
<stop stop-color="#7AA2FF"/>
<stop offset="1" stop-color="#3867FF" stop-opacity="0.08"/>
</linearGradient>
<linearGradient id="paint79_linear_299_22520" x1="-95.17" y1="305.419" x2="818.116" y2="247.266" gradientUnits="userSpaceOnUse">
<stop stop-color="#7AA2FF"/>
<stop offset="1" stop-color="#3867FF" stop-opacity="0.08"/>
</linearGradient>
<linearGradient id="paint80_linear_299_22520" x1="-95.3163" y1="304.077" x2="817.754" y2="245.591" gradientUnits="userSpaceOnUse">
<stop stop-color="#7AA2FF"/>
<stop offset="1" stop-color="#3867FF" stop-opacity="0.08"/>
</linearGradient>
<linearGradient id="paint81_linear_299_22520" x1="-95.463" y1="302.762" x2="817.403" y2="244.056" gradientUnits="userSpaceOnUse">
<stop stop-color="#7AA2FF"/>
<stop offset="1" stop-color="#3867FF" stop-opacity="0.08"/>
</linearGradient>
<linearGradient id="paint82_linear_299_22520" x1="-95.6094" y1="301.466" x2="817.069" y2="242.653" gradientUnits="userSpaceOnUse">
<stop stop-color="#7AA2FF"/>
<stop offset="1" stop-color="#3867FF" stop-opacity="0.08"/>
</linearGradient>
<linearGradient id="paint83_linear_299_22520" x1="-95.7557" y1="300.201" x2="816.748" y2="241.391" gradientUnits="userSpaceOnUse">
<stop stop-color="#7AA2FF"/>
<stop offset="1" stop-color="#3867FF" stop-opacity="0.08"/>
</linearGradient>
<linearGradient id="paint84_linear_299_22520" x1="-95.9014" y1="298.964" x2="816.442" y2="240.259" gradientUnits="userSpaceOnUse">
<stop stop-color="#7AA2FF"/>
<stop offset="1" stop-color="#3867FF" stop-opacity="0.08"/>
</linearGradient>
<linearGradient id="paint85_linear_299_22520" x1="-96.0481" y1="300.283" x2="816.126" y2="241.625" gradientUnits="userSpaceOnUse">
<stop stop-color="#7AA2FF"/>
<stop offset="1" stop-color="#3867FF" stop-opacity="0.08"/>
</linearGradient>
<linearGradient id="paint86_linear_299_22520" x1="-96.1943" y1="298.681" x2="815.807" y2="240.046" gradientUnits="userSpaceOnUse">
<stop stop-color="#7AA2FF"/>
<stop offset="1" stop-color="#3867FF" stop-opacity="0.08"/>
</linearGradient>
<linearGradient id="paint87_linear_299_22520" x1="-96.341" y1="297.111" x2="815.507" y2="238.627" gradientUnits="userSpaceOnUse">
<stop stop-color="#7AA2FF"/>
<stop offset="1" stop-color="#3867FF" stop-opacity="0.08"/>
</linearGradient>
<linearGradient id="paint88_linear_299_22520" x1="-96.4875" y1="295.589" x2="815.222" y2="237.392" gradientUnits="userSpaceOnUse">
<stop stop-color="#7AA2FF"/>
<stop offset="1" stop-color="#3867FF" stop-opacity="0.08"/>
</linearGradient>
<linearGradient id="paint89_linear_299_22520" x1="-96.6337" y1="293.261" x2="815.077" y2="236.434" gradientUnits="userSpaceOnUse">
<stop stop-color="#7AA2FF"/>
<stop offset="1" stop-color="#3867FF" stop-opacity="0.08"/>
</linearGradient>
<linearGradient id="paint90_linear_299_22520" x1="-96.7804" y1="292.183" x2="814.827" y2="235.931" gradientUnits="userSpaceOnUse">
<stop stop-color="#7AA2FF"/>
<stop offset="1" stop-color="#3867FF" stop-opacity="0.08"/>
</linearGradient>
<linearGradient id="paint91_linear_299_22520" x1="-96.9257" y1="291.1" x2="814.582" y2="235.457" gradientUnits="userSpaceOnUse">
<stop stop-color="#7AA2FF"/>
<stop offset="1" stop-color="#3867FF" stop-opacity="0.08"/>
</linearGradient>
<linearGradient id="paint92_linear_299_22520" x1="-97.0724" y1="290.007" x2="814.338" y2="235.001" gradientUnits="userSpaceOnUse">
<stop stop-color="#7AA2FF"/>
<stop offset="1" stop-color="#3867FF" stop-opacity="0.08"/>
</linearGradient>
<linearGradient id="paint93_linear_299_22520" x1="-97.2188" y1="288.904" x2="814.097" y2="234.555" gradientUnits="userSpaceOnUse">
<stop stop-color="#7AA2FF"/>
<stop offset="1" stop-color="#3867FF" stop-opacity="0.08"/>
</linearGradient>
<linearGradient id="paint94_linear_299_22520" x1="-97.3651" y1="287.782" x2="813.857" y2="234.107" gradientUnits="userSpaceOnUse">
<stop stop-color="#7AA2FF"/>
<stop offset="1" stop-color="#3867FF" stop-opacity="0.08"/>
</linearGradient>
<linearGradient id="paint95_linear_299_22520" x1="-97.5118" y1="286.646" x2="813.616" y2="233.659" gradientUnits="userSpaceOnUse">
<stop stop-color="#7AA2FF"/>
<stop offset="1" stop-color="#3867FF" stop-opacity="0.08"/>
</linearGradient>
<linearGradient id="paint96_linear_299_22520" x1="152.551" y1="97.6548" x2="153.628" y2="246.3" gradientUnits="userSpaceOnUse">
<stop stop-color="#7AA2FF"/>
<stop offset="1" stop-color="#3867FF" stop-opacity="0.08"/>
</linearGradient>
<linearGradient id="paint97_linear_299_22520" x1="153.788" y1="102.967" x2="154.77" y2="242.946" gradientUnits="userSpaceOnUse">
<stop stop-color="#7AA2FF"/>
<stop offset="1" stop-color="#3867FF" stop-opacity="0.08"/>
</linearGradient>
<linearGradient id="paint98_linear_299_22520" x1="154.834" y1="108.162" x2="155.726" y2="239.689" gradientUnits="userSpaceOnUse">
<stop stop-color="#7AA2FF"/>
<stop offset="1" stop-color="#3867FF" stop-opacity="0.08"/>
</linearGradient>
<linearGradient id="paint99_linear_299_22520" x1="155.692" y1="113.227" x2="156.497" y2="236.535" gradientUnits="userSpaceOnUse">
<stop stop-color="#7AA2FF"/>
<stop offset="1" stop-color="#3867FF" stop-opacity="0.08"/>
</linearGradient>
<linearGradient id="paint100_linear_299_22520" x1="156.373" y1="118.154" x2="157.095" y2="233.493" gradientUnits="userSpaceOnUse">
<stop stop-color="#7AA2FF"/>
<stop offset="1" stop-color="#3867FF" stop-opacity="0.08"/>
</linearGradient>
<linearGradient id="paint101_linear_299_22520" x1="156.963" y1="122.932" x2="157.607" y2="230.566" gradientUnits="userSpaceOnUse">
<stop stop-color="#7AA2FF"/>
<stop offset="1" stop-color="#3867FF" stop-opacity="0.08"/>
</linearGradient>
<linearGradient id="paint102_linear_299_22520" x1="157.482" y1="127.553" x2="158.052" y2="227.76" gradientUnits="userSpaceOnUse">
<stop stop-color="#7AA2FF"/>
<stop offset="1" stop-color="#3867FF" stop-opacity="0.08"/>
</linearGradient>
<linearGradient id="paint103_linear_299_22520" x1="157.933" y1="132.008" x2="158.434" y2="225.079" gradientUnits="userSpaceOnUse">
<stop stop-color="#7AA2FF"/>
<stop offset="1" stop-color="#3867FF" stop-opacity="0.08"/>
</linearGradient>
<linearGradient id="paint104_linear_299_22520" x1="158.322" y1="136.29" x2="158.759" y2="222.524" gradientUnits="userSpaceOnUse">
<stop stop-color="#7AA2FF"/>
<stop offset="1" stop-color="#3867FF" stop-opacity="0.08"/>
</linearGradient>
<linearGradient id="paint105_linear_299_22520" x1="158.655" y1="140.391" x2="159.084" y2="225.32" gradientUnits="userSpaceOnUse">
<stop stop-color="#7AA2FF"/>
<stop offset="1" stop-color="#3867FF" stop-opacity="0.08"/>
</linearGradient>
<linearGradient id="paint106_linear_299_22520" x1="158.939" y1="144.308" x2="159.381" y2="230.107" gradientUnits="userSpaceOnUse">
<stop stop-color="#7AA2FF"/>
<stop offset="1" stop-color="#3867FF" stop-opacity="0.08"/>
</linearGradient>
<linearGradient id="paint107_linear_299_22520" x1="159.18" y1="148.037" x2="159.638" y2="234.894" gradientUnits="userSpaceOnUse">
<stop stop-color="#7AA2FF"/>
<stop offset="1" stop-color="#3867FF" stop-opacity="0.08"/>
</linearGradient>
<linearGradient id="paint108_linear_299_22520" x1="159.386" y1="147.685" x2="159.902" y2="239.675" gradientUnits="userSpaceOnUse">
<stop stop-color="#7AA2FF"/>
<stop offset="1" stop-color="#3867FF" stop-opacity="0.08"/>
</linearGradient>
<linearGradient id="paint109_linear_299_22520" x1="159.563" y1="143.61" x2="160.185" y2="244.453" gradientUnits="userSpaceOnUse">
<stop stop-color="#7AA2FF"/>
<stop offset="1" stop-color="#3867FF" stop-opacity="0.08"/>
</linearGradient>
<linearGradient id="paint110_linear_299_22520" x1="159.718" y1="139.535" x2="160.453" y2="249.23" gradientUnits="userSpaceOnUse">
<stop stop-color="#7AA2FF"/>
<stop offset="1" stop-color="#3867FF" stop-opacity="0.08"/>
</linearGradient>
<linearGradient id="paint111_linear_299_22520" x1="159.853" y1="135.459" x2="160.712" y2="254.007" gradientUnits="userSpaceOnUse">
<stop stop-color="#7AA2FF"/>
<stop offset="1" stop-color="#3867FF" stop-opacity="0.08"/>
</linearGradient>
<linearGradient id="paint112_linear_299_22520" x1="159.974" y1="131.383" x2="160.962" y2="258.783" gradientUnits="userSpaceOnUse">
<stop stop-color="#7AA2FF"/>
<stop offset="1" stop-color="#3867FF" stop-opacity="0.08"/>
</linearGradient>
<linearGradient id="paint113_linear_299_22520" x1="160.083" y1="127.308" x2="161.208" y2="263.56" gradientUnits="userSpaceOnUse">
<stop stop-color="#7AA2FF"/>
<stop offset="1" stop-color="#3867FF" stop-opacity="0.08"/>
</linearGradient>
<linearGradient id="paint114_linear_299_22520" x1="160.183" y1="123.232" x2="161.451" y2="268.336" gradientUnits="userSpaceOnUse">
<stop stop-color="#7AA2FF"/>
<stop offset="1" stop-color="#3867FF" stop-opacity="0.08"/>
</linearGradient>
<linearGradient id="paint115_linear_299_22520" x1="160.273" y1="119.157" x2="161.69" y2="273.112" gradientUnits="userSpaceOnUse">
<stop stop-color="#7AA2FF"/>
<stop offset="1" stop-color="#3867FF" stop-opacity="0.08"/>
</linearGradient>
<linearGradient id="paint116_linear_299_22520" x1="160.356" y1="115.081" x2="161.928" y2="277.952" gradientUnits="userSpaceOnUse">
<stop stop-color="#7AA2FF"/>
<stop offset="1" stop-color="#3867FF" stop-opacity="0.08"/>
</linearGradient>
<linearGradient id="paint117_linear_299_22520" x1="160.431" y1="111.006" x2="162.168" y2="283.012" gradientUnits="userSpaceOnUse">
<stop stop-color="#7AA2FF"/>
<stop offset="1" stop-color="#3867FF" stop-opacity="0.08"/>
</linearGradient>
<linearGradient id="paint118_linear_299_22520" x1="160.498" y1="106.931" x2="162.408" y2="288.266" gradientUnits="userSpaceOnUse">
<stop stop-color="#7AA2FF"/>
<stop offset="1" stop-color="#3867FF" stop-opacity="0.08"/>
</linearGradient>
<linearGradient id="paint119_linear_299_22520" x1="160.558" y1="102.855" x2="162.649" y2="293.681" gradientUnits="userSpaceOnUse">
<stop stop-color="#7AA2FF"/>
<stop offset="1" stop-color="#3867FF" stop-opacity="0.08"/>
</linearGradient>
<linearGradient id="paint120_linear_299_22520" x1="160.611" y1="98.7791" x2="162.89" y2="299.232" gradientUnits="userSpaceOnUse">
<stop stop-color="#7AA2FF"/>
<stop offset="1" stop-color="#3867FF" stop-opacity="0.08"/>
</linearGradient>
<linearGradient id="paint121_linear_299_22520" x1="160.655" y1="94.7031" x2="163.13" y2="304.896" gradientUnits="userSpaceOnUse">
<stop stop-color="#7AA2FF"/>
<stop offset="1" stop-color="#3867FF" stop-opacity="0.08"/>
</linearGradient>
<clipPath id="clip0_299_22520">
<rect width="210.861" height="219.296" fill="white" transform="translate(272.749 94.519) rotate(90)"/>
</clipPath>
</defs>
</svg>
