<svg xmlns="http://www.w3.org/2000/svg" width="180" height="26" viewBox="0 0 180 26" fill="none">
  <path d="M164.168 23.9758V7.14377H167.848L168.2 9.44777H168.424C168.808 8.8931 169.267 8.4131 169.8 8.00777C170.355 7.60243 170.973 7.2931 171.656 7.07977C172.339 6.86643 173.085 6.75977 173.896 6.75977C175.005 6.75977 175.976 6.96243 176.808 7.36777C177.64 7.7731 178.28 8.4131 178.728 9.28777C179.197 10.1624 179.432 11.3038 179.432 12.7118V23.9758H174.984V13.4158C174.984 12.8824 174.92 12.4344 174.792 12.0718C174.664 11.6878 174.472 11.3784 174.216 11.1438C173.981 10.8878 173.683 10.7064 173.32 10.5998C172.957 10.4931 172.552 10.4398 172.104 10.4398C171.443 10.4398 170.845 10.5998 170.312 10.9198C169.779 11.2398 169.363 11.6771 169.064 12.2318C168.765 12.7864 168.616 13.4264 168.616 14.1518V23.9758H164.168Z" fill="white"/>
  <path d="M152.287 24.3598C150.452 24.3598 148.895 24.0504 147.615 23.4318C146.335 22.7918 145.364 21.8211 144.703 20.5198C144.042 19.1971 143.711 17.5438 143.711 15.5598C143.711 13.5331 144.042 11.8798 144.703 10.5998C145.364 9.29843 146.335 8.33843 147.615 7.71977C148.895 7.07977 150.452 6.75977 152.287 6.75977C154.164 6.75977 155.732 7.07977 156.991 7.71977C158.271 8.33843 159.242 9.29843 159.903 10.5998C160.564 11.8798 160.895 13.5331 160.895 15.5598C160.895 17.5438 160.564 19.1971 159.903 20.5198C159.242 21.8211 158.271 22.7918 156.991 23.4318C155.732 24.0504 154.164 24.3598 152.287 24.3598ZM152.287 20.9038C153.268 20.9038 154.047 20.7224 154.623 20.3598C155.22 19.9971 155.658 19.4424 155.935 18.6958C156.212 17.9491 156.351 17.0318 156.351 15.9438V15.1758C156.351 14.0878 156.212 13.1704 155.935 12.4238C155.658 11.6771 155.22 11.1224 154.623 10.7598C154.047 10.3758 153.268 10.1838 152.287 10.1838C151.327 10.1838 150.548 10.3758 149.951 10.7598C149.375 11.1224 148.948 11.6771 148.671 12.4238C148.394 13.1704 148.255 14.0878 148.255 15.1758V15.9438C148.255 17.0318 148.394 17.9491 148.671 18.6958C148.948 19.4424 149.375 19.9971 149.951 20.3598C150.548 20.7224 151.327 20.9038 152.287 20.9038Z" fill="white"/>
  <path d="M136.012 4.67984V0.839844H140.46V4.67984H136.012ZM136.012 23.9758V7.14384H140.46V23.9758H136.012Z" fill="white"/>
  <path d="M125.046 24.3598C123.872 24.3598 122.816 24.2318 121.878 23.9758C120.939 23.7198 120.139 23.3678 119.478 22.9198C118.816 22.4504 118.304 21.8958 117.942 21.2558C117.6 20.6158 117.43 19.8904 117.43 19.0798C117.43 18.9944 117.43 18.9091 117.43 18.8238C117.43 18.7384 117.44 18.6744 117.462 18.6318H121.75C121.75 18.6744 121.75 18.7171 121.75 18.7598C121.75 18.8024 121.75 18.8451 121.75 18.8878C121.771 19.4211 121.942 19.8584 122.262 20.1998C122.582 20.5198 122.998 20.7544 123.51 20.9038C124.043 21.0531 124.598 21.1278 125.174 21.1278C125.686 21.1278 126.176 21.0851 126.646 20.9998C127.136 20.8931 127.542 20.7118 127.862 20.4558C128.203 20.1998 128.374 19.8691 128.374 19.4638C128.374 18.9518 128.16 18.5571 127.734 18.2798C127.328 18.0024 126.784 17.7784 126.102 17.6078C125.44 17.4371 124.715 17.2451 123.926 17.0318C123.2 16.8611 122.475 16.6691 121.75 16.4558C121.024 16.2211 120.363 15.9224 119.766 15.5598C119.19 15.1971 118.72 14.7278 118.358 14.1518C117.995 13.5544 117.814 12.8078 117.814 11.9118C117.814 11.0371 118.006 10.2798 118.39 9.63977C118.774 8.97843 119.296 8.43443 119.958 8.00777C120.64 7.5811 121.43 7.27177 122.326 7.07977C123.243 6.86643 124.224 6.75977 125.27 6.75977C126.251 6.75977 127.168 6.86643 128.022 7.07977C128.875 7.27177 129.622 7.57043 130.262 7.97577C130.902 8.35977 131.403 8.85043 131.766 9.44777C132.128 10.0238 132.31 10.6744 132.31 11.3998C132.31 11.5491 132.31 11.6878 132.31 11.8158C132.31 11.9438 132.299 12.0291 132.278 12.0718H128.022V11.8158C128.022 11.4318 127.904 11.1118 127.67 10.8558C127.435 10.5784 127.094 10.3651 126.646 10.2158C126.219 10.0664 125.696 9.99177 125.078 9.99177C124.651 9.99177 124.256 10.0238 123.894 10.0878C123.552 10.1518 123.254 10.2478 122.998 10.3758C122.742 10.5038 122.539 10.6638 122.39 10.8558C122.262 11.0264 122.198 11.2398 122.198 11.4958C122.198 11.8584 122.347 12.1571 122.646 12.3918C122.966 12.6051 123.382 12.7864 123.894 12.9358C124.406 13.0851 124.971 13.2451 125.59 13.4158C126.358 13.6291 127.158 13.8424 127.99 14.0558C128.843 14.2478 129.632 14.5144 130.358 14.8558C131.083 15.1971 131.67 15.6878 132.118 16.3278C132.566 16.9464 132.79 17.7891 132.79 18.8558C132.79 19.8798 132.587 20.7438 132.182 21.4478C131.798 22.1518 131.254 22.7171 130.55 23.1438C129.846 23.5704 129.024 23.8798 128.086 24.0718C127.147 24.2638 126.134 24.3598 125.046 24.3598Z" fill="white"/>
  <path d="M107.264 24.3598C106.091 24.3598 105.035 24.2318 104.096 23.9758C103.158 23.7198 102.358 23.3678 101.696 22.9198C101.035 22.4504 100.523 21.8958 100.16 21.2558C99.8191 20.6158 99.6484 19.8904 99.6484 19.0798C99.6484 18.9944 99.6484 18.9091 99.6484 18.8238C99.6484 18.7384 99.6591 18.6744 99.6804 18.6318H103.968C103.968 18.6744 103.968 18.7171 103.968 18.7598C103.968 18.8024 103.968 18.8451 103.968 18.8878C103.99 19.4211 104.16 19.8584 104.48 20.1998C104.8 20.5198 105.216 20.7544 105.728 20.9038C106.262 21.0531 106.816 21.1278 107.392 21.1278C107.904 21.1278 108.395 21.0851 108.864 20.9998C109.355 20.8931 109.76 20.7118 110.08 20.4558C110.422 20.1998 110.592 19.8691 110.592 19.4638C110.592 18.9518 110.379 18.5571 109.952 18.2798C109.547 18.0024 109.003 17.7784 108.32 17.6078C107.659 17.4371 106.934 17.2451 106.144 17.0318C105.419 16.8611 104.694 16.6691 103.968 16.4558C103.243 16.2211 102.582 15.9224 101.984 15.5598C101.408 15.1971 100.939 14.7278 100.576 14.1518C100.214 13.5544 100.032 12.8078 100.032 11.9118C100.032 11.0371 100.224 10.2798 100.608 9.63977C100.992 8.97843 101.515 8.43443 102.176 8.00777C102.859 7.5811 103.648 7.27177 104.544 7.07977C105.462 6.86643 106.443 6.75977 107.488 6.75977C108.47 6.75977 109.387 6.86643 110.24 7.07977C111.094 7.27177 111.84 7.57043 112.48 7.97577C113.12 8.35977 113.622 8.85043 113.984 9.44777C114.347 10.0238 114.528 10.6744 114.528 11.3998C114.528 11.5491 114.528 11.6878 114.528 11.8158C114.528 11.9438 114.518 12.0291 114.496 12.0718H110.24V11.8158C110.24 11.4318 110.123 11.1118 109.888 10.8558C109.654 10.5784 109.312 10.3651 108.864 10.2158C108.438 10.0664 107.915 9.99177 107.296 9.99177C106.87 9.99177 106.475 10.0238 106.112 10.0878C105.771 10.1518 105.472 10.2478 105.216 10.3758C104.96 10.5038 104.758 10.6638 104.608 10.8558C104.48 11.0264 104.416 11.2398 104.416 11.4958C104.416 11.8584 104.566 12.1571 104.864 12.3918C105.184 12.6051 105.6 12.7864 106.112 12.9358C106.624 13.0851 107.19 13.2451 107.808 13.4158C108.576 13.6291 109.376 13.8424 110.208 14.0558C111.062 14.2478 111.851 14.5144 112.576 14.8558C113.302 15.1971 113.888 15.6878 114.336 16.3278C114.784 16.9464 115.008 17.7891 115.008 18.8558C115.008 19.8798 114.806 20.7438 114.4 21.4478C114.016 22.1518 113.472 22.7171 112.768 23.1438C112.064 23.5704 111.243 23.8798 110.304 24.0718C109.366 24.2638 108.352 24.3598 107.264 24.3598Z" fill="white"/>
  <path d="M91.918 4.67984V0.839844H96.366V4.67984H91.918ZM91.918 23.9758V7.14384H96.366V23.9758H91.918Z" fill="white"/>
  <path d="M64.3984 23.9759V2.02393H71.6624L74.7984 13.2559C74.9264 13.6613 75.0544 14.1413 75.1824 14.6959C75.3104 15.2506 75.4384 15.8053 75.5664 16.3599C75.7158 16.8933 75.8331 17.3733 75.9184 17.7999H76.1744C76.2171 17.4373 76.2918 17.0106 76.3984 16.5199C76.5051 16.0079 76.6224 15.4639 76.7504 14.8879C76.8784 14.3119 77.0171 13.7573 77.1664 13.2239L80.3024 2.02393H87.4384V23.9759H82.7344V13.5759C82.7344 12.6159 82.7344 11.6559 82.7344 10.6959C82.7558 9.71459 82.7771 8.86126 82.7984 8.13593C82.8411 7.41059 82.8624 6.94126 82.8624 6.72793H82.6064C82.5638 6.96259 82.4571 7.39993 82.2864 8.03993C82.1371 8.65859 81.9664 9.31993 81.7744 10.0239C81.6038 10.7279 81.4438 11.3359 81.2944 11.8479L77.8704 23.9759H73.7104L70.2544 11.8799C70.1264 11.4319 69.9771 10.9093 69.8064 10.3119C69.6571 9.69326 69.5078 9.06393 69.3584 8.42393C69.2304 7.76259 69.1024 7.19726 68.9744 6.72793H68.7184C68.7398 7.30393 68.7611 7.99726 68.7824 8.80793C68.8038 9.59726 68.8251 10.4186 68.8464 11.2719C68.8678 12.1039 68.8784 12.8719 68.8784 13.5759V23.9759H64.3984Z" fill="white"/>
  <path fill-rule="evenodd" clip-rule="evenodd" d="M45.1992 24.9758V6.14378H50.754L50.8928 7.17821C51.2399 6.81396 51.6403 6.50861 52.0909 6.26449C52.7725 5.89529 53.539 5.72778 54.3592 5.72778C54.7873 5.72778 55.2006 5.77668 55.592 5.88474C55.8975 5.95122 56.1853 6.02928 56.4171 6.12864L57.0232 6.38838V12.0798H54.6472C54.0814 12.0798 53.6173 12.162 53.2383 12.3041L53.2271 12.3083L53.2157 12.3123C52.8844 12.4275 52.6132 12.6092 52.3866 12.8641C52.1551 13.1246 51.966 13.4576 51.8322 13.885C51.7142 14.331 51.6472 14.8849 51.6472 15.5598V24.9758H45.1992ZM50.8712 13.6078C51.0419 13.0531 51.2979 12.5838 51.6392 12.1998C51.9806 11.8158 52.3966 11.5384 52.8872 11.3678C53.3992 11.1758 53.9859 11.0798 54.6472 11.0798H56.0232V7.04778C55.8739 6.98378 55.6499 6.91978 55.3512 6.85578C55.0526 6.77045 54.7219 6.72778 54.3592 6.72778C53.6766 6.72778 53.0792 6.86645 52.5672 7.14378C52.0552 7.42112 51.6286 7.79445 51.2872 8.26378C51.2145 8.35922 51.1447 8.45707 51.0778 8.55734C50.8366 8.91881 50.6332 9.31172 50.4675 9.73609C50.4634 9.74663 50.4593 9.7572 50.4552 9.76778H50.2312L49.8792 7.14378H46.1992V23.9758H50.6472V15.5598C50.6472 14.8131 50.7219 14.1625 50.8712 13.6078Z" fill="white"/>
  <path fill-rule="evenodd" clip-rule="evenodd" d="M25.8555 6.1438H32.3035V17.6718C32.3035 18.1507 32.3589 18.5038 32.4414 18.7554C32.5233 18.9843 32.6249 19.142 32.7317 19.2535C32.863 19.3693 33.0295 19.4637 33.2496 19.5284C33.5056 19.6037 33.8139 19.6478 34.1835 19.6478C34.6755 19.6478 35.093 19.5311 35.461 19.3103C35.8358 19.0854 36.1251 18.7836 36.3393 18.3885C36.5558 17.9683 36.6715 17.4905 36.6715 16.9358V6.1438H43.1195V24.9758H37.6008L37.4136 23.6282C37.3066 23.7151 37.1971 23.7996 37.085 23.8817C36.4587 24.3562 35.7526 24.7136 34.9752 24.9581C34.1797 25.2297 33.3262 25.3598 32.4235 25.3598C30.5275 25.3598 28.9063 24.8335 27.676 23.6818C26.3864 22.4744 25.8555 20.6317 25.8555 18.4078V6.1438ZM34.6635 24.0078C35.3461 23.7945 35.9541 23.4851 36.4875 23.0798C36.759 22.8814 37.0126 22.6676 37.2484 22.4385C37.4837 22.2098 37.7012 21.9659 37.9008 21.7066C37.9098 21.695 37.9186 21.6834 37.9275 21.6718H38.1515L38.4715 23.9758H42.1195V7.1438H37.6715V16.9358C37.6715 17.6398 37.5221 18.2798 37.2235 18.8558C36.9248 19.4105 36.5088 19.8478 35.9755 20.1678C35.4421 20.4878 34.8448 20.6478 34.1835 20.6478C33.7355 20.6478 33.3301 20.5945 32.9675 20.4878C32.6048 20.3811 32.2955 20.2105 32.0395 19.9758C31.8048 19.7411 31.6235 19.4425 31.4955 19.0798C31.3675 18.6958 31.3035 18.2265 31.3035 17.6718V7.1438H26.8555V18.4078C26.8555 20.4985 27.3568 22.0131 28.3595 22.9518C29.3621 23.8905 30.7168 24.3598 32.4235 24.3598C33.2341 24.3598 33.9808 24.2425 34.6635 24.0078Z" fill="white"/>
  <path fill-rule="evenodd" clip-rule="evenodd" d="M16.2281 8.00866L16.2221 8.00191C15.8017 7.53105 15.2774 7.17209 14.6301 6.92718C13.9773 6.68015 13.1842 6.54389 12.232 6.54389C11.3039 6.54389 10.5209 6.67935 9.8659 6.92718C9.21864 7.17209 8.69435 7.53105 8.27394 8.00191L8.26791 8.00866L8.26176 8.0153C7.84594 8.46439 7.50869 9.05076 7.2686 9.80353C7.04683 10.5659 6.92801 11.4674 6.92801 12.5199V13.5119C6.92801 14.5396 7.04603 15.4298 7.2676 16.1928C7.50699 16.9237 7.84625 17.5189 8.27394 17.9979C8.69435 18.4687 9.21864 18.8277 9.8659 19.0726C10.5209 19.3204 11.3039 19.4559 12.232 19.4559C13.1842 19.4559 13.9773 19.3196 14.6301 19.0726C15.2774 18.8277 15.8017 18.4687 16.2221 17.9979C16.6518 17.5165 16.9923 16.9179 17.2319 16.1821C17.4718 15.4239 17.6 14.5378 17.6 13.5119V12.5199C17.6 11.4689 17.4709 10.5714 17.2308 9.81414C16.9905 9.05626 16.652 8.46649 16.2342 8.0153L16.2281 8.00866ZM18.184 16.4879C17.9067 17.3412 17.5013 18.0666 16.968 18.6639C16.4347 19.2612 15.7733 19.7092 14.984 20.0079C14.1947 20.3066 13.2773 20.4559 12.232 20.4559C11.208 20.4559 10.3013 20.3066 9.512 20.0079C8.72267 19.7092 8.06134 19.2612 7.528 18.6639C6.99467 18.0666 6.58933 17.3412 6.312 16.4879C6.056 15.6132 5.92801 14.6212 5.92801 13.5119V12.5199C5.92801 11.3892 6.056 10.3866 6.312 9.51189C6.58933 8.63723 6.99467 7.91189 7.528 7.33589C8.06134 6.73856 8.72267 6.29056 9.512 5.99189C10.3013 5.69323 11.208 5.54389 12.232 5.54389C13.2773 5.54389 14.1947 5.69323 14.984 5.99189C15.7733 6.29056 16.4347 6.73856 16.968 7.33589C17.5013 7.91189 17.9067 8.63723 18.184 9.51189C18.4613 10.3866 18.6 11.3892 18.6 12.5199V13.5119C18.6 14.6212 18.4613 15.6132 18.184 16.4879ZM12.232 25.3599C9.7888 25.3599 7.62509 24.9227 5.77333 24.0086C3.89698 23.0823 2.45376 21.6726 1.46103 19.8053C0.467034 17.9357 0 15.6503 0 12.9999C0 10.3119 0.465247 8.01295 1.46227 6.16013C2.45522 4.29354 3.8994 2.89369 5.77791 1.98895C7.62866 1.07633 9.79081 0.639893 12.232 0.639893C14.711 0.639893 16.8864 1.07465 18.7204 1.99007C20.5978 2.89487 22.0413 4.29437 23.0338 6.16025C24.0308 8.01306 24.496 10.312 24.496 12.9999C24.496 15.6503 24.029 17.9357 23.035 19.8053C22.0426 21.6719 20.6001 23.0812 18.7248 24.0075C16.8898 24.9244 14.713 25.3599 12.232 25.3599ZM18.28 23.1119C19.9653 22.2799 21.256 21.0212 22.152 19.3359C23.048 17.6506 23.496 15.5386 23.496 12.9999C23.496 10.4186 23.048 8.29589 22.152 6.63189C21.256 4.94656 19.9653 3.69856 18.28 2.88789C16.616 2.05589 14.6 1.63989 12.232 1.63989C9.90666 1.63989 7.90133 2.05589 6.216 2.88789C4.53067 3.69856 3.24 4.94656 2.344 6.63189C1.448 8.29589 1 10.4186 1 12.9999C1 15.5386 1.448 17.6506 2.344 19.3359C3.24 21.0212 4.53067 22.2799 6.216 23.1119C7.90133 23.9439 9.90666 24.3599 12.232 24.3599C14.6 24.3599 16.616 23.9439 18.28 23.1119Z" fill="white"/>
</svg>