<svg xmlns="http://www.w3.org/2000/svg" width="176" height="88" viewBox="0 0 176 88" fill="none">
  <path d="M152.145 86.9639V61.7159H157.665L158.193 65.1719H158.529C159.105 64.3399 159.793 63.6199 160.593 63.0119C161.425 62.4039 162.353 61.9399 163.377 61.6199C164.401 61.2999 165.521 61.1399 166.737 61.1399C168.401 61.1399 169.857 61.4439 171.105 62.0519C172.353 62.6599 173.313 63.6199 173.985 64.9319C174.689 66.2439 175.041 67.9559 175.041 70.0679V86.9639H168.369V71.1239C168.369 70.3239 168.273 69.6519 168.081 69.1079C167.889 68.5319 167.601 68.0679 167.217 67.7159C166.865 67.3319 166.417 67.0599 165.873 66.8999C165.329 66.7399 164.721 66.6599 164.049 66.6599C163.057 66.6599 162.161 66.8999 161.361 67.3799C160.561 67.8599 159.937 68.5159 159.489 69.3479C159.041 70.1799 158.817 71.1399 158.817 72.2279V86.9639H152.145Z" fill="white"/>
  <path d="M134.325 87.5399C131.573 87.5399 129.237 87.0759 127.317 86.1479C125.397 85.1879 123.941 83.7319 122.949 81.7799C121.957 79.7959 121.461 77.3159 121.461 74.3399C121.461 71.2999 121.957 68.8199 122.949 66.8999C123.941 64.9479 125.397 63.5079 127.317 62.5799C129.237 61.6199 131.573 61.1399 134.325 61.1399C137.141 61.1399 139.493 61.6199 141.381 62.5799C143.301 63.5079 144.757 64.9479 145.749 66.8999C146.741 68.8199 147.237 71.2999 147.237 74.3399C147.237 77.3159 146.741 79.7959 145.749 81.7799C144.757 83.7319 143.301 85.1879 141.381 86.1479C139.493 87.0759 137.141 87.5399 134.325 87.5399ZM134.325 82.3559C135.797 82.3559 136.965 82.0839 137.829 81.5399C138.725 80.9959 139.381 80.1639 139.797 79.0439C140.213 77.9239 140.421 76.5479 140.421 74.9159V73.7639C140.421 72.1319 140.213 70.7559 139.797 69.6359C139.381 68.5159 138.725 67.6839 137.829 67.1399C136.965 66.5639 135.797 66.2759 134.325 66.2759C132.885 66.2759 131.717 66.5639 130.821 67.1399C129.957 67.6839 129.317 68.5159 128.901 69.6359C128.485 70.7559 128.277 72.1319 128.277 73.7639V74.9159C128.277 76.5479 128.485 77.9239 128.901 79.0439C129.317 80.1639 129.957 80.9959 130.821 81.5399C131.717 82.0839 132.885 82.3559 134.325 82.3559Z" fill="white"/>
  <path d="M109.91 58.0198V52.2598H116.582V58.0198H109.91ZM109.91 86.9638V61.7158H116.582V86.9638H109.91Z" fill="white"/>
  <path d="M93.4631 87.5399C91.7031 87.5399 90.1191 87.3479 88.7111 86.9639C87.3031 86.5799 86.1031 86.0519 85.1111 85.3799C84.1191 84.6759 83.3511 83.8439 82.8071 82.8839C82.2951 81.9239 82.0391 80.8359 82.0391 79.6199C82.0391 79.4919 82.0391 79.3639 82.0391 79.2359C82.0391 79.1079 82.0551 79.0119 82.0871 78.9479H88.5191C88.5191 79.0119 88.5191 79.0759 88.5191 79.1399C88.5191 79.2039 88.5191 79.2679 88.5191 79.3319C88.5511 80.1319 88.8071 80.7879 89.2871 81.2999C89.7671 81.7799 90.3911 82.1319 91.1591 82.3559C91.9591 82.5799 92.7911 82.6919 93.6551 82.6919C94.4231 82.6919 95.1591 82.6279 95.8631 82.4999C96.5991 82.3399 97.2071 82.0679 97.6871 81.6839C98.1991 81.2999 98.4551 80.8039 98.4551 80.1959C98.4551 79.4279 98.1351 78.8359 97.4951 78.4199C96.8871 78.0039 96.0711 77.6679 95.0471 77.4119C94.0551 77.1559 92.9671 76.8679 91.7831 76.5479C90.6951 76.2919 89.6071 76.0039 88.5191 75.6839C87.4311 75.3319 86.4391 74.8839 85.5431 74.3399C84.6791 73.7959 83.9751 73.0919 83.4311 72.2279C82.8871 71.3319 82.6151 70.2119 82.6151 68.8679C82.6151 67.5559 82.9031 66.4199 83.4791 65.4599C84.0551 64.4679 84.8391 63.6519 85.8311 63.0119C86.8551 62.3719 88.0391 61.9079 89.3831 61.6199C90.7591 61.2999 92.2311 61.1399 93.7991 61.1399C95.2711 61.1399 96.6471 61.2999 97.9271 61.6199C99.2071 61.9079 100.327 62.3559 101.287 62.9639C102.247 63.5399 102.999 64.2759 103.543 65.1719C104.087 66.0359 104.359 67.0119 104.359 68.0999C104.359 68.3239 104.359 68.5319 104.359 68.7239C104.359 68.9159 104.343 69.0439 104.311 69.1079H97.9271V68.7239C97.9271 68.1479 97.7511 67.6679 97.3991 67.2839C97.0471 66.8679 96.5351 66.5479 95.8631 66.3239C95.2231 66.0999 94.4391 65.9879 93.5111 65.9879C92.8711 65.9879 92.2791 66.0359 91.7351 66.1319C91.2231 66.2279 90.7751 66.3719 90.3911 66.5639C90.0071 66.7559 89.7031 66.9959 89.4791 67.2839C89.2871 67.5399 89.1911 67.8599 89.1911 68.2439C89.1911 68.7879 89.4151 69.2359 89.8631 69.5879C90.3431 69.9079 90.9671 70.1799 91.7351 70.4039C92.5031 70.6279 93.3511 70.8679 94.2791 71.1239C95.4311 71.4439 96.6311 71.7639 97.8791 72.0839C99.1591 72.3719 100.343 72.7719 101.431 73.2839C102.519 73.7959 103.399 74.5319 104.071 75.4919C104.743 76.4199 105.079 77.6839 105.079 79.2839C105.079 80.8199 104.775 82.1159 104.167 83.1719C103.591 84.2279 102.775 85.0759 101.719 85.7159C100.663 86.3559 99.4311 86.8199 98.0231 87.1079C96.6151 87.3959 95.0951 87.5399 93.4631 87.5399Z" fill="white"/>
  <path d="M66.7912 87.5399C65.0312 87.5399 63.4472 87.3479 62.0392 86.9639C60.6312 86.5799 59.4312 86.0519 58.4392 85.3799C57.4472 84.6759 56.6792 83.8439 56.1352 82.8839C55.6232 81.9239 55.3672 80.8359 55.3672 79.6199C55.3672 79.4919 55.3672 79.3639 55.3672 79.2359C55.3672 79.1079 55.3832 79.0119 55.4152 78.9479H61.8472C61.8472 79.0119 61.8472 79.0759 61.8472 79.1399C61.8472 79.2039 61.8472 79.2679 61.8472 79.3319C61.8792 80.1319 62.1352 80.7879 62.6152 81.2999C63.0952 81.7799 63.7192 82.1319 64.4872 82.3559C65.2872 82.5799 66.1192 82.6919 66.9832 82.6919C67.7512 82.6919 68.4872 82.6279 69.1912 82.4999C69.9272 82.3399 70.5352 82.0679 71.0152 81.6839C71.5272 81.2999 71.7832 80.8039 71.7832 80.1959C71.7832 79.4279 71.4632 78.8359 70.8232 78.4199C70.2152 78.0039 69.3992 77.6679 68.3752 77.4119C67.3832 77.1559 66.2952 76.8679 65.1112 76.5479C64.0232 76.2919 62.9352 76.0039 61.8472 75.6839C60.7592 75.3319 59.7672 74.8839 58.8712 74.3399C58.0072 73.7959 57.3032 73.0919 56.7592 72.2279C56.2152 71.3319 55.9432 70.2119 55.9432 68.8679C55.9432 67.5559 56.2312 66.4199 56.8072 65.4599C57.3832 64.4679 58.1672 63.6519 59.1592 63.0119C60.1832 62.3719 61.3672 61.9079 62.7112 61.6199C64.0872 61.2999 65.5592 61.1399 67.1272 61.1399C68.5992 61.1399 69.9752 61.2999 71.2552 61.6199C72.5352 61.9079 73.6552 62.3559 74.6152 62.9639C75.5752 63.5399 76.3272 64.2759 76.8712 65.1719C77.4152 66.0359 77.6872 67.0119 77.6872 68.0999C77.6872 68.3239 77.6872 68.5319 77.6872 68.7239C77.6872 68.9159 77.6712 69.0439 77.6392 69.1079H71.2552V68.7239C71.2552 68.1479 71.0792 67.6679 70.7272 67.2839C70.3752 66.8679 69.8632 66.5479 69.1912 66.3239C68.5512 66.0999 67.7672 65.9879 66.8392 65.9879C66.1992 65.9879 65.6072 66.0359 65.0632 66.1319C64.5512 66.2279 64.1032 66.3719 63.7192 66.5639C63.3352 66.7559 63.0312 66.9959 62.8072 67.2839C62.6152 67.5399 62.5192 67.8599 62.5192 68.2439C62.5192 68.7879 62.7432 69.2359 63.1912 69.5879C63.6712 69.9079 64.2952 70.1799 65.0632 70.4039C65.8312 70.6279 66.6792 70.8679 67.6072 71.1239C68.7592 71.4439 69.9592 71.7639 71.2072 72.0839C72.4872 72.3719 73.6712 72.7719 74.7592 73.2839C75.8472 73.7959 76.7272 74.5319 77.3992 75.4919C78.0712 76.4199 78.4072 77.6839 78.4072 79.2839C78.4072 80.8199 78.1032 82.1159 77.4952 83.1719C76.9192 84.2279 76.1032 85.0759 75.0472 85.7159C73.9912 86.3559 72.7592 86.8199 71.3512 87.1079C69.9432 87.3959 68.4232 87.5399 66.7912 87.5399Z" fill="white"/>
  <path d="M43.7695 58.0198V52.2598H50.4415V58.0198H43.7695ZM43.7695 86.9638V61.7158H50.4415V86.9638H43.7695Z" fill="white"/>
  <path d="M2.48828 86.9639V54.0359H13.3843L18.0883 70.8839C18.2803 71.4919 18.4723 72.2119 18.6643 73.0439C18.8563 73.8759 19.0483 74.7079 19.2403 75.5399C19.4643 76.3399 19.6403 77.0599 19.7683 77.6999H20.1523C20.2163 77.1559 20.3283 76.5159 20.4883 75.7799C20.6483 75.0119 20.8243 74.1959 21.0163 73.3319C21.2083 72.4679 21.4163 71.6359 21.6403 70.8359L26.3443 54.0359H37.0483V86.9639H29.9923V71.3639C29.9923 69.9239 29.9923 68.4839 29.9923 67.0439C30.0243 65.5719 30.0563 64.2919 30.0883 63.2039C30.1523 62.1159 30.1843 61.4119 30.1843 61.0919H29.8003C29.7363 61.4439 29.5763 62.0999 29.3203 63.0599C29.0963 63.9879 28.8403 64.9799 28.5523 66.0359C28.2963 67.0919 28.0563 68.0039 27.8323 68.7719L22.6963 86.9639H16.4563L11.2723 68.8199C11.0803 68.1479 10.8563 67.3639 10.6003 66.4679C10.3763 65.5399 10.1523 64.5959 9.92828 63.6359C9.73628 62.6439 9.54428 61.7959 9.35228 61.0919H8.96828C9.00028 61.9559 9.03228 62.9959 9.06428 64.2119C9.09628 65.3959 9.12828 66.6279 9.16028 67.9079C9.19228 69.1559 9.20828 70.3079 9.20828 71.3639V86.9639H2.48828Z" fill="white"/>
  <path fill-rule="evenodd" clip-rule="evenodd" d="M67.8008 35.9638V8.7158H75.1956L75.4988 10.9762C75.5421 10.9165 75.5861 10.8572 75.6307 10.7985C76.2296 9.97774 76.9811 9.3215 77.8765 8.83651C78.8141 8.32864 79.8792 8.0918 81.0408 8.0918C81.65 8.0918 82.2288 8.16197 82.7701 8.31284C83.2234 8.41104 83.6235 8.52098 83.9307 8.65265L84.5368 8.9124V16.6198H81.4728C80.5763 16.6198 79.8189 16.75 79.1839 16.9881L79.1727 16.9923L79.1613 16.9963C78.5847 17.1969 78.1054 17.5172 77.7082 17.9642C77.3062 18.4164 76.989 18.984 76.7698 19.689C76.5772 20.412 76.4728 21.2912 76.4728 22.3398V35.9638H67.8008ZM75.8088 19.4118C76.0648 18.5798 76.4488 17.8758 76.9608 17.2998C77.4728 16.7238 78.0968 16.3078 78.8328 16.0518C79.6008 15.7638 80.4808 15.6198 81.4728 15.6198H83.5368V9.5718C83.3128 9.4758 82.9768 9.3798 82.5288 9.2838C82.0808 9.1558 81.5848 9.0918 81.0408 9.0918C80.0168 9.0918 79.1208 9.2998 78.3528 9.7158C77.5848 10.1318 76.9448 10.6918 76.4328 11.3958C76.1641 11.7485 75.9218 12.1233 75.7059 12.5201C75.5184 12.8648 75.3508 13.2262 75.2032 13.6043C75.197 13.6201 75.1909 13.6359 75.1848 13.6518H74.8488L74.3208 9.7158H68.8008V34.9638H75.4728V22.3398C75.4728 21.2198 75.5848 20.2438 75.8088 19.4118Z" fill="white"/>
  <path fill-rule="evenodd" clip-rule="evenodd" d="M38.7812 8.71582H47.4533V25.5078C47.4533 26.2645 47.5408 26.8522 47.6872 27.2953C47.8337 27.7073 48.0263 28.0136 48.2492 28.2414C48.5082 28.4742 48.8291 28.6541 49.2314 28.7725C49.6687 28.9011 50.1796 28.9718 50.7733 28.9718C51.5959 28.9718 52.3121 28.7751 52.9468 28.3943C53.5882 28.0094 54.0855 27.489 54.4491 26.8166C54.8148 26.1084 55.0052 25.3106 55.0052 24.4038V8.71582H63.6772V35.9638H56.3345L55.9859 33.4536C55.624 33.7984 55.2375 34.1211 54.8268 34.4217C53.9338 35.0989 52.9236 35.611 51.805 35.9621C50.6681 36.3511 49.4413 36.5398 48.1333 36.5398C45.384 36.5398 43.0854 35.7789 41.3538 34.1578C39.5628 32.4811 38.7812 29.8811 38.7812 26.6118V8.71582ZM51.4933 35.0118C52.5173 34.6918 53.4293 34.2278 54.2293 33.6198C54.8117 33.1942 55.3393 32.7214 55.812 32.2017C55.9998 31.9952 56.1789 31.7813 56.3493 31.56C56.3627 31.5427 56.376 31.5253 56.3892 31.5078H56.7253L57.2052 34.9638H62.6772V9.71582H56.0052V24.4038C56.0052 25.4598 55.7812 26.4198 55.3332 27.2838C54.8852 28.1158 54.2612 28.7718 53.4613 29.2518C52.6613 29.7318 51.7653 29.9718 50.7733 29.9718C50.1013 29.9718 49.4932 29.8918 48.9492 29.7318C48.4052 29.5718 47.9413 29.3158 47.5573 28.9638C47.2053 28.6118 46.9332 28.1638 46.7412 27.6198C46.5492 27.0438 46.4533 26.3398 46.4533 25.5078V9.71582H39.7812V26.6118C39.7812 29.7478 40.5333 32.0198 42.0373 33.4278C43.5413 34.8358 45.5733 35.5398 48.1333 35.5398C49.3493 35.5398 50.4693 35.3638 51.4933 35.0118Z" fill="white"/>
  <path fill-rule="evenodd" clip-rule="evenodd" d="M10.792 10.004C9.992 10.868 9.384 11.956 8.968 13.268C8.584 14.58 8.392 16.084 8.392 17.78V19.268C8.392 20.932 8.584 22.42 8.968 23.732C9.384 25.012 9.992 26.1 10.792 26.996C11.592 27.892 12.584 28.564 13.768 29.012C14.952 29.46 16.312 29.684 17.848 29.684C19.416 29.684 20.792 29.46 21.976 29.012C23.16 28.564 24.152 27.892 24.952 26.996C25.752 26.1 26.36 25.012 26.776 23.732C27.192 22.42 27.4 20.932 27.4 19.268V17.78C27.4 16.084 27.192 14.58 26.776 13.268C26.36 11.956 25.752 10.868 24.952 10.004C24.152 9.10796 23.16 8.43596 21.976 7.98796C20.792 7.53996 19.416 7.31596 17.848 7.31596C16.312 7.31596 14.952 7.53996 13.768 7.98796C12.584 8.43596 11.592 9.10796 10.792 10.004ZM25.8239 23.4262C26.2025 22.2307 26.4 20.8485 26.4 19.268V17.78C26.4 16.1637 26.2016 14.7648 25.8228 13.5702C25.4438 12.375 24.9027 11.4226 24.2182 10.6834L24.2121 10.6767L24.2061 10.67C23.519 9.90045 22.664 9.31749 21.6221 8.92325C20.5746 8.52688 19.3229 8.31596 17.848 8.31596C16.4079 8.31596 15.1715 8.52608 14.1219 8.92325C13.08 9.31749 12.225 9.90045 11.5379 10.67L11.5319 10.6767L11.5258 10.6834C10.8434 11.4204 10.3034 12.3693 9.92461 13.5596C9.57486 14.7591 9.392 16.162 9.392 17.78V19.268C9.392 20.8505 9.57406 22.2366 9.9236 23.4369C10.3017 24.5946 10.8437 25.5523 11.5379 26.3299C12.225 27.0995 13.08 27.6824 14.1219 28.0767C15.1715 28.4738 16.4079 28.684 17.848 28.684C19.3229 28.684 20.5746 28.473 21.6221 28.0767C22.664 27.6824 23.519 27.0995 24.2061 26.3299C24.9025 25.5499 25.4456 24.5887 25.8239 23.4262ZM17.848 36.54C14.2421 36.54 11.0758 35.8948 8.38133 34.5646C5.66231 33.2223 3.57376 31.1833 2.13303 28.4734C0.691032 25.7611 0 22.4197 0 18.5C0 14.5213 0.689238 11.161 2.13428 8.47618C3.57522 5.76694 5.66475 3.74308 8.38592 2.43301C11.0794 1.10438 14.2442 0.459961 17.848 0.459961C21.511 0.459961 24.6943 1.1027 27.3604 2.43414C30.0806 3.74431 32.1694 5.76793 33.61 8.47662C35.0548 11.1614 35.744 14.5215 35.744 18.5C35.744 22.4197 35.053 25.7611 33.611 28.4734C32.1707 31.1825 30.0829 33.2211 27.3651 34.5635C24.698 35.8965 21.5131 36.54 17.848 36.54ZM32.728 8.94796C31.384 6.41996 29.448 4.54796 26.92 3.33196C24.424 2.08396 21.4 1.45996 17.848 1.45996C14.36 1.45996 11.352 2.08396 8.824 3.33196C6.296 4.54796 4.36 6.41996 3.016 8.94796C1.672 11.444 1 14.628 1 18.5C1 22.308 1.672 25.476 3.016 28.004C4.36 30.532 6.296 32.42 8.824 33.668C11.352 34.916 14.36 35.54 17.848 35.54C21.4 35.54 24.424 34.916 26.92 33.668C29.448 32.42 31.384 30.532 32.728 28.004C34.072 25.476 34.744 22.308 34.744 18.5C34.744 14.628 34.072 11.444 32.728 8.94796Z" fill="white"/>
</svg>