<svg xmlns="http://www.w3.org/2000/svg" width="181" height="38" viewBox="0 0 181 38" fill="none">
  <path d="M9.94436 37.3399L0.148438 0.0065918H8.74708L14.1893 22.2651C14.2981 22.5916 14.4069 23.0814 14.5158 23.7345C14.6246 24.3513 14.7335 25.0043 14.8423 25.6937C14.9512 26.383 15.0419 26.9998 15.1144 27.544H15.3865C15.4591 27.1449 15.5135 26.6914 15.5498 26.1835C15.6224 25.6755 15.6949 25.1857 15.7675 24.7141C15.8763 24.2061 15.967 23.7345 16.0396 23.2991C16.1484 22.8637 16.221 22.5191 16.2573 22.2651L21.3185 0.0065918H31.0056L36.1757 22.2651C36.2845 22.6279 36.3933 23.1177 36.5022 23.7345C36.611 24.3513 36.7199 25.0043 36.8287 25.6937C36.9376 26.383 37.0283 26.9998 37.1008 27.544H37.3729C37.4455 27.1449 37.5181 26.7095 37.5906 26.2379C37.6995 25.7662 37.7902 25.2946 37.8627 24.8229C37.9716 24.315 38.0804 23.8433 38.1893 23.408C38.2981 22.9726 38.3888 22.5916 38.4614 22.2651L43.8491 0.0065918H51.6314L41.7811 37.3399H32.5294L27.0328 14.3739C26.924 13.866 26.797 13.2855 26.6518 12.6324C26.543 11.9431 26.4342 11.2719 26.3253 10.6188C26.2165 9.96578 26.1258 9.38528 26.0532 8.87734H25.8355C25.763 9.38528 25.6723 9.98392 25.5634 10.6733C25.4908 11.3626 25.382 12.0338 25.2369 12.6869C25.128 13.3399 25.0192 13.9023 24.9103 14.3739L19.4682 37.3399H9.94436Z" fill="white"/>
  <path d="M65.787 37.993C62.6306 37.993 59.9821 37.4669 57.8415 36.4148C55.7009 35.3263 54.0864 33.6755 52.9979 31.4624C51.9095 29.2492 51.3653 26.4374 51.3653 23.027C51.3653 19.5803 51.9095 16.7685 52.9979 14.5916C54.0864 12.3785 55.6827 10.7458 57.7871 9.69367C59.9276 8.60523 62.5399 8.06102 65.6238 8.06102C68.5263 8.06102 70.9753 8.58709 72.9707 9.63925C74.9662 10.6551 76.4719 12.2515 77.4877 14.4284C78.5036 16.569 79.0115 19.3445 79.0115 22.7549V24.7141H59.0388C59.1113 26.383 59.3653 27.798 59.8007 28.959C60.2723 30.12 60.9798 30.9907 61.9231 31.5712C62.9027 32.1154 64.1907 32.3876 65.787 32.3876C66.6578 32.3876 67.4379 32.2787 68.1272 32.061C68.8528 31.8433 69.4696 31.5168 69.9775 31.0814C70.4855 30.6461 70.8846 30.1018 71.1748 29.4488C71.4651 28.7957 71.6102 28.052 71.6102 27.2175H79.0115C79.0115 29.0315 78.685 30.6098 78.032 31.9522C77.3789 33.2946 76.4719 34.4193 75.3109 35.3263C74.1499 36.1971 72.753 36.8683 71.1204 37.3399C69.524 37.7753 67.7462 37.993 65.787 37.993ZM59.1476 19.925H71.2292C71.2292 18.8365 71.0841 17.8932 70.7939 17.095C70.5399 16.2968 70.1771 15.6438 69.7054 15.1358C69.2338 14.6279 68.6533 14.2651 67.9639 14.0474C67.3109 13.7934 66.5671 13.6665 65.7326 13.6665C64.354 13.6665 63.1929 13.9023 62.2496 14.3739C61.3426 14.8093 60.6351 15.4987 60.1272 16.442C59.6555 17.349 59.329 18.51 59.1476 19.925Z" fill="white"/>
  <path d="M92.0876 37.3399L106.455 0.0065918H116.469L130.836 37.3399H122.074L119.407 29.993H103.135L100.469 37.3399H92.0876ZM105.475 23.4624H117.067L113.748 14.2651C113.602 13.866 113.421 13.3944 113.203 12.8501C113.022 12.2696 112.822 11.6347 112.605 10.9454C112.387 10.256 112.169 9.58483 111.952 8.93177C111.77 8.24242 111.589 7.62564 111.407 7.08142H111.081C110.899 7.77077 110.664 8.58709 110.373 9.5304C110.083 10.4374 109.793 11.3263 109.503 12.1971C109.212 13.0315 108.977 13.7209 108.795 14.2651L105.475 23.4624Z" fill="white"/>
  <path d="M134.626 37.3399V8.71408H140.884L141.483 13.1767H141.864C142.226 12.2334 142.698 11.3807 143.279 10.6188C143.859 9.82065 144.585 9.18573 145.455 8.71408C146.326 8.24242 147.342 8.00659 148.503 8.00659C149.12 8.00659 149.682 8.07916 150.19 8.22428C150.698 8.33313 151.079 8.44197 151.333 8.55081V15.408H148.993C147.868 15.408 146.87 15.5712 146 15.8978C145.165 16.188 144.458 16.6597 143.877 17.3127C143.297 17.9658 142.861 18.764 142.571 19.7073C142.317 20.6506 142.19 21.7572 142.19 23.027V37.3399H134.626Z" fill="white"/>
  <path d="M167.775 37.993C164.618 37.993 161.97 37.4669 159.829 36.4148C157.689 35.3263 156.074 33.6755 154.986 31.4624C153.897 29.2492 153.353 26.4374 153.353 23.027C153.353 19.5803 153.897 16.7685 154.986 14.5916C156.074 12.3785 157.67 10.7458 159.775 9.69367C161.915 8.60523 164.528 8.06102 167.611 8.06102C170.514 8.06102 172.963 8.58709 174.958 9.63925C176.954 10.6551 178.46 12.2515 179.475 14.4284C180.491 16.569 180.999 19.3445 180.999 22.7549V24.7141H161.026C161.099 26.383 161.353 27.798 161.788 28.959C162.26 30.12 162.967 30.9907 163.911 31.5712C164.89 32.1154 166.178 32.3876 167.775 32.3876C168.645 32.3876 169.426 32.2787 170.115 32.061C170.84 31.8433 171.457 31.5168 171.965 31.0814C172.473 30.6461 172.872 30.1018 173.162 29.4488C173.453 28.7957 173.598 28.052 173.598 27.2175H180.999C180.999 29.0315 180.673 30.6098 180.02 31.9522C179.367 33.2946 178.46 34.4193 177.299 35.3263C176.138 36.1971 174.741 36.8683 173.108 37.3399C171.512 37.7753 169.734 37.993 167.775 37.993ZM161.135 19.925H173.217C173.217 18.8365 173.072 17.8932 172.782 17.095C172.528 16.2968 172.165 15.6438 171.693 15.1358C171.221 14.6279 170.641 14.2651 169.952 14.0474C169.299 13.7934 168.555 13.6665 167.72 13.6665C166.342 13.6665 165.181 13.9023 164.237 14.3739C163.33 14.8093 162.623 15.4987 162.115 16.442C161.643 17.349 161.317 18.51 161.135 19.925Z" fill="white"/>
</svg>