<svg xmlns="http://www.w3.org/2000/svg" width="184" height="26" viewBox="0 0 184 26" fill="none">
  <path d="M175.859 24.7599C174.003 24.7599 172.446 24.4506 171.187 23.8319C169.928 23.1919 168.979 22.2212 168.339 20.9199C167.699 19.6186 167.379 17.9652 167.379 15.9599C167.379 13.9332 167.699 12.2799 168.339 10.9999C168.979 9.69858 169.918 8.73858 171.155 8.11991C172.414 7.47991 173.95 7.15991 175.763 7.15991C177.47 7.15991 178.91 7.46925 180.083 8.08791C181.256 8.68525 182.142 9.62391 182.739 10.9039C183.336 12.1626 183.635 13.7946 183.635 15.7999V16.9519H171.891C171.934 17.9332 172.083 18.7652 172.339 19.4479C172.616 20.1306 173.032 20.6426 173.587 20.9839C174.163 21.3039 174.92 21.4639 175.859 21.4639C176.371 21.4639 176.83 21.3999 177.235 21.2719C177.662 21.1439 178.024 20.9519 178.323 20.6959C178.622 20.4399 178.856 20.1199 179.027 19.7359C179.198 19.3519 179.283 18.9146 179.283 18.4239H183.635C183.635 19.4906 183.443 20.4186 183.059 21.2079C182.675 21.9972 182.142 22.6586 181.459 23.1919C180.776 23.7039 179.955 24.0986 178.995 24.3759C178.056 24.6319 177.011 24.7599 175.859 24.7599ZM171.955 14.1359H179.059C179.059 13.4959 178.974 12.9412 178.803 12.4719C178.654 12.0026 178.44 11.6186 178.163 11.3199C177.886 11.0212 177.544 10.8079 177.139 10.6799C176.755 10.5306 176.318 10.4559 175.827 10.4559C175.016 10.4559 174.334 10.5946 173.779 10.8719C173.246 11.1279 172.83 11.5332 172.531 12.0879C172.254 12.6212 172.062 13.3039 171.955 14.1359Z" fill="white"/>
  <path d="M156.367 24.3759V7.54393H160.047L160.399 10.1679H160.623C160.837 9.61326 161.114 9.11193 161.455 8.66393C161.797 8.1946 162.223 7.82126 162.735 7.54393C163.247 7.2666 163.845 7.12793 164.527 7.12793C164.89 7.12793 165.221 7.1706 165.519 7.25593C165.818 7.31993 166.042 7.38393 166.191 7.44793V11.4799H164.815C164.154 11.4799 163.567 11.5759 163.055 11.7679C162.565 11.9386 162.149 12.2159 161.807 12.5999C161.466 12.9839 161.21 13.4533 161.039 14.0079C160.89 14.5626 160.815 15.2133 160.815 15.9599V24.3759H156.367Z" fill="white"/>
  <path d="M131.355 24.3761L139.803 2.42407H145.691L154.139 24.3761H148.987L147.419 20.0561H137.851L136.283 24.3761H131.355ZM139.227 16.2161H146.043L144.091 10.8081C144.006 10.5734 143.899 10.2961 143.771 9.97607C143.665 9.63474 143.547 9.26141 143.419 8.85607C143.291 8.45074 143.163 8.05607 143.035 7.67207C142.929 7.26674 142.822 6.90407 142.715 6.58407H142.523C142.417 6.98941 142.278 7.46941 142.107 8.02407C141.937 8.55741 141.766 9.08007 141.595 9.59207C141.425 10.0827 141.286 10.4881 141.179 10.8081L139.227 16.2161Z" fill="white"/>
  <path d="M115.89 24.7599C114.034 24.7599 112.477 24.4506 111.218 23.8319C109.959 23.1919 109.01 22.2212 108.37 20.9199C107.73 19.6186 107.41 17.9652 107.41 15.9599C107.41 13.9332 107.73 12.2799 108.37 10.9999C109.01 9.69858 109.949 8.73858 111.186 8.11991C112.445 7.47991 113.981 7.15991 115.794 7.15991C117.501 7.15991 118.941 7.46925 120.114 8.08791C121.287 8.68525 122.173 9.62391 122.77 10.9039C123.367 12.1626 123.666 13.7946 123.666 15.7999V16.9519H111.922C111.965 17.9332 112.114 18.7652 112.37 19.4479C112.647 20.1306 113.063 20.6426 113.618 20.9839C114.194 21.3039 114.951 21.4639 115.89 21.4639C116.402 21.4639 116.861 21.3999 117.266 21.2719C117.693 21.1439 118.055 20.9519 118.354 20.6959C118.653 20.4399 118.887 20.1199 119.058 19.7359C119.229 19.3519 119.314 18.9146 119.314 18.4239H123.666C123.666 19.4906 123.474 20.4186 123.09 21.2079C122.706 21.9972 122.173 22.6586 121.49 23.1919C120.807 23.7039 119.986 24.0986 119.026 24.3759C118.087 24.6319 117.042 24.7599 115.89 24.7599ZM111.986 14.1359H119.09C119.09 13.4959 119.005 12.9412 118.834 12.4719C118.685 12.0026 118.471 11.6186 118.194 11.3199C117.917 11.0212 117.575 10.8079 117.17 10.6799C116.786 10.5306 116.349 10.4559 115.858 10.4559C115.047 10.4559 114.365 10.5946 113.81 10.8719C113.277 11.1279 112.861 11.5332 112.562 12.0879C112.285 12.6212 112.093 13.3039 111.986 14.1359Z" fill="white"/>
  <path d="M83.0569 24.3761L77.2969 2.42407H82.3529L85.5529 15.5121C85.6169 15.7041 85.6809 15.9921 85.7449 16.3761C85.8089 16.7387 85.8729 17.1227 85.9369 17.5281C86.0009 17.9334 86.0542 18.2961 86.0969 18.6161H86.2569C86.2995 18.3814 86.3315 18.1147 86.3529 17.8161C86.3955 17.5174 86.4382 17.2294 86.4809 16.9521C86.5449 16.6534 86.5982 16.3761 86.6409 16.1201C86.7049 15.8641 86.7475 15.6614 86.7689 15.5121L89.7449 2.42407H95.4409L98.4809 15.5121C98.5449 15.7254 98.6089 16.0134 98.6729 16.3761C98.7369 16.7387 98.8009 17.1227 98.8649 17.5281C98.9289 17.9334 98.9822 18.2961 99.0249 18.6161H99.1849C99.2275 18.3814 99.2702 18.1254 99.3129 17.8481C99.3769 17.5707 99.4302 17.2934 99.4729 17.0161C99.5369 16.7174 99.6009 16.4401 99.6649 16.1841C99.7289 15.9281 99.7822 15.7041 99.8249 15.5121L102.993 2.42407H107.569L101.777 24.3761H96.3369L93.1049 10.8721C93.0409 10.5734 92.9662 10.2321 92.8809 9.84807C92.8169 9.44274 92.7529 9.04807 92.6889 8.66407C92.6249 8.28007 92.5716 7.93874 92.5289 7.64007H92.4009C92.3582 7.93874 92.3049 8.29074 92.2409 8.69607C92.1982 9.10141 92.1342 9.49607 92.0489 9.88007C91.9849 10.2641 91.9209 10.5947 91.8569 10.8721L88.6569 24.3761H83.0569Z" fill="white"/>
  <path fill-rule="evenodd" clip-rule="evenodd" d="M55.7732 24.7264L55.7732 24.7263C54.2976 23.9885 53.1732 22.8611 52.4169 21.373L52.414 21.3671L52.414 21.3671C51.6637 19.8665 51.3164 18.0486 51.3164 15.9599C51.3164 13.836 51.6612 12.0111 52.4184 10.5439C53.175 9.05669 54.3006 7.93869 55.7792 7.22249C57.2303 6.49836 58.9476 6.15991 60.8924 6.15991C62.8734 6.15991 64.6049 6.49616 66.0407 7.22397C67.5177 7.94023 68.6424 9.05772 69.3984 10.5439C70.1556 12.0111 70.5004 13.836 70.5004 15.9599C70.5004 18.0486 70.1531 19.8665 69.4028 21.3671L69.3999 21.373L69.3999 21.373C68.6436 22.8611 67.5192 23.9885 66.0436 24.7263L66.0375 24.7294L66.0375 24.7294C64.6033 25.4343 62.8733 25.7599 60.8924 25.7599C58.9492 25.7599 57.2344 25.4327 55.7852 24.7323L55.7732 24.7264ZM68.5084 10.9999C67.8471 9.69858 66.8764 8.73858 65.5964 8.11991C64.3377 7.47991 62.7697 7.15991 60.8924 7.15991C59.0577 7.15991 57.5004 7.47991 56.2204 8.11991C54.9404 8.73858 53.9697 9.69858 53.3084 10.9999C52.6471 12.2799 52.3164 13.9332 52.3164 15.9599C52.3164 17.9439 52.6471 19.5972 53.3084 20.9199C53.9697 22.2212 54.9404 23.1919 56.2204 23.8319C57.5004 24.4506 59.0577 24.7599 60.8924 24.7599C62.7697 24.7599 64.3377 24.4506 65.5964 23.8319C66.8764 23.1919 67.8471 22.2212 68.5084 20.9199C69.1697 19.5972 69.5004 17.9439 69.5004 15.9599C69.5004 13.9332 69.1697 12.2799 68.5084 10.9999ZM62.7025 19.9093L62.7094 19.9051C63.0877 19.6755 63.3926 19.3143 63.603 18.7477C63.8268 18.145 63.9564 17.3536 63.9564 16.3439V15.5759C63.9564 14.5662 63.8268 13.7748 63.603 13.1721C63.3926 12.6056 63.0877 12.2444 62.7094 12.0147L62.6913 12.0037L62.6737 11.992C62.3173 11.7543 61.7553 11.5839 60.8924 11.5839C60.0586 11.5839 59.4857 11.7513 59.0972 12.0011L59.0892 12.0062L59.0892 12.0061C58.7295 12.2326 58.4282 12.595 58.2138 13.1721C57.99 13.7748 57.8604 14.5662 57.8604 15.5759V16.3439C57.8604 17.3536 57.99 18.145 58.2138 18.7477C58.4268 19.3212 58.7257 19.6826 59.0824 19.9093C59.4751 20.1456 60.0547 20.3039 60.8924 20.3039C61.7641 20.3039 62.3348 20.1408 62.6956 19.9137L62.7025 19.9093ZM58.5564 20.7599C57.9804 20.3972 57.5537 19.8426 57.2764 19.0959C56.9991 18.3492 56.8604 17.4319 56.8604 16.3439V15.5759C56.8604 14.4879 56.9991 13.5706 57.2764 12.8239C57.5537 12.0772 57.9804 11.5226 58.5564 11.1599C59.1537 10.7759 59.9324 10.5839 60.8924 10.5839C61.8737 10.5839 62.6524 10.7759 63.2284 11.1599C63.8257 11.5226 64.2631 12.0772 64.5404 12.8239C64.8177 13.5706 64.9564 14.4879 64.9564 15.5759V16.3439C64.9564 17.4319 64.8177 18.3492 64.5404 19.0959C64.2631 19.8426 63.8257 20.3972 63.2284 20.7599C62.6524 21.1226 61.8737 21.3039 60.8924 21.3039C59.9324 21.3039 59.1537 21.1226 58.5564 20.7599Z" fill="white"/>
  <path fill-rule="evenodd" clip-rule="evenodd" d="M32.8984 25.376V0.23999H39.3464V7.38245C39.9286 7.00141 40.5646 6.70565 41.25 6.49293L41.2591 6.49012C42.0025 6.26709 42.7937 6.15999 43.6264 6.15999C44.8577 6.15999 45.9835 6.38528 46.9764 6.869C48.0128 7.37391 48.804 8.17311 49.3442 9.22367C49.9141 10.2903 50.1624 11.6079 50.1624 13.112V25.376H43.7144V13.816C43.7144 13.3555 43.6582 13.028 43.5794 12.8048L43.5765 12.7965L43.5738 12.7882C43.4905 12.5386 43.3821 12.3832 43.2707 12.2811L43.2387 12.2518L43.2093 12.2197C43.1084 12.1097 42.9723 12.0194 42.7683 11.9594C42.5123 11.8841 42.2041 11.84 41.8344 11.84C41.3424 11.84 40.9249 11.9567 40.5569 12.1775C40.1799 12.4037 39.8894 12.7077 39.6749 13.1061C39.4659 13.4943 39.3464 13.9669 39.3464 14.552V25.376H32.8984ZM48.4584 9.68799C48.0104 8.81332 47.3704 8.17332 46.5384 7.76799C45.7064 7.36266 44.7358 7.15999 43.6264 7.15999C42.8798 7.15999 42.1864 7.25599 41.5464 7.44799C40.9278 7.63999 40.3624 7.90666 39.8504 8.24799C39.6742 8.36294 39.5062 8.48615 39.3464 8.61762C39.0615 8.85213 38.8028 9.11292 38.5704 9.39999H38.3464V1.23999H33.8984V24.376H38.3464V14.552C38.3464 13.8267 38.4958 13.1867 38.7944 12.632C39.0931 12.0773 39.5091 11.64 40.0424 11.32C40.5758 11 41.1731 10.84 41.8344 10.84C42.2824 10.84 42.6878 10.8933 43.0504 11C43.4131 11.1067 43.7118 11.288 43.9464 11.544C44.2024 11.7787 44.3944 12.088 44.5224 12.472C44.6504 12.8347 44.7144 13.2827 44.7144 13.816V24.376H49.1624V13.112C49.1624 11.704 48.9278 10.5627 48.4584 9.68799Z" fill="white"/>
  <path fill-rule="evenodd" clip-rule="evenodd" d="M6.28479 25.3761L0 1.42407H7.1372L10.147 13.7341L12.9461 1.42407H20.2346L23.1585 14.0121L26.2054 1.42407H32.8663L26.5466 25.3761H19.5473L16.482 12.5683L13.447 25.3761H6.28479ZM15.9659 10.3445C15.9844 10.2471 16.0028 10.1452 16.0212 10.039C16.0245 10.0202 16.0278 10.0012 16.031 9.98216C16.0368 9.94856 16.0425 9.91453 16.0482 9.88007C16.1305 9.5098 16.193 9.12962 16.2356 8.73952C16.2372 8.72505 16.2387 8.71057 16.2402 8.69607C16.3029 8.29915 16.3554 7.95338 16.3976 7.65874C16.3985 7.6525 16.3994 7.64627 16.4002 7.64007H16.5282C16.5291 7.64628 16.53 7.6525 16.5309 7.65874C16.5731 7.95294 16.6256 8.28805 16.6882 8.66407C16.6927 8.69088 16.6972 8.71773 16.7016 8.74464C16.703 8.75295 16.7044 8.76126 16.7058 8.76958C16.7639 9.12027 16.8221 9.47977 16.8802 9.84807C16.8936 9.90819 16.9067 9.96726 16.9195 10.0253C16.9233 10.0423 16.9271 10.0593 16.9308 10.0762C16.9498 10.1621 16.9681 10.2456 16.9859 10.3268C17.0288 10.5221 17.0682 10.7038 17.1042 10.8721L20.3362 24.3761H25.7762L31.5682 2.42407H26.9922L23.8242 15.5121C23.7816 15.7041 23.7282 15.9281 23.6642 16.1841C23.6622 16.1922 23.6602 16.2004 23.6581 16.2086C23.5962 16.4577 23.5342 16.7269 23.4722 17.0161C23.4503 17.1586 23.4256 17.3012 23.398 17.4438C23.3719 17.5786 23.3433 17.7133 23.3122 17.8481C23.2709 18.1168 23.2296 18.3655 23.1882 18.5942C23.1869 18.6015 23.1856 18.6088 23.1842 18.6161H23.0242C23.0229 18.6062 23.0216 18.5962 23.0203 18.5863C22.9876 18.3434 22.949 18.0765 22.9043 17.7853C22.9027 17.7745 22.901 17.7637 22.8993 17.7528C22.888 17.6794 22.8763 17.6045 22.8642 17.5281C22.8306 17.3152 22.797 17.1082 22.7634 16.907C22.7609 16.8922 22.7584 16.8774 22.756 16.8626C22.7281 16.6964 22.7001 16.5342 22.6722 16.3761C22.6602 16.3078 22.6481 16.2421 22.6361 16.1792C22.5841 15.9076 22.5322 15.6852 22.4802 15.5121L19.4402 2.42407H13.7442L10.7682 15.5121C10.7521 15.6251 10.7237 15.7687 10.6831 15.9429C10.6701 15.9988 10.6558 16.0579 10.6402 16.1201C10.6347 16.1534 10.629 16.187 10.6231 16.221C10.6226 16.2239 10.622 16.2269 10.6215 16.2299C10.5823 16.4549 10.5352 16.6956 10.4802 16.9521C10.4551 17.1157 10.4299 17.283 10.4047 17.4541C10.3872 17.573 10.3697 17.6936 10.3522 17.8161C10.3316 18.1055 10.3009 18.3649 10.2602 18.5942C10.2589 18.6015 10.2576 18.6088 10.2562 18.6161H10.0962C10.0949 18.6062 10.0936 18.5962 10.0923 18.5863C10.0598 18.3445 10.0213 18.0789 9.97692 17.7893C9.97552 17.7801 9.97411 17.771 9.9727 17.7619C9.96096 17.6856 9.94881 17.6076 9.93625 17.5281C9.89952 17.2955 9.8628 17.07 9.82608 16.8514C9.82378 16.8377 9.82148 16.8241 9.81917 16.8104C9.7942 16.6624 9.76922 16.5176 9.74424 16.3761C9.7184 16.221 9.69255 16.0816 9.66671 15.9578C9.66424 15.946 9.66178 15.9344 9.65932 15.9229C9.62363 15.7561 9.58794 15.6192 9.55224 15.5121L6.35225 2.42407H1.29624L7.05625 24.3761H12.6562L15.8562 10.8721C15.8928 10.7136 15.9294 10.5378 15.9659 10.3445Z" fill="white"/>
</svg>