<svg width="275" height="52" viewBox="0 0 275 52" fill="none" xmlns="http://www.w3.org/2000/svg">
<path d="M263.142 43.64C260.358 43.64 258.022 43.176 256.134 42.248C254.246 41.288 252.822 39.832 251.862 37.88C250.902 35.928 250.422 33.448 250.422 30.44C250.422 27.4 250.902 24.92 251.862 23C252.822 21.048 254.23 19.608 256.086 18.68C257.974 17.72 260.278 17.24 262.998 17.24C265.558 17.24 267.718 17.704 269.478 18.632C271.238 19.528 272.566 20.936 273.462 22.856C274.358 24.744 274.806 27.192 274.806 30.2V31.928H257.19C257.254 33.4 257.478 34.648 257.862 35.672C258.278 36.696 258.902 37.464 259.734 37.976C260.598 38.456 261.734 38.696 263.142 38.696C263.91 38.696 264.598 38.6 265.206 38.408C265.846 38.216 266.39 37.928 266.838 37.544C267.286 37.16 267.638 36.68 267.894 36.104C268.15 35.528 268.278 34.872 268.278 34.136H274.806C274.806 35.736 274.518 37.128 273.942 38.312C273.366 39.496 272.566 40.488 271.542 41.288C270.518 42.056 269.286 42.648 267.846 43.064C266.438 43.448 264.87 43.64 263.142 43.64ZM257.286 27.704H267.942C267.942 26.744 267.814 25.912 267.558 25.208C267.334 24.504 267.014 23.928 266.598 23.48C266.182 23.032 265.67 22.712 265.062 22.52C264.486 22.296 263.83 22.184 263.094 22.184C261.878 22.184 260.854 22.392 260.022 22.808C259.222 23.192 258.598 23.8 258.15 24.632C257.734 25.432 257.446 26.456 257.286 27.704Z" fill="white"/>
<path d="M233.902 43.0639V17.8159H239.422L239.95 21.7519H240.286C240.606 20.9199 241.022 20.1679 241.534 19.4959C242.046 18.7919 242.686 18.2319 243.454 17.8159C244.222 17.3999 245.118 17.1919 246.142 17.1919C246.686 17.1919 247.182 17.2559 247.63 17.3839C248.078 17.4799 248.414 17.5759 248.638 17.6719V23.7199H246.574C245.582 23.7199 244.702 23.8639 243.934 24.1519C243.198 24.4079 242.574 24.8239 242.062 25.3999C241.55 25.9759 241.166 26.6799 240.91 27.5119C240.686 28.3439 240.574 29.3199 240.574 30.4399V43.0639H233.902Z" fill="white"/>
<path d="M196.387 43.064L209.059 10.136H217.891L230.563 43.064H222.835L220.483 36.584H206.131L203.779 43.064H196.387ZM208.195 30.824H218.419L215.491 22.712C215.363 22.36 215.203 21.944 215.011 21.464C214.851 20.952 214.675 20.392 214.483 19.784C214.291 19.176 214.099 18.584 213.907 18.008C213.747 17.4 213.587 16.856 213.427 16.376H213.139C212.979 16.984 212.771 17.704 212.515 18.536C212.259 19.336 212.003 20.12 211.747 20.888C211.491 21.624 211.283 22.232 211.123 22.712L208.195 30.824Z" fill="white"/>
<path d="M173.189 43.64C170.405 43.64 168.069 43.176 166.181 42.248C164.293 41.288 162.869 39.832 161.909 37.88C160.949 35.928 160.469 33.448 160.469 30.44C160.469 27.4 160.949 24.92 161.909 23C162.869 21.048 164.277 19.608 166.133 18.68C168.021 17.72 170.325 17.24 173.045 17.24C175.605 17.24 177.765 17.704 179.525 18.632C181.285 19.528 182.613 20.936 183.509 22.856C184.405 24.744 184.853 27.192 184.853 30.2V31.928H167.237C167.301 33.4 167.525 34.648 167.909 35.672C168.325 36.696 168.949 37.464 169.781 37.976C170.645 38.456 171.781 38.696 173.189 38.696C173.957 38.696 174.645 38.6 175.253 38.408C175.893 38.216 176.437 37.928 176.885 37.544C177.333 37.16 177.685 36.68 177.941 36.104C178.197 35.528 178.325 34.872 178.325 34.136H184.853C184.853 35.736 184.565 37.128 183.989 38.312C183.413 39.496 182.613 40.488 181.589 41.288C180.565 42.056 179.333 42.648 177.893 43.064C176.485 43.448 174.917 43.64 173.189 43.64ZM167.333 27.704H177.989C177.989 26.744 177.861 25.912 177.605 25.208C177.381 24.504 177.061 23.928 176.645 23.48C176.229 23.032 175.717 22.712 175.109 22.52C174.533 22.296 173.877 22.184 173.141 22.184C171.925 22.184 170.901 22.392 170.069 22.808C169.269 23.192 168.645 23.8 168.197 24.632C167.781 25.432 167.493 26.456 167.333 27.704Z" fill="white"/>
<path d="M123.937 43.064L115.297 10.136H122.881L127.681 29.768C127.777 30.056 127.873 30.488 127.969 31.064C128.065 31.608 128.161 32.184 128.257 32.792C128.353 33.4 128.433 33.944 128.497 34.424H128.737C128.801 34.072 128.849 33.672 128.881 33.224C128.945 32.776 129.009 32.344 129.073 31.928C129.169 31.48 129.249 31.064 129.313 30.68C129.409 30.296 129.473 29.992 129.505 29.768L133.969 10.136H142.513L147.073 29.768C147.169 30.088 147.265 30.52 147.361 31.064C147.457 31.608 147.553 32.184 147.649 32.792C147.745 33.4 147.825 33.944 147.889 34.424H148.129C148.193 34.072 148.257 33.688 148.321 33.272C148.417 32.856 148.497 32.44 148.561 32.024C148.657 31.576 148.753 31.16 148.849 30.776C148.945 30.392 149.025 30.056 149.089 29.768L153.841 10.136H160.705L152.017 43.064H143.857L139.009 22.808C138.913 22.36 138.801 21.848 138.673 21.272C138.577 20.664 138.481 20.072 138.385 19.496C138.289 18.92 138.209 18.408 138.145 17.96H137.953C137.889 18.408 137.809 18.936 137.713 19.544C137.649 20.152 137.553 20.744 137.425 21.32C137.329 21.896 137.233 22.392 137.137 22.808L132.337 43.064H123.937Z" fill="white"/>
<path fill-rule="evenodd" clip-rule="evenodd" d="M83.2369 43.1425L83.2369 43.1424C81.1213 42.0846 79.5116 40.4718 78.4246 38.333L78.4217 38.3272L78.4217 38.3272C77.3407 36.1652 76.8281 33.5206 76.8281 30.44C76.8281 27.3028 77.3382 24.6512 78.4262 22.544C79.5133 20.4061 81.1243 18.8081 83.2429 17.7826C85.3341 16.7384 87.83 16.24 90.6921 16.24C93.6117 16.24 96.1272 16.7362 98.1924 17.784C100.309 18.8096 101.919 20.4072 103.006 22.544C104.094 24.6512 104.604 27.3028 104.604 30.44C104.604 33.5206 104.092 36.1652 103.011 38.3272L103.008 38.333L103.008 38.333C101.921 40.4718 100.311 42.0846 98.1953 43.1424L98.1893 43.1455L98.1892 43.1454C96.1257 44.1597 93.6117 44.64 90.6921 44.64C87.8316 44.64 85.3381 44.1581 83.249 43.1483L83.2369 43.1425ZM102.116 23C101.124 21.048 99.6681 19.608 97.7481 18.68C95.8601 17.72 93.5081 17.24 90.6921 17.24C87.9401 17.24 85.6041 17.72 83.6841 18.68C81.7641 19.608 80.3081 21.048 79.3161 23C78.3241 24.92 77.8281 27.4 77.8281 30.44C77.8281 33.416 78.3241 35.896 79.3161 37.88C80.3081 39.832 81.7641 41.288 83.6841 42.248C85.6041 43.176 87.9401 43.64 90.6921 43.64C93.5081 43.64 95.8601 43.176 97.7481 42.248C99.6681 41.288 101.124 39.832 102.116 37.88C103.108 35.896 103.604 33.416 103.604 30.44C103.604 27.4 103.108 24.92 102.116 23ZM93.6702 36.7894L93.6772 36.7852C94.3541 36.3742 94.8776 35.7357 95.2267 34.7958C95.5892 33.8198 95.7881 32.5697 95.7881 31.016V29.864C95.7881 28.3103 95.5892 27.0602 95.2267 26.0842C94.8776 25.1443 94.3541 24.5058 93.6772 24.0948L93.659 24.0838L93.6414 24.072C92.997 23.6424 92.0457 23.376 90.6921 23.376C89.3783 23.376 88.4161 23.6394 87.7289 24.0812L87.721 24.0863L87.7209 24.0862C87.0733 24.494 86.5586 25.1337 86.2056 26.0842C85.843 27.0602 85.6441 28.3103 85.6441 29.864V31.016C85.6441 32.5697 85.843 33.8198 86.2056 34.7958C86.5573 35.7429 87.0696 36.3814 87.7141 36.7894C88.4052 37.2068 89.3739 37.456 90.6921 37.456C92.0545 37.456 93.0146 37.2022 93.6633 36.7938L93.6702 36.7894ZM87.1881 37.64C86.3241 37.096 85.6841 36.264 85.2681 35.144C84.8521 34.024 84.6441 32.648 84.6441 31.016V29.864C84.6441 28.232 84.8521 26.856 85.2681 25.736C85.6841 24.616 86.3241 23.784 87.1881 23.24C88.0841 22.664 89.2521 22.376 90.6921 22.376C92.1641 22.376 93.3321 22.664 94.1961 23.24C95.0921 23.784 95.7481 24.616 96.1641 25.736C96.5801 26.856 96.7881 28.232 96.7881 29.864V31.016C96.7881 32.648 96.5801 34.024 96.1641 35.144C95.7481 36.264 95.0921 37.096 94.1961 37.64C93.3321 38.184 92.1641 38.456 90.6921 38.456C89.2521 38.456 88.0841 38.184 87.1881 37.64Z" fill="white"/>
<path fill-rule="evenodd" clip-rule="evenodd" d="M49.1992 44.0639V7.35986H57.8712V18.5448C58.0971 18.3659 58.3323 18.1966 58.5766 18.0371C59.4274 17.4705 60.3617 17.0312 61.3748 16.7168L61.3839 16.714C62.4473 16.395 63.5852 16.2399 64.7912 16.2399C66.5772 16.2399 68.1883 16.5665 69.5972 17.2529C71.0496 17.9605 72.1608 19.0797 72.9249 20.5675C73.7296 22.0716 74.0952 23.9599 74.0952 26.1679V44.0639H65.4232V27.2239C65.4232 26.4967 65.335 25.9452 65.1922 25.5407L65.1893 25.5324L65.1865 25.5241C65.0393 25.0825 64.8349 24.7725 64.5955 24.553L64.5634 24.5236L64.5341 24.4916C64.3159 24.2536 64.0304 24.0726 63.6451 23.9592C63.2078 23.8306 62.6968 23.7599 62.1032 23.7599C61.2805 23.7599 60.5644 23.9566 59.9297 24.3374C59.286 24.7236 58.7876 25.2462 58.4237 25.922C58.0653 26.5875 57.8712 27.3801 57.8712 28.3279V44.0639H49.1992ZM72.0392 21.0319C71.3672 19.7199 70.4072 18.7599 69.1592 18.1519C67.9112 17.5439 66.4552 17.2399 64.7912 17.2399C63.6712 17.2399 62.6312 17.3839 61.6712 17.6719C60.7432 17.9599 59.8952 18.3599 59.1272 18.8719C58.6718 19.1689 58.2531 19.5027 57.8712 19.8732C57.6359 20.1015 57.4146 20.3437 57.2072 20.5999H56.8712V8.35986H50.1992V43.0639H56.8712V28.3279C56.8712 27.2399 57.0952 26.2799 57.5432 25.4479C57.9912 24.6159 58.6152 23.9599 59.4152 23.4799C60.2152 22.9999 61.1112 22.7599 62.1032 22.7599C62.7752 22.7599 63.3832 22.8399 63.9272 22.9999C64.4712 23.1599 64.9192 23.4319 65.2712 23.8159C65.6552 24.1679 65.9432 24.6319 66.1352 25.2079C66.3272 25.7519 66.4232 26.4239 66.4232 27.2239V43.0639H73.0952V26.1679C73.0952 24.0559 72.7432 22.3439 72.0392 21.0319Z" fill="white"/>
<path fill-rule="evenodd" clip-rule="evenodd" d="M9.16478 44.064L0 9.13599H9.6652L14.59 29.2785L19.1701 9.13599H29.3066L34.0395 29.5123C34.0547 29.564 34.0697 29.6175 34.0847 29.6729C34.0941 29.6313 34.1033 29.5907 34.1121 29.5511L34.1141 29.5419L39.0534 9.13599H48.0023L38.7866 44.064H29.0673L24.0724 23.1942L19.127 44.064H9.16478ZM24.5725 20.646C24.6057 20.8527 24.639 21.0614 24.6722 21.272C24.8002 21.848 24.9122 22.36 25.0082 22.808L29.8562 43.064H38.0162L46.7042 10.136H39.8402L35.0882 29.768C35.0242 30.056 34.9442 30.392 34.8482 30.776C34.7522 31.16 34.6562 31.576 34.5602 32.024C34.5566 32.0476 34.5529 32.0712 34.5492 32.0948C34.5191 32.2851 34.4856 32.4753 34.4489 32.6656C34.4098 32.8677 34.3669 33.0699 34.3202 33.272C34.2582 33.6751 34.1962 34.0482 34.1342 34.3912C34.1322 34.4022 34.1302 34.4131 34.1282 34.424H33.8882C33.8863 34.4091 33.8843 34.3942 33.8823 34.3793C33.8334 34.015 33.7754 33.6146 33.7083 33.1779C33.7058 33.1616 33.7034 33.1454 33.7008 33.129C33.6839 33.019 33.6663 32.9066 33.6482 32.792C33.6108 32.5548 33.5733 32.3225 33.5359 32.0951C33.4774 31.7395 33.4188 31.3958 33.3602 31.064C33.2642 30.52 33.1682 30.088 33.0722 29.768L28.5122 10.136H19.9682L15.5042 29.768C15.4722 29.992 15.4082 30.296 15.3122 30.68C15.2556 31.02 15.1864 31.3851 15.1046 31.7753C15.094 31.8258 15.0832 31.8767 15.0722 31.928C15.0345 32.1734 14.9967 32.4244 14.959 32.681C14.9327 32.8593 14.9065 33.0403 14.8802 33.224C14.8492 33.6581 14.8032 34.0472 14.7421 34.3912C14.7402 34.4022 14.7382 34.4131 14.7362 34.424H14.4962C14.4943 34.4091 14.4923 34.3942 14.4903 34.3793C14.4416 34.0167 14.3839 33.6182 14.3172 33.1838C14.3152 33.1701 14.313 33.1564 14.3109 33.1427C14.2933 33.0282 14.2751 32.9113 14.2562 32.792C14.2012 32.4431 14.1461 32.1048 14.091 31.777C14.0897 31.7695 14.0885 31.7619 14.0872 31.7544C14.0475 31.5188 14.0079 31.2887 13.9682 31.064C13.8722 30.488 13.7762 30.056 13.6802 29.768L8.88024 10.136H1.29624L9.93624 43.064H18.3362L23.1362 22.808C23.2322 22.392 23.3282 21.896 23.4242 21.32C23.474 21.0963 23.5188 20.8702 23.5589 20.6417C23.6183 20.3028 23.6671 19.9586 23.7053 19.6092C23.7076 19.5875 23.71 19.5657 23.7122 19.544C23.8062 18.9486 23.8849 18.4299 23.9482 17.988C23.9496 17.9786 23.9509 17.9693 23.9522 17.96H24.1442C24.1456 17.9693 24.1469 17.9786 24.1483 17.988C24.2116 18.4293 24.2902 18.932 24.3842 19.496C24.3909 19.5362 24.3976 19.5765 24.4043 19.6168C24.4064 19.6293 24.4085 19.6418 24.4106 19.6542C24.4645 19.9798 24.5185 20.3104 24.5725 20.646Z" fill="white"/>
</svg>
