<svg xmlns="http://www.w3.org/2000/svg" width="122" height="46" viewBox="0 0 122 46" fill="none">
  <path d="M96.107 42.3343L96.1069 42.3344L96.1192 42.3403C98.4687 43.4759 101.278 44.0203 104.509 44.0203C107.807 44.0203 110.639 43.4776 112.959 42.3374L112.959 42.3374L112.965 42.3343C115.342 41.1461 117.149 39.3353 118.371 36.9315L118.371 36.9315L118.374 36.9256C119.589 34.4946 120.169 31.5148 120.169 28.0339C120.169 24.4881 119.592 21.5012 118.369 19.1333C117.148 16.7315 115.34 14.938 112.962 13.7863C110.641 12.6082 107.807 12.0475 104.509 12.0475C101.276 12.0475 98.4646 12.6105 96.1131 13.7848C93.7336 14.9365 91.9246 16.7304 90.7028 19.1331C89.4802 21.501 88.9034 24.488 88.9034 28.0339C88.9034 31.5148 89.4827 34.4946 90.6982 36.9256L90.6982 36.9256L90.7012 36.9315C91.9228 39.3353 93.7305 41.1461 96.107 42.3343ZM107.952 35.3249L107.945 35.3292L107.938 35.3336C107.178 35.8121 106.066 36.1019 104.509 36.1019C103 36.1019 101.88 35.8167 101.073 35.3292C100.317 34.8512 99.7219 34.1054 99.3158 33.0119C98.8987 31.889 98.6721 30.4574 98.6721 28.6869V27.3808C98.6721 25.6104 98.8987 24.1787 99.3158 23.0558C99.7232 21.959 100.321 21.2119 101.08 20.7341L101.08 20.7341L101.088 20.7289C101.891 20.2128 103.005 19.9114 104.509 19.9114C106.057 19.9114 107.16 20.2159 107.916 20.7196L107.934 20.7316L107.952 20.7428C108.744 21.2239 109.353 21.9698 109.756 23.0558C110.173 24.1787 110.4 25.6104 110.4 27.3808V28.6869C110.4 30.4574 110.173 31.889 109.756 33.0119C109.353 34.0979 108.744 34.8438 107.952 35.3249Z" stroke="white" stroke-width="2.04082"/>
  <path d="M57.5792 42.3469V43.3674H58.5996H66.1642H67.1846V42.3469V25.6395C67.1846 24.549 67.4081 23.6314 67.8246 22.8579C68.2467 22.0741 68.8261 21.4664 69.5736 21.0179C70.3119 20.5749 71.1443 20.3469 72.0962 20.3469C72.7781 20.3469 73.3684 20.4282 73.8763 20.5776C74.3312 20.7114 74.6733 20.9269 74.9359 21.2133L74.9658 21.246L74.9985 21.276C75.2863 21.5398 75.5276 21.9088 75.6996 22.4247L75.7024 22.4332L75.7054 22.4417C75.8729 22.9162 75.9738 23.555 75.9738 24.3878V42.3469V43.3674H76.9942H84.5588H85.5792V42.3469V23.1905C85.5792 20.698 85.1662 18.5771 84.2653 16.8935C83.4094 15.2266 82.1667 13.9757 80.5431 13.1847C78.964 12.4154 77.1549 12.0476 75.1438 12.0476C73.7862 12.0476 72.5072 12.2223 71.3132 12.5805L71.3132 12.5804L71.304 12.5833C70.165 12.9367 69.1155 13.4303 68.1603 14.0665C67.819 14.2893 67.4937 14.529 67.1846 14.7854V3V1.97959H66.1642H58.5996H57.5792V3V42.3469Z" stroke="white" stroke-width="2.04082"/>
  <path d="M11.9613 42.606L12.1611 43.3674H12.9483H22.4721H23.2789L23.465 42.5823L28.9072 19.6163L28.9072 19.6163L28.9085 19.6105C28.9313 19.5119 28.9539 19.41 28.9765 19.3047C28.998 19.404 29.0188 19.5007 29.0389 19.5948L29.0415 19.6067L29.0443 19.6185L34.5409 42.5845L34.7283 43.3674H35.5333H44.785H45.5711L45.7717 42.6073L55.622 5.274L55.9599 3.99326H54.6353H46.853H46.0502L45.8613 4.77361L40.4735 27.0321L40.4713 27.0415L40.4692 27.0508C40.4289 27.232 40.3826 27.4319 40.3301 27.6506C40.277 27.415 40.2226 27.2014 40.1665 27.0112L35.0034 4.7828L34.8201 3.99326H34.0095H24.3224H23.508L23.3274 4.78742L18.2662 27.0459L18.2569 27.0866L18.251 27.1279C18.2476 27.1523 18.2436 27.1781 18.2391 27.2055C18.2181 27.1305 18.1968 27.0592 18.1751 26.9918L12.7422 4.77132L12.552 3.99326H11.751H3.15234H1.82965L2.16535 5.27265L11.9613 42.606Z" stroke="white" stroke-width="2.04082"/>
</svg>