<svg width="64" height="64" viewBox="0 0 64 64" fill="none" xmlns="http://www.w3.org/2000/svg">
<g clip-path="url(#clip0_24_2094)">
<path d="M32 64C49.7067 64 64 49.7067 64 32C64 14.2933 49.7067 0 32 0C14.2933 0 0 14.2933 0 32C0 49.7067 14.2933 64 32 64Z" fill="#274DD8"/>
<path d="M21.76 37.76H20.48L20.2667 36.0533C19.6267 37.12 18.3467 37.9733 16.8534 37.9733C13.6534 37.9733 11.52 35.4133 11.52 32C11.52 28.5867 13.44 25.8133 16.8534 25.8133C19.4134 25.8133 21.12 27.52 21.76 29.8667L19.2 30.08C18.7734 28.8 18.1334 27.9467 16.8534 27.9467C14.9334 27.9467 13.8667 29.6533 13.8667 31.7867C13.8667 34.1333 14.9334 35.6267 16.8534 35.6267C18.3467 35.6267 19.2 34.56 19.4134 33.28H16.8534V31.5733H21.76V37.76ZM26.88 26.4533C30.5067 26.4533 32.64 28.5867 32.64 32.2133C32.64 35.84 30.5067 37.76 27.0934 37.76H23.04V26.4533H26.88ZM25.3867 35.6267H26.88C29.2267 35.6267 30.08 34.56 30.08 32C30.08 29.6533 29.0134 28.3733 26.88 28.3733H25.3867V35.6267ZM37.9734 26.4533C40.7467 26.4533 42.24 27.9467 42.24 30.08C42.24 32.2133 40.5333 33.7067 37.9734 33.7067H35.84V37.76H33.4933V26.4533H37.9734ZM35.84 31.7867H37.76C39.04 31.7867 39.8934 31.1467 39.8934 30.08C39.8934 29.0133 39.04 28.3733 37.76 28.3733H35.84V31.7867ZM48.64 26.24C50.9867 26.24 52.6934 27.7333 52.6934 29.8667C52.6934 31.36 51.84 32.2133 50.56 32.64C51.84 32.8533 52.2667 33.4933 52.48 34.56L52.6934 37.76H50.3467L50.1334 34.7733C50.1334 33.92 49.4934 33.4933 48.2134 33.4933H46.08V37.5467H43.7334V26.24H48.64ZM45.8667 31.5733H48.2134C49.4934 31.5733 50.1334 30.9333 50.1334 29.8667C50.1334 28.8 49.4934 28.16 48.2134 28.16H45.8667V31.5733Z" fill="white"/>
<path d="M31.9999 2.98667L32.8532 4.69333L34.7732 4.90667L33.4932 6.18667L33.9199 8.10667L31.9999 7.46667L30.2932 8.10667L30.7199 6.18667L29.2266 4.90667L31.3599 4.69333L31.9999 2.98667Z" fill="#FFCC02"/>
<path d="M18.9867 6.61333L19.84 8.32L21.76 8.53333L20.48 9.81333L20.9067 11.7333L18.9867 10.88L17.28 11.7333L17.7067 9.81333L16.2134 8.53333L18.3467 8.32L18.9867 6.61333Z" fill="#FFCC02"/>
<path d="M9.38661 16L10.2399 17.4933L12.1599 17.92L10.8799 19.2L11.0933 21.12L9.38661 20.2667L7.67995 21.12L8.10661 19.2L6.61328 17.92L8.53328 17.4933L9.38661 16Z" fill="#FFCC02"/>
<path d="M5.54677 29.44L6.4001 31.1467L8.3201 31.36L7.0401 32.64L7.46677 34.56L5.54677 33.92L3.8401 34.56L4.26677 32.64L2.77344 31.36L4.90677 31.1467L5.54677 29.44Z" fill="#FFCC02"/>
<path d="M9.59999 42.24L10.4533 43.7333L12.3733 44.16L11.0933 45.44L11.52 47.36L9.59999 46.5067L7.89333 47.36L8.31999 45.44L6.82666 44.16L8.95999 43.7333L9.59999 42.24Z" fill="#FFCC02"/>
<path d="M18.56 51.4133L19.4133 53.12L21.3333 53.5467L20.0533 54.8267L20.48 56.5333L18.56 55.8933L16.8533 56.5333L17.28 54.8267L15.7866 53.5467L17.92 53.12L18.56 51.4133Z" fill="#FFCC02"/>
<path d="M31.9999 55.8933L32.8532 57.6L34.7732 57.8133L33.4932 59.0933L33.9199 61.0133L31.9999 60.3733L30.2932 61.0133L30.7199 59.0933L29.2266 57.8133L31.3599 57.6L31.9999 55.8933Z" fill="#FFCC02"/>
<path d="M45.2265 51.4133L46.0798 53.12L47.9998 53.5467L46.7198 54.8267L47.1465 56.5333L45.2265 55.8933L43.5198 56.5333L43.9465 54.8267L42.4531 53.5467L44.5865 53.12L45.2265 51.4133Z" fill="#FFCC02"/>
<path d="M54.1864 42.24L55.2531 43.7333L56.9598 44.16L55.6798 45.44L56.1064 47.36L54.1864 46.5067L52.6931 47.36L52.9064 45.44L51.4131 44.16L53.5464 43.7333L54.1864 42.24Z" fill="#FFCC02"/>
<path d="M58.4535 29.44L59.3068 31.1467L61.2268 31.36L59.9468 32.64L60.3735 34.56L58.4535 33.92L56.7468 34.56L57.1735 32.64L55.6802 31.36L57.8135 31.1467L58.4535 29.44Z" fill="#FFCC02"/>
<path d="M54.6132 16L55.4665 17.4933L57.3865 17.92L56.1065 19.2L56.5332 21.12L54.6132 20.2667L52.9065 21.12L53.3332 19.2L51.8398 17.92L53.9732 17.4933L54.6132 16Z" fill="#FFCC02"/>
<path d="M45.0136 6.61333L45.8669 8.32L47.7869 8.53333L46.5069 9.81333L46.7202 11.7333L45.0136 10.88L43.3069 11.7333L43.7336 9.81333L42.2402 8.53333L44.1602 8.32L45.0136 6.61333Z" fill="#FFCC02"/>
</g>
<defs>
<clipPath id="clip0_24_2094">
<rect width="64" height="64" fill="white"/>
</clipPath>
</defs>
</svg>
