<svg width="64" height="64" viewBox="0 0 64 64" fill="none" xmlns="http://www.w3.org/2000/svg">
<g clip-path="url(#clip0_24_2093)">
<path d="M32.0002 63.6237C27.7308 63.6237 23.5893 62.7876 19.6908 61.1387C15.9252 59.5459 12.5432 57.2657 9.63884 54.3612C6.73452 51.4568 4.45424 48.0749 2.86145 44.3092C1.21252 40.4107 0.376465 36.2693 0.376465 31.9999C0.376465 27.7305 1.21252 23.5891 2.86145 19.6906C4.45424 15.925 6.73444 12.5429 9.63884 9.6386C12.5432 6.73427 15.9252 4.45399 19.6908 2.86121C23.5893 1.21235 27.7308 0.376221 32.0002 0.376221C36.2696 0.376221 40.411 1.21228 44.3095 2.86121C48.0752 4.45399 51.4572 6.7342 54.3615 9.6386C57.2658 12.543 59.5462 15.925 61.139 19.6906C62.7878 23.5891 63.624 27.7305 63.624 31.9999C63.624 36.2693 62.7879 40.4107 61.139 44.3092C59.5462 48.0749 57.2659 51.4569 54.3615 54.3612C51.4571 57.2656 48.0752 59.5459 44.3095 61.1387C40.411 62.7876 36.2696 63.6237 32.0002 63.6237Z" fill="white"/>
<path d="M32 0.752592C36.2187 0.752592 40.3108 1.57864 44.1626 3.20785C47.8835 4.7816 51.2253 7.03478 54.0952 9.90472C56.9651 12.7747 59.2183 16.1165 60.7921 19.8373C62.4213 23.6891 63.2473 27.7813 63.2473 31.9999C63.2473 36.2186 62.4213 40.3107 60.7921 44.1626C59.2183 47.8834 56.9651 51.2252 54.0952 54.0951C51.2253 56.9651 47.8835 59.2183 44.1626 60.792C40.3108 62.4212 36.2187 63.2473 32 63.2473C27.7813 63.2473 23.6892 62.4212 19.8374 60.792C16.1165 59.2183 12.7747 56.9651 9.90479 54.0951C7.03486 51.2252 4.78167 47.8834 3.20792 44.1626C1.57871 40.3107 0.752668 36.2186 0.752668 31.9999C0.752668 27.7813 1.57871 23.6891 3.20792 19.8373C4.78167 16.1165 7.03486 12.7747 9.90479 9.90472C12.7747 7.03478 16.1165 4.7816 19.8374 3.20785C23.6892 1.57864 27.7813 0.752592 32 0.752592ZM32 0C14.3269 0 0 14.3269 0 32C0 49.6731 14.3269 64 32 64C49.6731 64 64 49.6731 64 32C64 14.3269 49.6731 0 32 0Z" fill="#085493"/>
<path d="M4.2373 33.6696L7.29531 33.4609L7.32677 33.9223L4.26876 34.131L4.2373 33.6696Z" fill="#085493"/>
<path d="M5.88741 32.4248L7.25239 32.43L7.25058 32.8776L4.95171 32.8685L4.95345 32.439L5.32763 32.4403V32.412C5.20624 32.3586 5.10886 32.2751 5.03533 32.1617C4.96195 32.048 4.92567 31.9052 4.92628 31.7325C4.92695 31.5759 4.96014 31.4388 5.02592 31.3213C5.09177 31.2038 5.18916 31.1128 5.31815 31.0485C5.44707 30.9842 5.60639 30.9524 5.79597 30.9531L7.25818 30.9588L7.25653 31.4064L5.84813 31.4008C5.6815 31.4 5.55093 31.443 5.45625 31.5294C5.36165 31.616 5.31401 31.7349 5.31349 31.8866C5.31303 31.9904 5.33509 32.0826 5.37971 32.1631C5.42427 32.2435 5.48967 32.3071 5.57576 32.3539C5.66186 32.4006 5.76579 32.4242 5.88756 32.4247L5.88741 32.4248Z" fill="#085493"/>
<path d="M7.3142 30.2677L4.75802 30.0521C4.61488 30.04 4.49845 29.9987 4.40874 29.928C4.31918 29.8574 4.25499 29.7684 4.21653 29.6609C4.178 29.5536 4.16385 29.4393 4.17416 29.318C4.18168 29.2285 4.19531 29.1526 4.2151 29.0902C4.23489 29.0277 4.25205 28.9816 4.26658 28.9519L4.61871 29.0866C4.61096 29.107 4.60148 29.1332 4.59034 29.1654C4.5792 29.1975 4.57153 29.2369 4.56754 29.2836C4.55843 29.3919 4.57875 29.4714 4.6285 29.5223C4.67832 29.573 4.75396 29.6027 4.85541 29.6113L7.3519 29.8219L7.31427 30.2678L7.3142 30.2677ZM5.10271 29.135L5.46072 29.1651L5.35151 30.4596L4.99358 30.4295L5.10271 29.135Z" fill="#085493"/>
<path d="M7.61954 28.0646C7.58507 28.2775 7.5062 28.4551 7.38285 28.5979C7.25965 28.7406 7.10326 28.8416 6.91376 28.9007C6.72418 28.9599 6.51225 28.9705 6.2779 28.9324C6.04249 28.8942 5.84373 28.8171 5.68169 28.7008C5.51966 28.5845 5.40278 28.4391 5.33098 28.2648C5.25919 28.0904 5.2406 27.8967 5.27514 27.684C5.30969 27.4713 5.38856 27.2936 5.51183 27.1509C5.63511 27.0082 5.79195 26.9072 5.9825 26.8483C6.17298 26.7892 6.38597 26.7787 6.62138 26.817C6.85566 26.8551 7.05352 26.9322 7.2145 27.0482C7.37563 27.1644 7.49205 27.3097 7.56385 27.484C7.63557 27.6583 7.65416 27.8519 7.61954 28.0646ZM7.24904 28.0031C7.27139 27.8652 7.25356 27.7449 7.19531 27.6425C7.13721 27.5401 7.05103 27.4571 6.93702 27.3936C6.82292 27.3301 6.6931 27.2866 6.54732 27.2628C6.40253 27.2394 6.26578 27.2397 6.13701 27.2639C6.00832 27.2878 5.89964 27.3393 5.81106 27.4179C5.72241 27.4966 5.66702 27.6047 5.64466 27.7426C5.62209 27.8815 5.64038 28.0025 5.69945 28.1055C5.75853 28.2087 5.84531 28.2919 5.95985 28.3555C6.07432 28.419 6.20399 28.4625 6.34879 28.486C6.49464 28.5096 6.63154 28.5094 6.75986 28.4852C6.8881 28.4612 6.99602 28.4094 7.08377 28.3301C7.17137 28.2509 7.22646 28.1417 7.24904 28.0029V28.0031Z" fill="#085493"/>
<path d="M7.85569 26.5738L5.62402 26.0225L5.72773 25.6025L6.08228 25.6901L6.088 25.6669C5.97797 25.5964 5.90105 25.5012 5.85733 25.3808C5.81353 25.2605 5.80781 25.135 5.84009 25.0044C5.84679 24.9772 5.85575 24.9453 5.86681 24.9084C5.87795 24.8715 5.88758 24.843 5.89586 24.8222L6.31137 24.925C6.30218 24.9413 6.28894 24.9708 6.2717 25.0138C6.25439 25.0568 6.24025 25.1006 6.22918 25.1452C6.20382 25.2479 6.20284 25.3443 6.22625 25.4351C6.24958 25.5256 6.29353 25.6035 6.3581 25.6687C6.42267 25.734 6.50335 25.7785 6.60029 25.8025L7.96308 26.1393L7.85569 26.5738Z" fill="#085493"/>
<path d="M8.2007 25.0654L6.03857 24.2847L6.18443 23.8807L6.53634 24.0078L6.54597 23.9811C6.44309 23.893 6.37649 23.7857 6.34638 23.6592C6.31628 23.5327 6.32689 23.3981 6.37844 23.2554C6.4306 23.1109 6.50819 23.0019 6.61115 22.9282C6.71418 22.8544 6.83324 22.8154 6.9684 22.8113L6.97653 22.7888C6.87967 22.6953 6.81721 22.5801 6.78891 22.4425C6.76054 22.3049 6.77453 22.1583 6.83075 22.0025C6.90157 21.8063 7.02093 21.6683 7.18884 21.5883C7.35659 21.5084 7.56438 21.5132 7.81213 21.6025L9.26208 22.1261L9.11013 22.5471L7.69962 22.0377C7.55324 21.9848 7.43275 21.9864 7.33823 22.0424C7.24378 22.0985 7.17649 22.1819 7.13653 22.2925C7.08709 22.4295 7.09062 22.5513 7.14714 22.6577C7.20366 22.764 7.29766 22.8409 7.42899 22.8883L8.80714 23.3858L8.65571 23.8053L7.21841 23.2863C7.10116 23.2441 6.99361 23.2465 6.89585 23.294C6.79809 23.3415 6.72802 23.424 6.68565 23.5411C6.6569 23.6209 6.65126 23.7019 6.66872 23.7841C6.68626 23.8664 6.72471 23.9412 6.78409 24.0088C6.84355 24.0763 6.92204 24.1279 7.01965 24.163L8.35272 24.6444L8.2007 25.0652V25.0654Z" fill="#085493"/>
<path d="M9.8483 21.093C9.78275 21.2232 9.69936 21.3286 9.59784 21.4093C9.49631 21.49 9.38388 21.5376 9.26053 21.552C9.13703 21.5664 9.00811 21.5396 8.87347 21.4721C8.75757 21.4137 8.67343 21.3434 8.62097 21.2613C8.56859 21.1789 8.53954 21.0891 8.53398 20.9912C8.52848 20.8936 8.53811 20.7922 8.56295 20.6876C8.58771 20.5827 8.61872 20.4789 8.65597 20.3758C8.70376 20.2456 8.74214 20.1398 8.77127 20.0584C8.80047 19.9771 8.81319 19.9137 8.80927 19.8681C8.80528 19.8226 8.77932 19.7878 8.73115 19.7635L8.72182 19.7589C8.60509 19.7001 8.49808 19.6873 8.40099 19.7206C8.30383 19.7538 8.22278 19.8351 8.15775 19.9642C8.0901 20.0988 8.06639 20.2197 8.08694 20.3265C8.10741 20.4335 8.14631 20.5196 8.20374 20.5853L7.92919 20.9181C7.82691 20.8106 7.75873 20.6946 7.72494 20.5699C7.69115 20.4451 7.6849 20.3176 7.7062 20.1877C7.72742 20.0576 7.76927 19.9306 7.83158 19.8067C7.8729 19.7248 7.92626 19.6424 7.99181 19.56C8.05743 19.4773 8.13593 19.4084 8.22729 19.3533C8.31866 19.2982 8.4244 19.2685 8.54444 19.264C8.66447 19.2597 8.79941 19.2952 8.94918 19.3704L10.3128 20.0566L10.1165 20.447L9.83566 20.3058L9.82768 20.3218C9.86636 20.3737 9.89767 20.4381 9.92153 20.5148C9.94546 20.5916 9.95351 20.6788 9.94561 20.7766C9.93779 20.8742 9.90542 20.9797 9.84853 21.0929L9.8483 21.093ZM9.57105 20.8447C9.62666 20.7341 9.65248 20.6285 9.64849 20.5276C9.6445 20.4266 9.61748 20.3378 9.56751 20.2605C9.51754 20.1835 9.45199 20.1245 9.37086 20.0837L9.1061 19.9505C9.11317 19.9719 9.11257 20.006 9.10421 20.0526C9.09586 20.0992 9.08292 20.1505 9.06523 20.2064C9.04777 20.2623 9.02993 20.3165 9.01202 20.3689C8.99403 20.4212 8.97898 20.465 8.96679 20.5003C8.93759 20.5828 8.91855 20.6617 8.90967 20.7371C8.90079 20.8123 8.90839 20.8799 8.93255 20.9395C8.95678 20.9991 9.0045 21.0469 9.07577 21.0827C9.17473 21.1326 9.26783 21.1336 9.3549 21.0858C9.44198 21.038 9.51408 20.9577 9.57097 20.8445L9.57105 20.8447Z" fill="#085493"/>
<path d="M8.22957 17.9855L8.46107 17.6024L10.322 18.7276C10.3963 18.7724 10.4587 18.795 10.5092 18.7953C10.5598 18.7956 10.6024 18.7819 10.6371 18.7546C10.6717 18.7271 10.7017 18.6924 10.727 18.6505C10.7456 18.6198 10.7597 18.5917 10.7693 18.5662C10.779 18.5404 10.7864 18.5205 10.7916 18.506L11.1498 18.6282C11.145 18.6555 11.1346 18.6924 11.1188 18.7389C11.1029 18.7853 11.0768 18.8394 11.0406 18.9014C10.9813 19.0032 10.9066 19.0862 10.8164 19.1507C10.7262 19.215 10.6255 19.2503 10.5144 19.2567C10.4034 19.263 10.2884 19.2302 10.1698 19.1584L8.22949 17.9853L8.22957 17.9855ZM9.17625 17.4839L9.48369 17.6699L8.83397 18.7444L8.52662 18.5586L9.17625 17.4839Z" fill="#085493"/>
<path d="M9.32658 16.6197C9.28293 16.6841 9.22392 16.7246 9.14942 16.7411C9.07506 16.7576 9.0077 16.7454 8.94734 16.7045C8.88616 16.6631 8.84936 16.6049 8.83709 16.5298C8.82475 16.4544 8.8404 16.3845 8.88398 16.3202C8.9277 16.2558 8.98663 16.2152 9.06106 16.1988C9.13549 16.1823 9.20292 16.1945 9.26328 16.2354C9.32439 16.2767 9.36119 16.335 9.37346 16.4103C9.3858 16.4854 9.37023 16.5554 9.32658 16.6197ZM11.3973 18.2944L9.49358 17.0057L9.74449 16.6352L11.6481 17.9238L11.3973 18.2944Z" fill="#085493"/>
<path d="M12.5873 16.7292C12.4542 16.8989 12.2992 17.0163 12.1222 17.0814C11.9453 17.1468 11.7597 17.1596 11.5652 17.1198C11.3706 17.0799 11.18 16.9866 10.9932 16.8399C10.8057 16.6927 10.6691 16.529 10.5836 16.3489C10.4979 16.1686 10.4659 15.9849 10.4874 15.7975C10.509 15.6103 10.5863 15.4318 10.7194 15.2623C10.8525 15.0929 11.0075 14.9755 11.1845 14.9101C11.3614 14.8447 11.5475 14.8324 11.7428 14.8728C11.9381 14.9134 12.1295 15.0071 12.3171 15.1544C12.5038 15.3011 12.6396 15.4643 12.7244 15.6438C12.8092 15.8234 12.841 16.0067 12.8194 16.1941C12.7978 16.3815 12.7205 16.5597 12.5873 16.7292ZM12.2928 16.4961C12.3791 16.3863 12.4215 16.2723 12.4202 16.1546C12.4188 16.0369 12.3836 15.9225 12.3145 15.8118C12.2454 15.7011 12.1529 15.6002 12.0367 15.5089C11.9214 15.4184 11.8016 15.3525 11.6772 15.3112C11.5529 15.27 11.4329 15.2624 11.3174 15.2884C11.2019 15.3144 11.101 15.3823 11.0147 15.4921C10.9278 15.6028 10.8853 15.7174 10.8872 15.8364C10.889 15.9551 10.9246 16.07 10.9941 16.181C11.0636 16.2922 11.1561 16.3928 11.2714 16.4834C11.3876 16.5747 11.5076 16.6409 11.6315 16.6817C11.7554 16.7226 11.8749 16.7295 11.9901 16.7024C12.1051 16.6756 12.2061 16.6068 12.293 16.4961H12.2928Z" fill="#085493"/>
<path d="M12.8233 14.2707L13.8073 15.2164L13.4973 15.5392L11.8398 13.9461L12.1375 13.6364L12.4072 13.8956L12.4269 13.8751C12.3758 13.7528 12.3629 13.6251 12.3881 13.4922C12.4133 13.3594 12.4858 13.2308 12.6054 13.1063C12.7139 12.9934 12.8327 12.9171 12.9613 12.8776C13.09 12.8379 13.2232 12.8394 13.3611 12.8819C13.4987 12.9242 13.636 13.0113 13.7727 13.1425L14.8269 14.1557L14.5168 14.4784L13.5014 13.5025C13.3813 13.387 13.2572 13.328 13.1291 13.3252C13.0009 13.3225 12.8844 13.3758 12.7793 13.485C12.7074 13.5598 12.6597 13.6417 12.6365 13.7308C12.6132 13.8199 12.6166 13.9111 12.6468 14.0044C12.6767 14.0976 12.7357 14.1864 12.8236 14.2707L12.8233 14.2707Z" fill="#085493"/>
<path d="M15.991 10.2424C15.8919 10.1401 15.7726 10.0934 15.633 10.1022C15.4935 10.1109 15.3544 10.169 15.2153 10.2762C15.1158 10.353 15.0417 10.4351 14.9932 10.5224C14.9446 10.6097 14.9213 10.6958 14.9232 10.7807C14.9251 10.8656 14.9526 10.9423 15.0057 11.011C15.0502 11.0688 15.1022 11.108 15.1618 11.1287C15.2214 11.1496 15.2843 11.1568 15.3505 11.1503C15.4168 11.144 15.4827 11.1302 15.5484 11.109C15.6141 11.088 15.6752 11.0651 15.7317 11.0402L16.0163 10.919C16.1082 10.8781 16.2073 10.8425 16.3138 10.8121C16.42 10.7817 16.5285 10.7661 16.6387 10.7652C16.7491 10.7645 16.856 10.7867 16.9594 10.8315C17.0628 10.8765 17.1566 10.9535 17.2407 11.0624C17.3468 11.1999 17.4057 11.3491 17.4174 11.5103C17.4292 11.6715 17.3918 11.8346 17.3055 11.9995C17.2193 12.1645 17.0813 12.3202 16.8918 12.4666C16.7102 12.6067 16.5308 12.6993 16.3536 12.7442C16.1765 12.789 16.0094 12.7872 15.8523 12.7391C15.6953 12.6909 15.5564 12.5966 15.4356 12.4565L15.8029 12.173C15.8777 12.2551 15.9625 12.306 16.0575 12.3252C16.1525 12.3444 16.2502 12.3378 16.3503 12.3052C16.4506 12.2725 16.5477 12.2198 16.6417 12.1473C16.7451 12.0674 16.8246 11.9797 16.8802 11.8845C16.9359 11.7893 16.9643 11.6943 16.9654 11.5993C16.9667 11.5045 16.9367 11.4178 16.8757 11.3387C16.8203 11.2668 16.7545 11.2238 16.6785 11.2093C16.6024 11.195 16.5182 11.1995 16.426 11.2227C16.3337 11.2461 16.2353 11.2799 16.1308 11.3242L15.7838 11.4673C15.5486 11.5643 15.3348 11.6053 15.1422 11.5902C14.9496 11.5752 14.7881 11.4831 14.6576 11.3142C14.5496 11.1744 14.4933 11.023 14.4886 10.8603C14.484 10.6976 14.5239 10.537 14.6087 10.379C14.6934 10.2208 14.817 10.0792 14.9797 9.95348C15.144 9.8266 15.3113 9.74344 15.4818 9.70377C15.6523 9.66426 15.8127 9.6666 15.9631 9.71115C16.1135 9.75585 16.2407 9.84195 16.3444 9.96989L15.9914 10.2424H15.991Z" fill="#085493"/>
<path d="M18.996 11.0053C18.8035 11.1247 18.6124 11.1861 18.4225 11.1895C18.2326 11.1929 18.0534 11.1426 17.8849 11.0386C17.7164 10.9347 17.5695 10.7816 17.4437 10.579C17.3196 10.3788 17.2476 10.1793 17.2279 9.98005C17.2082 9.78099 17.2393 9.59653 17.3215 9.42705C17.4036 9.25741 17.5353 9.11645 17.7167 9.00386C17.8269 8.93538 17.945 8.88729 18.0711 8.85952C18.1972 8.8319 18.3255 8.83145 18.4561 8.85846C18.5867 8.88533 18.7144 8.94622 18.8389 9.04089C18.9635 9.13557 19.0807 9.27149 19.1907 9.4488L19.2743 9.58344L17.7218 10.5473L17.5449 10.2624L18.725 9.53C18.6629 9.42991 18.5874 9.35374 18.4986 9.30159C18.4097 9.24913 18.3147 9.2234 18.2135 9.224C18.1123 9.2246 18.0125 9.25531 17.9141 9.31634C17.8072 9.38279 17.7305 9.46656 17.6836 9.56786C17.6366 9.66931 17.6177 9.77497 17.6268 9.88507C17.6357 9.99518 17.6705 10.099 17.731 10.1963L17.8692 10.419C17.9502 10.5495 18.0422 10.6462 18.1452 10.7091C18.2483 10.7719 18.3562 10.8016 18.469 10.7977C18.5818 10.7942 18.6938 10.7579 18.8048 10.689C18.8768 10.6441 18.9361 10.593 18.9826 10.5354C19.029 10.4779 19.061 10.4148 19.0784 10.3465C19.0958 10.2782 19.0971 10.2063 19.0821 10.1312L19.4822 9.9726C19.5191 10.0965 19.5251 10.221 19.5001 10.3464C19.4751 10.4716 19.4204 10.5907 19.3361 10.7034C19.2517 10.8165 19.1383 10.917 18.9958 11.0055L18.996 11.0053Z" fill="#085493"/>
<path d="M21.0777 9.85302C20.8785 9.95191 20.6846 9.99164 20.4961 9.97208C20.3076 9.95266 20.1352 9.88199 19.9789 9.76015C19.8226 9.6383 19.6933 9.47424 19.5908 9.26772C19.487 9.05873 19.4347 8.8544 19.4336 8.65489C19.4326 8.45545 19.4812 8.27505 19.5795 8.11385C19.6777 7.95264 19.8237 7.8238 20.0176 7.72754C20.1739 7.64995 20.3278 7.60954 20.4788 7.60645C20.6299 7.60337 20.7689 7.63482 20.8958 7.70113C21.0229 7.76728 21.1278 7.86602 21.2109 7.9975L20.8208 8.19107C20.7515 8.10519 20.6612 8.04627 20.5502 8.01466C20.4391 7.98275 20.3198 7.99863 20.192 8.06215C20.0803 8.11754 19.9971 8.19536 19.9427 8.2953C19.8882 8.39539 19.8644 8.51062 19.8715 8.64149C19.8785 8.77229 19.9184 8.91092 19.9911 9.0576C20.0656 9.20767 20.1527 9.32598 20.2525 9.4123C20.3521 9.4987 20.4586 9.55123 20.5719 9.56959C20.6852 9.58795 20.7986 9.56899 20.9122 9.51269C20.9881 9.47491 21.0501 9.42652 21.0983 9.36744C21.1464 9.30852 21.1786 9.24221 21.1949 9.16838C21.2112 9.09455 21.2094 9.01628 21.1896 8.9338L21.5798 8.74008C21.6316 8.88044 21.6472 9.0208 21.6267 9.16123C21.6063 9.30174 21.5502 9.43202 21.4589 9.5519C21.3676 9.67179 21.2406 9.77241 21.0779 9.85309L21.0777 9.85302Z" fill="#085493"/>
<path d="M23.2998 7.81733L22.8183 6.56103L23.2375 6.40035L24.0604 8.54682L23.6494 8.70441L23.5069 8.33255L23.4846 8.34121C23.479 8.47464 23.4366 8.60017 23.3573 8.7178C23.2777 8.83536 23.1575 8.92492 22.9963 8.98678C22.8584 9.03954 22.725 9.05587 22.5958 9.03532C22.4667 9.01493 22.349 8.95592 22.2428 8.85877C22.1367 8.76161 22.0497 8.62463 21.9819 8.44747L21.4585 7.0822L21.8764 6.92197L22.3804 8.23712C22.4365 8.38335 22.5217 8.4842 22.6359 8.53974C22.7502 8.59543 22.8722 8.59837 23.0016 8.5487C23.0798 8.51874 23.1504 8.46915 23.2132 8.40021C23.276 8.33127 23.3182 8.24736 23.3395 8.14824C23.3607 8.04935 23.3476 7.93895 23.2999 7.81725L23.2998 7.81733Z" fill="#085493"/>
<path d="M24.5803 8.39005L23.9336 6.18405L24.3486 6.06251L24.4514 6.41292L24.4744 6.40614C24.4798 6.27564 24.5234 6.1611 24.6054 6.06288C24.6872 5.96452 24.7928 5.89634 24.922 5.85841C24.9488 5.85058 24.981 5.84222 25.0184 5.83327C25.0558 5.82446 25.0855 5.81829 25.1074 5.81506L25.2279 6.22575C25.2092 6.22605 25.177 6.22958 25.1311 6.23621C25.0853 6.24283 25.0403 6.25269 24.9963 6.26578C24.8947 6.29551 24.8107 6.34307 24.7442 6.40893C24.6777 6.47463 24.6325 6.55192 24.6085 6.64042C24.5847 6.72923 24.5868 6.82135 24.6148 6.91708L25.0097 8.26422L24.5803 8.39005Z" fill="#085493"/>
<path d="M25.7126 5.33249C25.6369 5.3504 25.5661 5.34032 25.5001 5.30209C25.4341 5.26386 25.3927 5.20937 25.376 5.13832C25.359 5.0666 25.3714 4.99872 25.4132 4.93505C25.4551 4.87138 25.5138 4.83036 25.5896 4.81245C25.6653 4.79469 25.7361 4.80462 25.8021 4.84286C25.8681 4.88109 25.9094 4.93573 25.9261 5.00662C25.9432 5.07834 25.9308 5.14623 25.8889 5.21005C25.8471 5.27372 25.7884 5.31458 25.7126 5.33249ZM26.1041 7.96657L25.5745 5.72964L26.0099 5.62646L26.5396 7.86354L26.1041 7.96657Z" fill="#085493"/>
<path d="M27.7323 5.28689L27.7968 5.64023L26.5616 5.86601L26.4971 5.51266L27.7323 5.28689ZM26.7292 4.91029L27.1695 4.82991L27.5605 6.96908C27.5762 7.0545 27.6006 7.11621 27.634 7.15414C27.6673 7.19222 27.7057 7.21518 27.7492 7.22293C27.7927 7.23068 27.8386 7.23015 27.8867 7.22135C27.922 7.21503 27.9524 7.20682 27.9781 7.19712C28.0037 7.18726 28.0236 7.17966 28.0378 7.17401L28.1837 7.52299C28.1599 7.53766 28.1255 7.5543 28.0802 7.57311C28.035 7.59208 27.9772 7.60856 27.9066 7.62233C27.7912 7.64559 27.6795 7.64468 27.5715 7.61985C27.4635 7.59501 27.3702 7.54301 27.2919 7.46406C27.2136 7.38511 27.1619 7.27742 27.137 7.14082L26.7292 4.91036L26.7292 4.91029Z" fill="#085493"/>
<path d="M28.9473 8.30328C28.8808 8.31005 28.8197 8.31118 28.7641 8.30636C28.7084 8.30155 28.6666 8.29462 28.6385 8.28537L28.7082 7.90967C28.7917 7.92307 28.8653 7.9251 28.9285 7.91554C28.9917 7.90598 29.0456 7.87633 29.09 7.82659C29.1345 7.77691 29.1705 7.69955 29.1978 7.59449L29.2373 7.43689L28.1621 5.20643L28.6384 5.15752L29.4003 6.87245L29.4241 6.86996L29.8205 5.03567L30.2985 4.9866L29.6229 7.67554C29.5915 7.79919 29.5462 7.90591 29.4873 7.99569C29.4283 8.08548 29.3544 8.15607 29.2653 8.20732C29.1764 8.25865 29.0703 8.29063 28.9472 8.30328H28.9473Z" fill="#085493"/>
<path d="M32.184 4.14626L32.7442 4.1817L33.5674 6.62131L33.6033 6.62349L34.7277 4.30739L35.2878 4.34283L35.094 7.40182L34.6549 7.37405L34.7951 5.16038L34.7668 5.15864L33.7246 7.31061L33.3601 7.2875L32.598 5.01987L32.5697 5.01799L32.4293 7.23302L31.9902 7.20539L32.184 4.14641L32.184 4.14626Z" fill="#085493"/>
<path d="M36.2844 7.68239C36.1412 7.65567 36.0167 7.60465 35.911 7.52969C35.8052 7.45458 35.7283 7.35975 35.6802 7.24528C35.632 7.13081 35.6218 6.99934 35.6494 6.85138C35.6732 6.72396 35.7173 6.62342 35.7818 6.55034C35.8462 6.47696 35.9245 6.42405 36.0169 6.39162C36.1093 6.35911 36.2092 6.34029 36.3167 6.33502C36.4243 6.32975 36.5327 6.33058 36.642 6.33781C36.7803 6.34736 36.8926 6.35489 36.9789 6.36031C37.0652 6.36573 37.1296 6.36031 37.1722 6.34398C37.2148 6.3275 37.2411 6.2928 37.251 6.23989L37.2529 6.22958C37.2769 6.10097 37.2595 5.99485 37.2006 5.91079C37.1416 5.82657 37.0411 5.77126 36.8988 5.74484C36.7507 5.71707 36.6281 5.72806 36.5312 5.7775C36.4341 5.82687 36.3621 5.88821 36.3148 5.96166L35.919 5.7903C35.9936 5.66213 36.0863 5.56452 36.1967 5.49731C36.3072 5.4301 36.4277 5.38871 36.5586 5.37298C36.6894 5.3574 36.8231 5.36222 36.9593 5.38766C37.0495 5.40444 37.1434 5.43296 37.241 5.47293C37.3387 5.51304 37.4266 5.56933 37.5049 5.64181C37.5832 5.71428 37.6413 5.80761 37.6788 5.9217C37.7163 6.03579 37.7198 6.1751 37.6891 6.33991L37.4089 7.84066L36.9793 7.76043L37.037 7.45149L37.0194 7.44826C36.9803 7.49988 36.9272 7.54775 36.8602 7.592C36.7929 7.6364 36.7114 7.66831 36.6153 7.68796C36.5193 7.70752 36.4091 7.70572 36.2845 7.68254L36.2844 7.68239ZM36.4459 7.34711C36.5675 7.36976 36.6763 7.36517 36.772 7.33326C36.8678 7.3015 36.9458 7.25078 37.0059 7.18139C37.0661 7.11185 37.1045 7.03245 37.1212 6.94327L37.1755 6.65194C37.1569 6.66473 37.124 6.67354 37.0769 6.67858C37.0298 6.6834 36.9769 6.6852 36.9184 6.684C36.8598 6.68264 36.8027 6.68061 36.7475 6.67783C36.6921 6.67519 36.6459 6.67286 36.6086 6.67105C36.5213 6.66594 36.4402 6.66955 36.3653 6.68197C36.2904 6.69439 36.2278 6.7205 36.1772 6.76016C36.1266 6.79997 36.094 6.8592 36.0793 6.93755C36.0589 7.04645 36.0839 7.13616 36.1539 7.20652C36.2241 7.27697 36.3214 7.32393 36.4459 7.34711Z" fill="#085493"/>
<path d="M38.7334 6.77288L38.3553 8.08435L37.9253 7.96032L38.5622 5.75146L38.9749 5.87052L38.8713 6.23003L38.8985 6.23786C38.983 6.13558 39.09 6.06469 39.2192 6.02503C39.3485 5.98552 39.4961 5.98958 39.662 6.03752C39.8125 6.08087 39.9352 6.15026 40.0303 6.24569C40.1253 6.34112 40.1862 6.45958 40.2128 6.60129C40.2394 6.743 40.2266 6.90481 40.174 7.08694L39.7688 8.49203L39.3389 8.36815L39.7291 7.01484C39.7753 6.85476 39.7697 6.71734 39.7124 6.60264C39.6551 6.48795 39.5537 6.40968 39.4079 6.36761C39.3082 6.33893 39.2135 6.3351 39.1239 6.35602C39.0344 6.37672 38.9553 6.42232 38.8868 6.49239C38.8183 6.56238 38.7672 6.656 38.7335 6.77303L38.7334 6.77288Z" fill="#085493"/>
<path d="M40.8732 8.95916C40.7378 8.90565 40.6253 8.8319 40.5358 8.73797C40.4464 8.64405 40.3889 8.53628 40.3635 8.41474C40.3382 8.29304 40.3531 8.16224 40.4087 8.02211C40.4563 7.90154 40.5188 7.81146 40.596 7.75178C40.6732 7.69225 40.7603 7.65537 40.8571 7.64107C40.9539 7.62685 41.0558 7.62722 41.1623 7.64258C41.2689 7.658 41.3752 7.6796 41.481 7.70768C41.6149 7.74342 41.7238 7.77217 41.8074 7.79392C41.8909 7.81582 41.9553 7.82275 42.0003 7.81477C42.0452 7.80679 42.0776 7.77774 42.0976 7.72762L42.1014 7.71791C42.1495 7.59637 42.1526 7.48875 42.1108 7.39497C42.069 7.3012 41.9808 7.22767 41.8463 7.17446C41.7063 7.11907 41.5838 7.10628 41.4792 7.13623C41.3745 7.16619 41.2921 7.2127 41.2317 7.27576L40.8759 7.03192C40.9736 6.92039 41.0831 6.84227 41.2044 6.79749C41.3256 6.75271 41.4521 6.73503 41.5834 6.74458C41.7148 6.75414 41.845 6.78455 41.9739 6.83542C42.0593 6.86921 42.1461 6.91512 42.2342 6.97315C42.3223 7.0311 42.3979 7.10297 42.461 7.18906C42.5241 7.27516 42.563 7.37781 42.5782 7.49702C42.5933 7.61624 42.5701 7.75366 42.5083 7.90945L41.9468 9.32906L41.5404 9.16823L41.656 8.876L41.6393 8.86938C41.5911 8.91243 41.5298 8.94945 41.4555 8.98008C41.3812 9.01079 41.2949 9.02667 41.1969 9.02757C41.0989 9.02848 40.991 9.00567 40.8732 8.95909L40.8732 8.95916ZM41.0958 8.66091C41.2108 8.70644 41.3185 8.72262 41.4185 8.70968C41.5185 8.69673 41.6048 8.66189 41.6772 8.60514C41.7495 8.5484 41.8023 8.47788 41.8357 8.39351L41.9447 8.11791C41.9239 8.12687 41.8899 8.1292 41.8428 8.12514C41.7957 8.12107 41.7434 8.1128 41.6862 8.10015C41.6289 8.08766 41.5733 8.07487 41.5195 8.06162C41.4657 8.04837 41.4208 8.03724 41.3846 8.02843C41.2998 8.00668 41.2195 7.99479 41.1437 7.99253C41.0677 7.9905 41.0012 8.00412 40.944 8.03355C40.8868 8.06297 40.8434 8.11468 40.814 8.18888C40.7733 8.29191 40.7806 8.38471 40.836 8.46727C40.8912 8.54975 40.9779 8.61425 41.0957 8.66083L41.0958 8.66091Z" fill="#085493"/>
<path d="M42.8697 10.7919C42.7073 10.7086 42.5787 10.6155 42.4839 10.513C42.3891 10.4105 42.3228 10.3052 42.2851 10.1973C42.2473 10.0893 42.2318 9.98434 42.2382 9.88214L42.6529 9.91668C42.6568 9.96816 42.6676 10.026 42.6855 10.0907C42.7033 10.1555 42.7391 10.221 42.7929 10.2881C42.8466 10.3548 42.9285 10.4166 43.0385 10.4732C43.1894 10.5504 43.333 10.578 43.4691 10.5553C43.6053 10.5327 43.7143 10.4415 43.7963 10.2818L44.0028 9.87958L43.9776 9.86664C43.9313 9.89779 43.872 9.9285 43.7999 9.95868C43.7277 9.98908 43.6425 10.0037 43.5444 10.0025C43.4462 10.0016 43.3345 9.96884 43.2094 9.90457C43.0479 9.82163 42.922 9.70904 42.8317 9.56696C42.7416 9.42464 42.6972 9.26005 42.6984 9.0728C42.6998 8.88571 42.7563 8.68326 42.868 8.46591C42.9795 8.24849 43.1125 8.08111 43.2662 7.96378C43.4201 7.8466 43.5831 7.77962 43.7554 7.76329C43.9275 7.74681 44.0956 7.7806 44.2599 7.86504C44.3869 7.93014 44.4786 8.00397 44.535 8.08623C44.5914 8.16841 44.6273 8.24879 44.6425 8.32728C44.6578 8.40578 44.6664 8.47254 44.6685 8.52732L44.6978 8.54245L44.8682 8.21086L45.2582 8.4112L44.185 10.5014C44.0947 10.6772 43.9797 10.8004 43.8403 10.8712C43.7008 10.942 43.5476 10.9688 43.3809 10.9516C43.2142 10.9343 43.0438 10.8811 42.8699 10.7918L42.8697 10.7919ZM43.4667 9.61964C43.5812 9.67841 43.692 9.70137 43.799 9.68842C43.906 9.67548 44.006 9.62934 44.099 9.5498C44.1919 9.4701 44.2747 9.35977 44.3472 9.21865C44.4178 9.08123 44.4596 8.94953 44.4725 8.82385C44.4855 8.69816 44.4676 8.58542 44.419 8.48593C44.3703 8.38644 44.2878 8.30659 44.1715 8.24706C44.0517 8.1855 43.936 8.16503 43.8245 8.1858C43.7129 8.20634 43.6098 8.25918 43.5152 8.34414C43.4206 8.42896 43.3398 8.53673 43.2728 8.66708C43.204 8.80127 43.1639 8.92913 43.1529 9.05143C43.1417 9.17357 43.1617 9.28368 43.2129 9.38174C43.264 9.4798 43.3487 9.5589 43.4667 9.61964Z" fill="#085493"/>
<path d="M45.4712 11.3003C45.281 11.1773 45.1438 11.0309 45.0596 10.8605C44.9755 10.6903 44.9443 10.5069 44.9663 10.3102C44.9883 10.1136 45.064 9.9151 45.1935 9.71476C45.3212 9.51691 45.4711 9.36669 45.6427 9.26381C45.8143 9.16093 45.9944 9.11036 46.1827 9.11209C46.3711 9.11382 46.5548 9.17267 46.7342 9.28849C46.8431 9.35894 46.9371 9.44518 47.0161 9.54731C47.095 9.64944 47.1501 9.76526 47.1816 9.89493C47.213 10.0245 47.2126 10.166 47.1801 10.319C47.1477 10.472 47.0749 10.6362 46.9617 10.8113L46.8756 10.9446L45.3408 9.95251L45.5229 9.67104L46.6892 10.425C46.7532 10.3261 46.7898 10.2254 46.7991 10.1226C46.8084 10.0198 46.7913 9.923 46.7474 9.83172C46.7035 9.74043 46.6331 9.66344 46.5359 9.60052C46.4303 9.53233 46.3217 9.49862 46.21 9.49952C46.0984 9.50042 45.9947 9.5285 45.8991 9.58374C45.8034 9.63883 45.7245 9.71469 45.6622 9.81102L45.52 10.0309C45.4365 10.16 45.3884 10.2846 45.3757 10.4046C45.3628 10.5247 45.3821 10.6348 45.4337 10.7354C45.4852 10.8357 45.5658 10.9215 45.6756 10.9923C45.7468 11.0384 45.8184 11.0702 45.8903 11.0876C45.9624 11.1049 46.033 11.107 46.1021 11.0934C46.1714 11.08 46.2369 11.0504 46.2985 11.0048L46.6128 11.2986C46.5166 11.385 46.4066 11.4437 46.2825 11.4747C46.1586 11.5056 46.0275 11.5071 45.8894 11.479C45.7513 11.4509 45.6119 11.3914 45.4711 11.3004L45.4712 11.3003Z" fill="#085493"/>
<path d="M46.6768 12.0164L48.1504 10.2521L48.48 10.5274L48.2402 10.8146L48.262 10.8328C48.3799 10.7662 48.5036 10.7405 48.6327 10.7555C48.762 10.7705 48.8849 10.8265 49.0012 10.9237C49.1191 11.0222 49.1951 11.1325 49.229 11.2544C49.263 11.3764 49.2588 11.5016 49.2165 11.6301L49.2349 11.6454C49.3557 11.5865 49.4855 11.5672 49.6244 11.5876C49.7634 11.608 49.8963 11.6714 50.0235 11.7775C50.1835 11.9112 50.2724 12.0706 50.2901 12.2557C50.3078 12.4407 50.2322 12.6344 50.0633 12.8366L49.0751 14.0197L48.7316 13.7329L49.6929 12.5819C49.7928 12.4624 49.8324 12.3488 49.8121 12.2408C49.7918 12.1328 49.7365 12.041 49.6461 11.9656C49.5343 11.8723 49.4187 11.8339 49.2995 11.8507C49.1803 11.8675 49.0759 11.9293 48.9864 12.0367L48.0472 13.1611L47.7048 12.8752L48.6844 11.7025C48.7643 11.6067 48.7988 11.5048 48.7876 11.3968C48.7765 11.2888 48.7231 11.1947 48.6273 11.1147C48.5622 11.0602 48.4881 11.0273 48.4049 11.0157C48.3217 11.004 48.2381 11.0145 48.1543 11.0472C48.0706 11.08 47.9953 11.1361 47.9288 11.2156L47.0203 12.3035L46.6768 12.0166L46.6768 12.0164Z" fill="#085493"/>
<path d="M50.0644 15.154C49.9096 14.9886 49.812 14.8133 49.7714 14.6276C49.731 14.4421 49.7453 14.2566 49.8141 14.071C49.8831 13.8855 50.0045 13.7115 50.1787 13.5483C50.3506 13.3875 50.5322 13.2778 50.7237 13.2195C50.9152 13.1613 51.1019 13.1557 51.2844 13.203C51.4667 13.2504 51.6309 13.352 51.7768 13.5079C51.8655 13.6026 51.9356 13.709 51.9875 13.8273C52.0394 13.9453 52.0649 14.0711 52.0641 14.2047C52.0632 14.3379 52.0285 14.475 51.96 14.6158C51.8915 14.7563 51.7811 14.898 51.6288 15.0405L51.513 15.1489L50.2642 13.8148L50.5089 13.5856L51.458 14.5996C51.544 14.5192 51.6039 14.4303 51.6379 14.333C51.6718 14.2355 51.6785 14.1373 51.6583 14.0381C51.6379 13.9391 51.5881 13.8473 51.5091 13.7628C51.4231 13.6709 51.3258 13.612 51.2173 13.5858C51.1088 13.5596 51.0014 13.5617 50.8953 13.5921C50.7891 13.6224 50.694 13.6768 50.6104 13.7553L50.4192 13.9343C50.307 14.0393 50.2301 14.1485 50.1887 14.2619C50.1472 14.3752 50.1392 14.4869 50.165 14.5967C50.1906 14.7066 50.2481 14.8094 50.3375 14.9048C50.3955 14.9667 50.4572 15.0147 50.5228 15.049C50.5883 15.0834 50.6563 15.1023 50.7269 15.106C50.7974 15.1099 50.868 15.0969 50.9389 15.0675L51.1725 15.429C51.0583 15.4894 50.9373 15.5197 50.8096 15.5197C50.6819 15.5197 50.5543 15.4893 50.4272 15.4287C50.3 15.3679 50.179 15.2766 50.0646 15.1541L50.0644 15.154Z" fill="#085493"/>
<path d="M52.402 15.697L51.3184 16.527L51.0464 16.1717L52.8713 14.7738L53.1325 15.1147L52.8355 15.3423L52.8528 15.3649C52.9815 15.3328 53.1096 15.3393 53.2371 15.3843C53.3645 15.4293 53.4808 15.5203 53.5858 15.6574C53.6811 15.7816 53.7385 15.9105 53.7583 16.0437C53.778 16.1769 53.7565 16.3083 53.6939 16.4382C53.6311 16.5679 53.5244 16.6905 53.3739 16.8057L52.2132 17.695L51.9411 17.3397L53.059 16.4831C53.1913 16.3818 53.2684 16.2681 53.2905 16.1418C53.3125 16.0155 53.2775 15.8923 53.1853 15.7719C53.1222 15.6895 53.0484 15.63 52.9639 15.5936C52.8794 15.5571 52.7889 15.5468 52.6922 15.5624C52.5954 15.578 52.4987 15.623 52.4021 15.6969L52.402 15.697Z" fill="#085493"/>
<path d="M54.9868 16.7329L55.2296 17.1089L53.4026 18.2882C53.3297 18.3353 53.2819 18.3815 53.2596 18.4268C53.2372 18.4723 53.2308 18.5165 53.2402 18.5598C53.2496 18.6028 53.2677 18.645 53.2942 18.686C53.3137 18.7161 53.3329 18.7413 53.3517 18.7613C53.3705 18.7812 53.3852 18.7966 53.3958 18.8076L53.1291 19.076C53.1066 19.0595 53.078 19.034 53.0432 18.9995C53.0084 18.965 52.9711 18.9178 52.9314 18.8579C52.8658 18.76 52.8239 18.6565 52.8056 18.5472C52.7872 18.4378 52.7996 18.332 52.8426 18.2294C52.8856 18.1268 52.9655 18.0378 53.082 17.9626L54.9869 16.7328L54.9868 16.7329ZM55.0225 17.8038L54.7207 17.9985L54.0396 16.9436L54.3415 16.7486L55.0225 17.8038Z" fill="#085493"/>
<path d="M56.6295 20.8993C56.7494 20.8221 56.8187 20.7142 56.8375 20.5757C56.8564 20.4374 56.8269 20.2894 56.7489 20.1321C56.6931 20.0193 56.6272 19.9307 56.5511 19.8659C56.475 19.8011 56.3953 19.7613 56.3117 19.7465C56.228 19.7317 56.1473 19.7434 56.0695 19.782C56.0043 19.8145 55.9556 19.8577 55.9235 19.9119C55.8914 19.9664 55.8718 20.0266 55.8653 20.0929C55.8585 20.159 55.859 20.2264 55.8669 20.295C55.8746 20.3635 55.885 20.4279 55.8983 20.4881L55.9613 20.7909C55.9832 20.8893 55.9987 20.9934 56.0076 21.1037C56.0165 21.2139 56.0105 21.3233 55.9896 21.4316C55.9687 21.5399 55.926 21.6403 55.8616 21.7329C55.7973 21.8255 55.7033 21.9024 55.5799 21.9634C55.4244 22.0403 55.2664 22.0687 55.1061 22.0485C54.9458 22.0283 54.7932 21.9597 54.6484 21.8427C54.5036 21.7255 54.3781 21.5597 54.2718 21.3453C54.1699 21.1396 54.1145 20.9454 54.1054 20.763C54.0963 20.5804 54.1309 20.4169 54.2091 20.2723C54.2873 20.1279 54.4068 20.0102 54.5679 19.9194L54.7737 20.3352C54.6785 20.3924 54.612 20.4655 54.5744 20.555C54.5369 20.6442 54.5242 20.7412 54.5365 20.846C54.5488 20.9507 54.5813 21.0562 54.634 21.1626C54.692 21.2798 54.7622 21.375 54.8447 21.4482C54.9272 21.5214 55.0148 21.568 55.1075 21.5878C55.2002 21.6075 55.2914 21.5953 55.3808 21.5511C55.4622 21.5108 55.5174 21.4547 55.5464 21.383C55.5755 21.3112 55.5876 21.2278 55.5828 21.1328C55.5781 21.0378 55.5643 20.9346 55.5415 20.8234L55.4694 20.455C55.4204 20.2054 55.4222 19.9876 55.4749 19.8018C55.5275 19.6158 55.6496 19.4756 55.841 19.3809C55.9992 19.3024 56.1586 19.277 56.3191 19.3043C56.4797 19.3318 56.6291 19.4025 56.7674 19.5165C56.9058 19.6305 57.0205 19.7798 57.1117 19.9639C57.2038 20.1501 57.2525 20.3304 57.2578 20.5053C57.2632 20.6802 57.2292 20.837 57.1559 20.9758C57.0826 21.1146 56.9731 21.2221 56.8273 21.2987L56.6295 20.899V20.8993Z" fill="#085493"/>
<path d="M54.253 23.3181C54.2302 23.2553 54.2144 23.1962 54.2056 23.1411C54.1968 23.0858 54.1934 23.0436 54.1954 23.0142L54.5768 22.9906C54.584 23.0749 54.5999 23.1467 54.6246 23.2056C54.6491 23.2647 54.6909 23.3098 54.75 23.341C54.809 23.3721 54.8928 23.3882 55.0015 23.3891H55.1638L57.0667 21.8049L57.2298 22.2551L55.751 23.4104L55.7591 23.4329L57.6347 23.3724L57.7984 23.8241L55.0259 23.8212C54.8984 23.8206 54.7838 23.8027 54.6825 23.7674C54.581 23.7319 54.4946 23.6773 54.4233 23.6033C54.3519 23.5293 54.2953 23.4343 54.253 23.318V23.3181Z" fill="#085493"/>
<path d="M57.8503 26.1759L57.6778 25.8018C57.7237 25.7722 57.7647 25.7339 57.8009 25.6867C57.837 25.6397 57.8618 25.5823 57.8749 25.5149C57.8881 25.4475 57.8831 25.369 57.8596 25.2793C57.8275 25.1567 57.7733 25.0614 57.6973 24.9937C57.6212 24.9259 57.5403 24.9034 57.4544 24.9259C57.3801 24.9455 57.3274 24.9886 57.2965 25.0556C57.2655 25.1224 57.2516 25.221 57.2548 25.3511L57.2663 25.7256C57.2726 25.9426 57.2397 26.1143 57.1677 26.2406C57.0955 26.3665 56.9807 26.4503 56.8234 26.4915C56.6902 26.5265 56.5617 26.5192 56.4379 26.4697C56.314 26.4202 56.2047 26.3348 56.1101 26.2137C56.0155 26.0926 55.9446 25.9422 55.8976 25.7627C55.8323 25.5137 55.8323 25.2967 55.8977 25.1113C55.9631 24.9261 56.0896 24.7899 56.2771 24.7025L56.4505 25.1041C56.3483 25.1588 56.28 25.2339 56.2458 25.3295C56.2116 25.4251 56.2116 25.5381 56.2457 25.6684C56.2828 25.8102 56.3422 25.9159 56.4239 25.9853C56.5055 26.0547 56.5893 26.0782 56.6752 26.0556C56.7446 26.0374 56.7962 25.9962 56.8301 25.9322C56.8638 25.8681 56.8788 25.78 56.8752 25.6673L56.859 25.2694C56.8519 25.0494 56.887 24.8765 56.9643 24.7505C57.0416 24.6244 57.1594 24.5408 57.3177 24.4991C57.449 24.4647 57.5734 24.4714 57.6911 24.5189C57.8087 24.5665 57.9123 24.6476 58.0017 24.7624C58.0912 24.877 58.1577 25.018 58.2015 25.185C58.2644 25.4253 58.2622 25.628 58.1946 25.7932C58.1271 25.9584 58.0121 26.0861 57.8502 26.176L57.8503 26.1759Z" fill="#085493"/>
<path d="M59.0896 26.7291L59.1701 27.1693L57.0309 27.5602C56.9454 27.576 56.8838 27.6005 56.8457 27.6338C56.8077 27.6671 56.7847 27.7055 56.7771 27.749C56.7692 27.7925 56.7698 27.8384 56.7786 27.8864C56.785 27.9217 56.7931 27.9521 56.8029 27.9778C56.8127 28.0034 56.8203 28.0233 56.826 28.0375L56.4769 28.1835C56.4624 28.1598 56.4457 28.1253 56.4268 28.08C56.4078 28.0348 56.3915 27.9769 56.3776 27.9065C56.3544 27.791 56.3553 27.6792 56.3802 27.5712C56.4051 27.4631 56.457 27.3701 56.536 27.2918C56.615 27.2134 56.7226 27.1617 56.8591 27.1367L59.0896 26.7291V26.7291ZM58.713 27.7321L58.3598 27.7965L58.134 26.5614L58.4872 26.4969L58.713 27.7321Z" fill="#085493"/>
<path d="M56.578 29.5451C56.555 29.3198 56.5837 29.121 56.6639 28.9489C56.7441 28.7768 56.8678 28.6377 57.0351 28.5319C57.2022 28.4261 57.4044 28.3611 57.6417 28.3368C57.876 28.3129 58.087 28.3356 58.2745 28.4053C58.4622 28.475 58.6142 28.5838 58.7307 28.7319C58.8471 28.88 58.9162 29.0603 58.9378 29.2728C58.951 29.4017 58.9424 29.5289 58.912 29.6545C58.8818 29.7799 58.8258 29.8954 58.7443 30.001C58.6628 30.1066 58.5521 30.1946 58.4125 30.2651C58.2728 30.3355 58.0991 30.3812 57.8917 30.4025L57.7338 30.4185L57.5483 28.6005L57.8818 28.5666L58.0228 29.9483C58.14 29.9362 58.2415 29.9018 58.3274 29.845C58.4134 29.7881 58.4784 29.7139 58.5222 29.6227C58.566 29.5316 58.5821 29.4282 58.5703 29.3132C58.5576 29.1882 58.5159 29.0823 58.4455 28.9957C58.3749 28.9091 58.2882 28.8457 58.1853 28.8056C58.0824 28.7655 57.9739 28.7512 57.8597 28.763L57.5993 28.7895C57.4463 28.8051 57.3191 28.8455 57.2174 28.9105C57.1157 28.9754 57.0418 29.0595 56.9957 29.1626C56.9496 29.2655 56.9331 29.382 56.9464 29.5122C56.955 29.5965 56.9751 29.6722 57.0065 29.7393C57.0378 29.8063 57.0804 29.8626 57.1342 29.9082C57.1881 29.9539 57.252 29.9865 57.3263 30.0059L57.2933 30.435C57.1659 30.414 57.0512 30.3647 56.9495 30.2873C56.8478 30.21 56.7648 30.1087 56.7003 29.9834C56.636 29.858 56.5952 29.712 56.5782 29.5453L56.578 29.5451Z" fill="#085493"/>
<path d="M56.7727 30.9321L59.0711 30.9797L59.0622 31.4091L58.6881 31.4012L58.6875 31.4298C58.8132 31.4802 58.9106 31.5606 58.9797 31.6708C59.0487 31.7811 59.0817 31.9119 59.0785 32.0636C59.0754 32.2172 59.0367 32.3454 58.9628 32.4481C58.8889 32.5508 58.7885 32.6258 58.6617 32.6731L58.6613 32.6971C58.7828 32.7544 58.879 32.8437 58.9498 32.9651C59.0207 33.0861 59.0544 33.2297 59.051 33.3953C59.0465 33.6038 58.9778 33.7728 58.8444 33.9023C58.711 34.0316 58.5126 34.0936 58.2492 34.0882L56.708 34.0563L56.7173 33.6089L58.2167 33.6401C58.3721 33.6431 58.4858 33.6032 58.5574 33.5198C58.6289 33.4364 58.666 33.3359 58.6684 33.2181C58.6715 33.0724 58.6292 32.9584 58.5415 32.8756C58.4539 32.793 58.3402 32.7503 58.2006 32.7473L56.7357 32.7171L56.745 32.2711L58.2727 32.3028C58.3974 32.3053 58.4984 32.2686 58.5759 32.1923C58.6532 32.116 58.6933 32.0156 58.6958 31.891C58.6976 31.8061 58.677 31.7275 58.6341 31.6553C58.5912 31.5831 58.5308 31.5244 58.4529 31.4794C58.3751 31.4344 58.2842 31.4109 58.1805 31.4087L56.7634 31.3793L56.7727 30.9321Z" fill="#085493"/>
<path d="M31.9999 53.0825C26.3687 53.0825 21.0743 50.8895 17.0924 46.9075C13.1105 42.9255 10.9175 37.6313 10.9175 31.9999C10.9175 26.3686 13.1105 21.0743 17.0924 17.0924C21.0743 13.1104 26.3687 10.9174 31.9999 10.9174C37.6312 10.9174 42.9255 13.1104 46.9075 17.0924C50.8895 21.0743 53.0824 26.3687 53.0824 31.9999C53.0824 37.6312 50.8895 42.9255 46.9075 46.9075C42.9255 50.8895 37.6313 53.0825 31.9999 53.0825Z" fill="#CECFCA"/>
<path d="M31.9999 11.1684C34.8123 11.1684 37.5404 11.7191 40.1083 12.8052C42.5888 13.8544 44.8167 15.3565 46.73 17.2698C48.6433 19.1831 50.1454 21.411 51.1946 23.8915C52.2807 26.4594 52.8314 29.1875 52.8314 31.9999C52.8314 34.8124 52.2806 37.5405 51.1946 40.1084C50.1454 42.5889 48.6433 44.8168 46.73 46.73C44.8167 48.6434 42.5888 50.1455 40.1083 51.1946C37.5404 52.2808 34.8123 52.8315 31.9999 52.8315C29.1874 52.8315 26.4594 52.2807 23.8914 51.1946C21.4109 50.1455 19.183 48.6434 17.2698 46.73C15.3564 44.8167 13.8543 42.5889 12.8051 40.1084C11.719 37.5404 11.1683 34.8124 11.1683 31.9999C11.1683 29.1875 11.7191 26.4594 12.8051 23.8915C13.8543 21.411 15.3564 19.1831 17.2698 17.2698C19.1831 15.3565 21.4109 13.8544 23.8914 12.8052C26.4594 11.7191 29.1874 11.1684 31.9999 11.1684ZM31.9999 10.6666C20.2178 10.6666 10.6665 20.2179 10.6665 32C10.6665 43.7821 20.2177 53.3334 31.9999 53.3334C43.782 53.3334 53.3332 43.7821 53.3332 32C53.3332 20.2179 43.782 10.6666 31.9999 10.6666Z" fill="#085493"/>
<path d="M43.2089 37.8887C42.4348 39.0099 41.4548 40.0944 40.3829 40.938L40.1989 40.9206C39.7357 40.6272 39.2348 40.3862 38.7909 40.0944C39.3839 39.3762 39.9578 38.6609 40.4018 37.8713H39.8277C39.3647 38.5499 38.8828 39.2652 38.2737 39.8723C37.4586 39.5425 36.7197 39.2476 35.8887 39.027L35.797 38.954C35.927 38.5861 36.1648 38.2371 36.2408 37.8708H35.7429L35.2419 38.862C34.1508 38.6225 32.9489 38.494 31.8387 38.4212C31.7847 38.2563 31.8609 38.0168 31.7847 37.8709H31.3033C31.2669 38.0899 31.3589 38.2563 31.2494 38.4387C30.1021 38.4941 28.9928 38.6226 27.9202 38.8431L27.4217 37.8711C27.2362 37.8711 27.0331 37.833 26.904 37.8885L27.3661 38.9713L27.3115 39.0269C26.4782 39.2648 25.6647 39.5599 24.8709 39.891L24.7956 39.8532C24.2779 39.2854 23.7791 38.6605 23.3717 38.0344C23.2812 37.7235 22.9109 37.9059 22.7081 37.8711C23.1512 38.6782 23.7417 39.395 24.3349 40.1291C23.8348 40.4243 23.336 40.7557 22.818 40.9935C21.7089 40.1483 20.6726 39.046 19.8972 37.8886C19.6744 37.852 19.527 37.8711 19.3057 37.8886C20.6354 39.9832 22.7081 41.8195 24.8709 42.9027L24.8884 42.8853L24.9082 42.9408C26.3681 43.6561 27.9204 44.1715 29.5664 44.3917C35.2419 45.1449 40.659 42.7013 43.8019 37.8886C43.637 37.8711 43.3958 37.8711 43.209 37.8886L43.2089 37.8887ZM35.502 39.5426L35.5556 39.5046C36.3518 39.6883 37.11 39.9469 37.8139 40.2956C37.2209 40.9744 36.4628 41.5628 35.7588 42.0591C35.3341 42.316 34.9088 42.5919 34.4648 42.8123L33.6686 42.4634L33.7256 42.335C34.3918 41.4343 34.9849 40.5162 35.502 39.5426ZM31.8609 38.9904C32.914 39.0096 33.9668 39.119 34.9469 39.3585L34.9627 39.4139C34.4491 40.405 33.7989 41.3597 33.098 42.2603C32.7841 42.2967 32.4889 42.1684 32.1718 42.1493L31.8609 42.1143C31.823 41.0297 31.804 40.0735 31.8609 38.9904ZM28.2906 39.3204C29.2516 39.1382 30.2505 38.9905 31.286 38.9905L31.3035 42.0956C30.9166 42.1875 30.4908 42.1875 30.1206 42.2794C29.3618 41.3788 28.7338 40.4052 28.1978 39.3949L28.2906 39.3204ZM25.3142 40.3132C26.0349 39.9644 26.7928 39.7073 27.5691 39.5045L27.6445 39.5234C28.1796 40.5337 28.8455 41.4882 29.5116 42.443C29.2517 42.5919 28.9384 42.6841 28.6783 42.8297C27.4589 42.2241 26.2933 41.379 25.3141 40.3688V40.3133L25.3142 40.3132ZM27.6991 43.4545C26.1451 43.0502 24.7036 42.3524 23.3715 41.3977V41.3423C23.8163 41.0663 24.2604 40.7728 24.7409 40.5717C25.7947 41.6165 26.8856 42.408 28.0694 43.1612L27.6992 43.4545H27.6991ZM34.5566 43.694C32.5999 44.1158 30.4154 44.1334 28.4579 43.6559L28.6053 43.491C30.3252 42.3699 33.0059 42.3699 34.6868 43.5831L34.5566 43.694ZM36.3326 43.1786L35.4638 43.4545C35.3179 43.38 35.1878 43.2721 35.0578 43.1612L35.0926 43.1056C36.2787 42.4077 37.3508 41.5627 38.3655 40.5525C38.8669 40.7556 39.3456 41.03 39.7897 41.3423C38.7559 42.1683 37.5536 42.7204 36.3325 43.1786H36.3326Z" fill="white"/>
<path d="M48.9584 27.1053C48.6286 26.2235 47.9436 25.4337 47.1127 24.8644C44.7087 23.3214 41.0456 23.2104 38.5718 24.6059C37.2207 25.3035 36.3328 26.6832 36.0568 28.0962C35.5557 30.4303 35.6858 33.204 37.4584 34.9499C39.5327 36.7862 42.5457 37.1906 45.2255 36.4374C45.3522 36.4121 45.7583 36.309 46.0342 36.1597L46.1135 36.125C46.9444 35.7764 47.7407 35.2052 48.3304 34.4346C49.7005 32.4143 49.7925 29.3823 48.9584 27.1054V27.1053ZM45.1338 32.3397C45.0385 32.782 44.7407 33.2405 44.271 33.4071C43.5194 33.7371 42.5046 33.6449 41.8101 33.2596C41.2263 32.8552 41.1534 32.1766 41.0774 31.5328C41.0203 30.2641 40.9251 28.9242 41.2836 27.7649C41.5658 27.0497 42.3364 26.8658 43.0312 26.8104C43.7634 26.8103 44.477 26.9213 44.9275 27.5095C45.2098 27.9313 45.1909 28.4834 45.2479 28.9781C45.2288 30.0263 45.321 31.2743 45.1338 32.3398V32.3397Z" fill="white"/>
<path d="M33.523 36.1078C31.62 37.0973 29.1415 36.915 27.2187 36.1078C26.9041 35.9412 26.5901 35.7588 26.2752 35.6099L26.238 36.4932L23.4644 36.5105C23.4088 35.0406 23.4288 33.3325 23.4644 31.845L25.9604 31.8261C26.1095 32.0099 26.2021 32.2304 26.3496 32.4143C27.6065 33.7368 29.4919 34.1033 31.229 33.626C31.3591 33.5529 31.528 33.4611 31.528 33.2961C31.5626 33.0929 31.3417 32.9282 31.1735 32.8551C29.5116 32.2843 27.7918 31.8624 26.145 31.274C24.944 30.8157 23.6871 29.8421 23.4461 28.5196C23.1313 27.1226 23.5015 25.5432 24.7037 24.6615C26.5525 23.3216 29.3992 23.4119 31.4336 24.2761L32.2827 24.7363C32.3746 24.5145 32.3018 24.2036 32.3399 23.9832C33.1708 23.9452 34.1889 23.9452 35.0198 23.9626C35.0388 25.4881 35.0927 26.8106 35.0577 28.3187C34.1698 28.3535 33.2278 28.336 32.4128 28.336C31.6547 27.142 30.3251 26.701 29.0312 26.5171C28.4207 26.4997 27.6063 26.3156 27.2544 26.9215C27.2188 27.1229 27.3115 27.2878 27.4589 27.4163L27.7918 27.5827L32.2671 28.8863C33.7638 29.2732 35.242 30.6877 35.445 32.2496C35.6512 33.8465 34.909 35.3339 33.5231 36.1077L33.523 36.1078Z" fill="white"/>
<path d="M20.8207 26.9768L20.8026 33.4246C21.3939 33.4973 22.0775 33.442 22.6879 33.48V36.5103H14.5349C14.4975 35.5007 14.4975 34.4897 14.5349 33.48L16.3648 33.442L16.3846 33.1866V26.9387C15.7741 26.8832 15.1825 26.9037 14.553 26.8832C14.5349 25.8488 14.5349 24.8143 14.553 23.78L15.6995 23.7608L22.6706 23.7798C22.7254 24.736 22.7078 25.8556 22.6879 26.9038L20.8579 26.9213L20.8207 26.9768Z" fill="white"/>
<path d="M32.7269 15.8257L32.708 15.8621L32.673 15.8257C32.1721 15.7701 31.5631 15.7526 31.0263 15.8065C30.8233 15.7891 30.5832 15.8065 30.3429 15.8257C25.9051 16.1745 21.8193 18.4706 19.2686 22.3842C19.4532 22.3652 19.6746 22.4382 19.8593 22.3652C20.3034 21.742 20.8029 21.1348 21.3571 20.5464C21.8375 20.0866 22.2824 19.6474 22.8001 19.316C23.2815 19.6283 23.8166 19.8852 24.2781 20.1787C23.7049 20.8953 23.1142 21.6121 22.6883 22.3844C22.8185 22.4384 23.0588 22.4209 23.2434 22.3844C23.7049 21.7042 24.2051 21.0239 24.7958 20.4181C25.5918 20.7115 26.3681 21.0239 27.1817 21.2443L27.2546 21.3173L26.7932 22.3846C26.996 22.421 27.1261 22.402 27.3292 22.3846C27.4964 22.0706 27.6249 21.7216 27.8096 21.4107C28.8816 21.6485 30.0099 21.7772 31.1564 21.8152C31.3039 21.9419 31.1945 22.2196 31.2499 22.3845H31.747C31.804 22.199 31.7313 21.9976 31.804 21.8326C32.8762 21.777 34.0019 21.666 35.0392 21.4107L35.1311 21.4282L35.629 22.3845C35.7972 22.3845 36.019 22.4209 36.1491 22.3464L35.6861 21.2824L35.724 21.2443C36.5741 21.024 37.3701 20.6942 38.1819 20.3627C38.7561 20.9684 39.2921 21.6868 39.7741 22.3846C39.9772 22.3846 40.1803 22.402 40.3261 22.3465C40.0999 21.9359 39.8343 21.5481 39.5332 21.1888C39.292 20.84 39.032 20.5293 38.7182 20.1978V20.1057L40.0123 19.3525L40.1993 19.2795C41.3253 20.1422 42.3244 21.1887 43.1172 22.3464C43.3392 22.3464 43.5263 22.4209 43.7102 22.329C41.2331 18.5817 37.1483 16.1744 32.7271 15.8257H32.7269ZM24.7039 19.7376C24.205 19.5536 23.7421 19.2793 23.2988 18.9655V18.9305C24.4636 18.0661 25.7576 17.4239 27.1261 16.9815L27.2918 16.8736V16.9084C27.4392 16.9465 27.5519 16.7799 27.6804 16.891L28.0127 17.148C26.8669 17.8647 25.7395 18.71 24.704 19.7376L24.7039 19.7376ZM27.5321 20.7493L27.459 20.7667C26.7012 20.5653 25.9606 20.3259 25.2589 20.0135L25.2961 19.9024C26.3127 18.9303 27.3847 18.1216 28.5684 17.4969C28.8458 17.6064 29.1217 17.6999 29.3994 17.8284L29.3445 17.9742C28.6413 18.856 28.0878 19.8121 27.532 20.7492L27.5321 20.7493ZM31.2119 21.2443C30.6934 21.3173 30.2326 21.2269 29.7149 21.1888C29.2146 21.1157 28.5857 21.0603 28.0878 20.8954C28.6238 19.8853 29.2518 18.9117 30.0098 18.0109L31.1944 18.1774C31.2498 19.132 31.2118 20.2341 31.2118 21.2444L31.2119 21.2443ZM28.6611 16.8913L28.3654 16.6517C30.3255 16.1919 32.6351 16.1553 34.5761 16.6517V16.6883C32.9681 17.8648 30.3611 17.9742 28.6611 16.8913ZM31.7851 21.2615C31.7472 20.2894 31.766 19.2048 31.7851 18.1945C32.156 18.1393 32.5622 18.0837 32.93 18.0298C33.6532 18.948 34.354 19.8851 34.8362 20.8952C33.8372 21.1347 32.8221 21.2615 31.7851 21.2615ZM37.6842 19.9771C36.9612 20.2897 36.2222 20.583 35.426 20.7494C34.8552 19.7743 34.2272 18.8021 33.523 17.8649C33.7829 17.7175 34.097 17.6064 34.3731 17.4605C35.575 18.0664 36.739 18.9306 37.7189 19.9232L37.6841 19.9772L37.6842 19.9771ZM39.6251 18.9656L38.3503 19.6839H38.255C37.2782 18.6911 36.1302 17.8286 34.9629 17.1481L35.3181 16.8358C36.869 17.2402 38.3311 17.938 39.66 18.8925L39.625 18.9656H39.6251Z" fill="white"/>
<path d="M20.5468 46.7209V45.8614L22.5991 43.6261C22.7953 43.4059 22.9589 43.2103 23.0898 43.0392C23.2206 42.8682 23.3187 42.7024 23.3842 42.5421C23.4497 42.3818 23.4823 42.2108 23.4823 42.029C23.4823 41.8217 23.44 41.6437 23.3553 41.4951C23.2706 41.3464 23.1542 41.2316 23.006 41.1503C22.8578 41.069 22.6895 41.0284 22.5009 41.0284C22.3065 41.0284 22.1362 41.0729 21.99 41.1615C21.8438 41.2503 21.7307 41.3759 21.6509 41.5384C21.571 41.7009 21.5311 41.8943 21.5311 42.1189H20.5122C20.5122 41.702 20.5978 41.3396 20.7691 41.0317C20.9403 40.7238 21.1765 40.4855 21.4777 40.3165C21.7788 40.1476 22.1247 40.0632 22.5154 40.0632C22.9118 40.0632 23.2601 40.1455 23.5603 40.3101C23.8604 40.4748 24.0937 40.7003 24.2602 40.9868C24.4266 41.2734 24.5098 41.6004 24.5098 41.9681C24.5098 42.2141 24.4675 42.4557 24.3828 42.693C24.2981 42.9303 24.1494 43.1932 23.9369 43.4818C23.7242 43.7705 23.4265 44.12 23.0436 44.5306L22.0247 45.682V45.7269H24.5993V46.7211H20.5468V46.7209Z" fill="#085493"/>
<path d="M25.8142 46.7209L28.3283 41.1919V41.1469H25.4102V40.1528H29.4366V41.1694L26.9254 46.7209H25.8141H25.8142Z" fill="#085493"/>
<path d="M32.4268 46.8459C31.9515 46.8459 31.544 46.7118 31.2044 46.4434C30.8648 46.1752 30.6041 45.787 30.4222 45.2792C30.2403 44.7715 30.1494 44.1595 30.1494 43.4432C30.1513 42.7269 30.2433 42.117 30.4251 41.6135C30.6069 41.1099 30.8676 40.7256 31.2073 40.4606C31.5469 40.1955 31.9535 40.0629 32.4268 40.0629C32.9002 40.0629 33.3072 40.1955 33.6478 40.4606C33.9883 40.7256 34.2496 41.1106 34.4314 41.6151C34.6133 42.1197 34.7043 42.7291 34.7043 43.4432C34.7043 44.1615 34.6133 44.7746 34.4314 45.2824C34.2496 45.7902 33.9888 46.1776 33.6492 46.4449C33.3095 46.7122 32.9021 46.8458 32.4268 46.8458L32.4268 46.8459ZM32.4268 45.8421C32.7962 45.8421 33.0882 45.6396 33.3028 45.2344C33.5173 44.8292 33.6246 44.2322 33.6246 43.4432C33.6246 42.9215 33.5755 42.4832 33.4774 42.1283C33.3792 41.7734 33.2407 41.5056 33.0617 41.3249C32.8828 41.1442 32.6711 41.0539 32.4267 41.0539C32.0591 41.0539 31.7686 41.2564 31.555 41.6616C31.3414 42.0668 31.2336 42.6605 31.2317 43.4432C31.2298 43.967 31.2774 44.4074 31.3746 44.7645C31.4717 45.1216 31.6098 45.3904 31.7888 45.571C31.9677 45.7517 32.1804 45.8421 32.4267 45.8421H32.4268Z" fill="#085493"/>
<path d="M37.8477 46.8459C37.3724 46.8459 36.9649 46.7118 36.6253 46.4434C36.2857 46.1752 36.025 45.787 35.8431 45.2792C35.6612 44.7715 35.5703 44.1595 35.5703 43.4432C35.5722 42.7269 35.6642 42.117 35.846 41.6135C36.0278 41.1099 36.2885 40.7256 36.6282 40.4606C36.9678 40.1955 37.3744 40.0629 37.8477 40.0629C38.3211 40.0629 38.7281 40.1955 39.0687 40.4606C39.4092 40.7256 39.6705 41.1106 39.8523 41.6151C40.0342 42.1197 40.1252 42.7291 40.1252 43.4432C40.1252 44.1615 40.0342 44.7746 39.8523 45.2824C39.6705 45.7902 39.4097 46.1776 39.0701 46.4449C38.7304 46.7122 38.323 46.8458 37.8477 46.8458L37.8477 46.8459ZM37.8477 45.8421C38.2171 45.8421 38.5091 45.6396 38.7237 45.2344C38.9382 44.8292 39.0455 44.2322 39.0455 43.4432C39.0455 42.9215 38.9964 42.4832 38.8983 42.1283C38.8001 41.7734 38.6616 41.5056 38.4826 41.3249C38.3037 41.1442 38.092 41.0539 37.8476 41.0539C37.48 41.0539 37.1895 41.2564 36.9759 41.6616C36.7623 42.0668 36.6545 42.6605 36.6526 43.4432C36.6507 43.967 36.6983 44.4074 36.7955 44.7645C36.8926 45.1216 37.0307 45.3904 37.2097 45.571C37.3886 45.7517 37.6013 45.8421 37.8476 45.8421H37.8477Z" fill="#085493"/>
<path d="M43.4876 40.1528V46.7209H42.4167V41.3105H42.3821L40.9995 42.2919V41.2015L42.4686 40.1528L43.4876 40.1528Z" fill="#085493"/>
<path d="M25.2572 56.733L24.5914 56.5092C24.6083 56.4191 24.6092 56.3339 24.5943 56.2539C24.5795 56.1739 24.5507 56.1003 24.5079 56.0328C24.4652 55.9654 24.4097 55.9062 24.3418 55.8552C24.2738 55.8041 24.1952 55.7636 24.1061 55.7338C23.9449 55.6796 23.7912 55.6721 23.6449 55.7116C23.4986 55.7509 23.3671 55.8354 23.2503 55.9646C23.1335 56.0939 23.0389 56.2665 22.9664 56.4824C22.8918 56.7043 22.8622 56.9019 22.878 57.0752C22.8936 57.2486 22.9483 57.3937 23.042 57.511C23.1357 57.6282 23.261 57.7131 23.418 57.7659C23.5062 57.7956 23.592 57.8114 23.6753 57.8134C23.7586 57.8155 23.8372 57.8039 23.9112 57.7785C23.9852 57.7532 24.0525 57.7147 24.1134 57.6629C24.1742 57.6111 24.2261 57.5463 24.2693 57.4684L24.934 57.6951C24.8687 57.8322 24.7797 57.9553 24.6668 58.0647C24.554 58.1739 24.4226 58.2611 24.2727 58.3263C24.1228 58.3916 23.9584 58.4278 23.7795 58.4346C23.6007 58.4417 23.4114 58.4116 23.2118 58.3445C22.9342 58.2513 22.7073 58.1051 22.5311 57.9061C22.355 57.707 22.2438 57.4673 22.1977 57.1866C22.1516 56.9061 22.1854 56.5966 22.2991 56.2582C22.4132 55.9187 22.5741 55.6514 22.7818 55.4562C22.9895 55.261 23.2237 55.1375 23.4847 55.0859C23.7456 55.0343 24.013 55.0545 24.2865 55.1464C24.4668 55.2071 24.6259 55.2887 24.7633 55.3913C24.9008 55.4939 25.0132 55.6136 25.1002 55.7505C25.1872 55.8876 25.245 56.0386 25.2736 56.2038C25.3021 56.3689 25.2967 56.5454 25.2573 56.7329L25.2572 56.733Z" fill="#085493"/>
<path d="M26.3668 59.1991C26.1188 59.1471 25.9162 59.052 25.759 58.9136C25.6018 58.7753 25.4945 58.6032 25.4372 58.3973C25.3798 58.1914 25.3778 57.9614 25.4311 57.7071C25.483 57.4591 25.5768 57.2516 25.7123 57.0844C25.8478 56.9174 26.0141 56.8 26.2113 56.7319C26.4085 56.6641 26.6253 56.6549 26.8619 56.7044C27.0208 56.7378 27.1639 56.7942 27.2908 56.8738C27.4178 56.9535 27.5221 57.0548 27.6039 57.1778C27.6857 57.301 27.7392 57.4451 27.7647 57.6105C27.7901 57.7758 27.7814 57.961 27.7384 58.1661L27.6999 58.3497L25.6643 57.923L25.7511 57.5087L27.1574 57.8035C27.1776 57.7072 27.1745 57.6175 27.1482 57.5345C27.1218 57.4514 27.0763 57.381 27.0115 57.3232C26.9467 57.2653 26.8655 57.2262 26.7682 57.2057C26.6667 57.1844 26.5722 57.189 26.4844 57.2192C26.3968 57.2493 26.3228 57.299 26.2625 57.3676C26.2022 57.4364 26.1616 57.5183 26.1406 57.6133L26.058 58.0072C26.033 58.1265 26.0336 58.2342 26.0599 58.3303C26.0862 58.4265 26.1351 58.5067 26.2069 58.5709C26.2786 58.6351 26.3705 58.6789 26.4824 58.7023C26.5567 58.7179 26.6269 58.7217 26.693 58.7136C26.7592 58.7057 26.8186 58.6853 26.8713 58.6527C26.924 58.62 26.9682 58.5758 27.004 58.5199L27.6138 58.6904C27.5513 58.8323 27.46 58.9484 27.3401 59.0385C27.2202 59.1285 27.0778 59.1882 26.9127 59.2177C26.7476 59.2469 26.5657 59.2407 26.3669 59.1991L26.3668 59.1991Z" fill="#085493"/>
<path d="M28.1006 59.4619L28.3918 57.0161L29.0495 57.0944L28.9987 57.5212L29.0241 57.5242C29.0867 57.3778 29.1753 57.2717 29.2896 57.2061C29.4041 57.1406 29.5297 57.1161 29.6666 57.1324C29.7006 57.1365 29.7369 57.143 29.7757 57.1519C29.8145 57.1608 29.8483 57.1708 29.8772 57.1817L29.8055 57.7836C29.7748 57.7703 29.7318 57.7564 29.6764 57.7424C29.621 57.7283 29.5699 57.7183 29.5232 57.7127C29.4235 57.7009 29.332 57.7118 29.2488 57.7455C29.1657 57.7791 29.0969 57.8316 29.0428 57.9026C28.9885 57.9738 28.9555 58.0591 28.9436 58.1589L28.7789 59.5426L28.1006 59.4619Z" fill="#085493"/>
<path d="M31.6229 57.2768L31.6004 57.7895L30.1187 57.7246L30.1411 57.2119L31.6229 57.2768ZM30.5033 56.6372L31.1857 56.667L31.0852 58.961C31.0825 59.0242 31.0899 59.0734 31.1076 59.1088C31.1253 59.1445 31.1512 59.1699 31.1853 59.1853C31.2194 59.2007 31.2594 59.2094 31.3054 59.2115C31.3374 59.2129 31.3696 59.2113 31.4019 59.2069C31.4342 59.2023 31.4589 59.199 31.4762 59.1964L31.5612 59.709C31.5266 59.7182 31.478 59.7287 31.4154 59.7403C31.3528 59.7521 31.2771 59.7576 31.1883 59.7569C31.0236 59.7561 30.8806 59.7278 30.7594 59.6723C30.6383 59.6168 30.5458 59.5346 30.4822 59.4259C30.4183 59.3171 30.3906 59.1822 30.3988 59.0209L30.5032 56.6372H30.5033Z" fill="#085493"/>
<path d="M32.3782 56.9499C32.2765 56.9514 32.1892 56.919 32.1162 56.8527C32.043 56.7864 32.0058 56.7057 32.0044 56.6105C32.0031 56.5154 32.0382 56.4334 32.1099 56.3645C32.1817 56.2955 32.2677 56.2603 32.3682 56.2589C32.4698 56.2574 32.5571 56.2898 32.6302 56.3561C32.7033 56.4225 32.7406 56.5032 32.7419 56.5983C32.7433 56.6935 32.7084 56.7755 32.6371 56.8444C32.566 56.9134 32.4796 56.9485 32.3782 56.9499ZM32.075 59.7351L32.0397 57.2724L32.7226 57.2625L32.7581 59.7254L32.075 59.7351Z" fill="#085493"/>
<path d="M34.5621 57.1516L34.5992 57.6633L33.0831 57.7735L33.0459 57.2617L34.5621 57.1516ZM33.5714 59.6931L33.3801 57.059C33.3672 56.881 33.3913 56.7308 33.4527 56.6083C33.514 56.486 33.6033 56.3911 33.7207 56.3237C33.838 56.2563 33.9739 56.2169 34.1285 56.2057C34.233 56.198 34.3293 56.1992 34.4173 56.2089C34.5054 56.2186 34.5712 56.2283 34.6148 56.238L34.5304 56.7586C34.5031 56.7519 34.4697 56.7464 34.4304 56.7416C34.3909 56.737 34.3508 56.7362 34.3103 56.7391C34.2102 56.7464 34.142 56.7747 34.1058 56.8239C34.0697 56.8731 34.0547 56.9393 34.0608 57.0225L34.251 59.6438L33.5714 59.6931Z" fill="#085493"/>
<path d="M35.2456 56.7418C35.1449 56.755 35.0545 56.733 34.9742 56.6756C34.8939 56.6182 34.8475 56.5423 34.8351 56.448C34.8227 56.3536 34.8481 56.2681 34.9113 56.1913C34.9746 56.1145 35.056 56.0696 35.1556 56.0565C35.2564 56.0434 35.3468 56.0654 35.4272 56.1228C35.5075 56.1803 35.5538 56.2561 35.5662 56.3504C35.5786 56.4447 35.5534 56.5302 35.4907 56.6068C35.4281 56.6837 35.3463 56.7285 35.2456 56.7418ZM35.2674 59.5434L34.9467 57.1014L35.624 57.0123L35.9447 59.4544L35.2674 59.5434Z" fill="#085493"/>
<path d="M37.7454 59.1807C37.4975 59.2329 37.2737 59.2274 37.0742 59.1639C36.8746 59.1006 36.707 58.9862 36.5717 58.8207C36.4363 58.6552 36.342 58.4453 36.2884 58.1912C36.2363 57.9433 36.2385 57.7156 36.2954 57.5081C36.3523 57.3006 36.4573 57.1261 36.6105 56.9846C36.7637 56.8431 36.9585 56.7475 37.195 56.6977C37.3539 56.6642 37.5076 56.6584 37.6558 56.6802C37.8041 56.702 37.9404 56.7528 38.0648 56.8324C38.1892 56.9122 38.2963 57.0227 38.3861 57.1638C38.476 57.3049 38.5424 57.4781 38.5855 57.683L38.6243 57.8666L36.589 58.2951L36.5018 57.8807L37.9078 57.5848C37.8876 57.4886 37.8486 57.4077 37.7912 57.3422C37.7336 57.2767 37.6637 57.2306 37.5809 57.2036C37.4983 57.1769 37.4084 57.1737 37.3111 57.1942C37.2095 57.2155 37.1247 57.2577 37.0566 57.3207C36.9885 57.3836 36.9406 57.4586 36.9132 57.5458C36.8856 57.633 36.8813 57.7244 36.9004 57.8198L36.9832 58.2135C37.0084 58.3328 37.0523 58.4312 37.115 58.5087C37.1777 58.5862 37.2548 58.6398 37.3464 58.6698C37.4378 58.6996 37.5396 58.7028 37.6515 58.6792C37.7257 58.6636 37.7915 58.6388 37.8489 58.605C37.9062 58.5711 37.9524 58.5285 37.9876 58.4775C38.0227 58.4265 38.0454 58.368 38.0556 58.3026L38.6824 58.2132C38.6824 58.3684 38.6456 58.5114 38.572 58.6421C38.4984 58.7728 38.3919 58.8848 38.2527 58.9781C38.1133 59.0713 37.9443 59.1389 37.7455 59.1806L37.7454 59.1807Z" fill="#085493"/>
<path d="M40.3586 58.4837C40.1809 58.5418 40.005 58.5484 39.8311 58.5036C39.6572 58.4586 39.4991 58.3602 39.3566 58.2083C39.2142 58.0564 39.1001 57.8499 39.0147 57.5888C38.927 57.3206 38.8972 57.0831 38.9252 56.8766C38.9532 56.67 39.0246 56.4988 39.1394 56.3628C39.254 56.2269 39.3973 56.1309 39.569 56.0748C39.7 56.0319 39.8168 56.0181 39.919 56.0336C40.0214 56.0491 40.1105 56.0806 40.1863 56.1285C40.2621 56.1762 40.3245 56.2269 40.3735 56.2806L40.3934 56.2741L40.0095 55.1005L40.6572 54.8887L41.6781 58.01L41.038 58.2194L40.9154 57.8445L40.8879 57.8534C40.8787 57.9285 40.8568 58.0068 40.8222 58.0884C40.7876 58.17 40.7331 58.2461 40.6589 58.3164C40.5847 58.3868 40.4845 58.4427 40.3586 58.4839L40.3586 58.4837ZM40.3954 57.8997C40.5 57.8655 40.5793 57.8078 40.6332 57.7267C40.6871 57.6456 40.7166 57.5466 40.7218 57.4302C40.7269 57.3139 40.7069 57.186 40.6613 57.0468C40.6157 56.9076 40.5569 56.793 40.4848 56.7031C40.4126 56.6132 40.3307 56.5521 40.2393 56.5201C40.1478 56.4881 40.0498 56.4893 39.9452 56.5235C39.8384 56.5584 39.7581 56.6168 39.7038 56.6986C39.6496 56.7805 39.6205 56.8789 39.6165 56.9937C39.6124 57.1087 39.6326 57.2337 39.6768 57.3688C39.7213 57.505 39.7796 57.6188 39.8518 57.7105C39.924 57.8023 40.0059 57.8654 40.0977 57.9001C40.1895 57.9348 40.2887 57.9346 40.3954 57.8997Z" fill="#085493"/>
</g>
<defs>
<clipPath id="clip0_24_2093">
<rect width="64" height="64" fill="white"/>
</clipPath>
</defs>
</svg>
