<svg width="64" height="64" viewBox="0 0 64 64" fill="none" xmlns="http://www.w3.org/2000/svg">
<g clip-path="url(#clip0_24_2092)">
<path d="M32.0002 63.6237C27.7308 63.6237 23.5894 62.7876 19.6909 61.1387C15.9253 59.5459 12.5432 57.2657 9.63892 54.3612C6.73452 51.4568 4.45424 48.0749 2.86145 44.3092C1.2126 40.4107 0.376465 36.2693 0.376465 31.9999C0.376465 27.7305 1.21252 23.5891 2.86145 19.6906C4.45424 15.925 6.73452 12.5429 9.63892 9.6386C12.5433 6.7342 15.9253 4.45399 19.6909 2.86121C23.5894 1.21235 27.7308 0.376221 32.0002 0.376221C36.2696 0.376221 40.411 1.21228 44.3095 2.86121C48.0752 4.45399 51.4572 6.7342 54.3615 9.6386C57.2658 12.543 59.5462 15.925 61.1389 19.6906C62.7878 23.5891 63.624 27.7305 63.624 31.9999C63.624 36.2693 62.7879 40.4107 61.1389 44.3092C59.5462 48.0749 57.2659 51.4569 54.3615 54.3612C51.4571 57.2656 48.0752 59.5459 44.3095 61.1387C40.411 62.7876 36.2696 63.6237 32.0002 63.6237Z" fill="white"/>
<path d="M32 0.752592C36.2187 0.752592 40.3108 1.57864 44.1626 3.20785C47.8835 4.7816 51.2253 7.03478 54.0952 9.90472C56.9651 12.7747 59.2183 16.1165 60.7921 19.8373C62.4213 23.6891 63.2473 27.7813 63.2473 31.9999C63.2473 36.2186 62.4213 40.3107 60.7921 44.1626C59.2183 47.8834 56.9651 51.2252 54.0952 54.0951C51.2253 56.9651 47.8835 59.2183 44.1626 60.792C40.3108 62.4212 36.2187 63.2473 32 63.2473C27.7813 63.2473 23.6892 62.4212 19.8374 60.792C16.1165 59.2183 12.7747 56.9651 9.90479 54.0951C7.03486 51.2252 4.78167 47.8834 3.20792 44.1626C1.57871 40.3107 0.752668 36.2186 0.752668 31.9999C0.752668 27.7813 1.57871 23.6891 3.20792 19.8373C4.78167 16.1165 7.03486 12.7747 9.90479 9.90472C12.7747 7.03478 16.1165 4.7816 19.8374 3.20785C23.6892 1.57864 27.7813 0.752592 32 0.752592ZM32 0C14.3269 0 0 14.3269 0 32C0 49.6731 14.3269 64 32 64C49.6731 64 64 49.6731 64 32C64 14.3269 49.6731 0 32 0Z" fill="#085493"/>
<path d="M32 53.0825C26.3687 53.0825 21.0744 50.8895 17.0924 46.9075C13.1105 42.9255 10.9175 37.6313 10.9175 31.9999C10.9175 26.3686 13.1105 21.0743 17.0924 17.0924C21.0744 13.1104 26.3687 10.9174 32 10.9174C37.6313 10.9174 42.9256 13.1104 46.9076 17.0924C50.8895 21.0743 53.0825 26.3686 53.0825 31.9999C53.0825 37.6313 50.8895 42.9255 46.9076 46.9075C42.9256 50.8895 37.6313 53.0825 32 53.0825Z" fill="#CECFCA"/>
<path d="M31.9999 11.1684C34.8123 11.1684 37.5405 11.7191 40.1083 12.8052C42.5888 13.8544 44.8167 15.3565 46.73 17.2698C48.6433 19.1831 50.1454 21.411 51.1946 23.8915C52.2807 26.4594 52.8315 29.1875 52.8315 31.9999C52.8315 34.8124 52.2807 37.5405 51.1946 40.1084C50.1454 42.5889 48.6433 44.8168 46.73 46.73C44.8167 48.6433 42.5888 50.1455 40.1083 51.1946C37.5404 52.2808 34.8123 52.8315 31.9999 52.8315C29.1874 52.8315 26.4593 52.2807 23.8914 51.1946C21.4109 50.1455 19.183 48.6434 17.2698 46.73C15.3565 44.8167 13.8543 42.5889 12.8051 40.1084C11.719 37.5404 11.1683 34.8124 11.1683 31.9999C11.1683 29.1875 11.7191 26.4594 12.8051 23.8915C13.8543 21.411 15.3564 19.1831 17.2698 17.2698C19.1831 15.3565 21.4109 13.8544 23.8914 12.8052C26.4594 11.7191 29.1874 11.1684 31.9999 11.1684ZM31.9999 10.6666C20.2178 10.6666 10.6665 20.2179 10.6665 32C10.6665 43.7821 20.2177 53.3334 31.9999 53.3334C43.782 53.3334 53.3331 43.7821 53.3331 32C53.3331 20.2179 43.7819 10.6666 31.9999 10.6666Z" fill="#085493"/>
<path d="M43.2089 37.8887C42.4348 39.0099 41.4548 40.0944 40.3829 40.938L40.1989 40.9206C39.7357 40.6272 39.2348 40.3862 38.7909 40.0944C39.3839 39.3762 39.9578 38.6609 40.4018 37.8713H39.8277C39.3647 38.5499 38.8828 39.2652 38.2737 39.8723C37.4586 39.5425 36.7197 39.2476 35.8887 39.027L35.797 38.954C35.927 38.5861 36.1648 38.2371 36.2408 37.8708H35.7429L35.2419 38.862C34.1508 38.6225 32.9489 38.494 31.8387 38.4212C31.7847 38.2563 31.8609 38.0168 31.7847 37.8709H31.3033C31.2669 38.0899 31.3589 38.2563 31.2494 38.4387C30.1021 38.4941 28.9928 38.6226 27.9202 38.8431L27.4217 37.8711C27.2362 37.8711 27.0331 37.833 26.904 37.8885L27.3661 38.9713L27.3115 39.0269C26.4782 39.2648 25.6647 39.5599 24.8709 39.891L24.7956 39.8532C24.2779 39.2854 23.7791 38.6605 23.3717 38.0344C23.2812 37.7235 22.9109 37.9059 22.7081 37.8711C23.1512 38.6782 23.7417 39.395 24.3349 40.1291C23.8348 40.4243 23.336 40.7557 22.818 40.9935C21.7089 40.1483 20.6726 39.046 19.8972 37.8886C19.6744 37.852 19.527 37.8711 19.3057 37.8886C20.6354 39.9832 22.7081 41.8195 24.8709 42.9027L24.8884 42.8853L24.9082 42.9408C26.3681 43.6561 27.9204 44.1715 29.5664 44.3917C35.2419 45.1449 40.659 42.7013 43.8019 37.8886C43.637 37.8711 43.3958 37.8711 43.209 37.8886L43.2089 37.8887ZM35.502 39.5426L35.5556 39.5046C36.3518 39.6883 37.11 39.9469 37.8139 40.2956C37.2209 40.9744 36.4628 41.5628 35.7588 42.0591C35.3341 42.316 34.9088 42.5919 34.4648 42.8123L33.6686 42.4634L33.7256 42.335C34.3918 41.4343 34.9849 40.5162 35.502 39.5426ZM31.8609 38.9904C32.914 39.0096 33.9668 39.119 34.9469 39.3585L34.9627 39.4139C34.4491 40.405 33.7989 41.3597 33.098 42.2603C32.7841 42.2967 32.4889 42.1684 32.1718 42.1493L31.8609 42.1143C31.823 41.0297 31.804 40.0735 31.8609 38.9904ZM28.2906 39.3204C29.2516 39.1382 30.2505 38.9905 31.286 38.9905L31.3035 42.0956C30.9166 42.1875 30.4908 42.1875 30.1206 42.2794C29.3618 41.3788 28.7338 40.4052 28.1978 39.3949L28.2906 39.3204ZM25.3142 40.3132C26.0349 39.9644 26.7928 39.7073 27.5691 39.5045L27.6445 39.5234C28.1796 40.5337 28.8455 41.4882 29.5116 42.443C29.2517 42.5919 28.9384 42.6841 28.6783 42.8297C27.4589 42.2241 26.2933 41.379 25.3141 40.3688V40.3133L25.3142 40.3132ZM27.6991 43.4545C26.1451 43.0502 24.7036 42.3524 23.3715 41.3977V41.3423C23.8163 41.0663 24.2604 40.7728 24.7409 40.5717C25.7947 41.6165 26.8856 42.408 28.0694 43.1612L27.6992 43.4545H27.6991ZM34.5566 43.694C32.5999 44.1158 30.4154 44.1334 28.4579 43.6559L28.6053 43.491C30.3252 42.3699 33.0059 42.3699 34.6868 43.5831L34.5566 43.694ZM36.3326 43.1786L35.4638 43.4545C35.3179 43.38 35.1878 43.2721 35.0578 43.1612L35.0926 43.1056C36.2787 42.4077 37.3508 41.5627 38.3655 40.5525C38.8669 40.7556 39.3456 41.03 39.7897 41.3423C38.7559 42.1683 37.5536 42.7204 36.3325 43.1786H36.3326Z" fill="white"/>
<path d="M48.9584 27.1053C48.6286 26.2235 47.9436 25.4337 47.1127 24.8644C44.7087 23.3214 41.0456 23.2104 38.5718 24.6059C37.2207 25.3035 36.3328 26.6832 36.0568 28.0962C35.5557 30.4303 35.6858 33.204 37.4584 34.9499C39.5327 36.7862 42.5457 37.1906 45.2255 36.4374C45.3522 36.4121 45.7583 36.309 46.0342 36.1597L46.1135 36.125C46.9444 35.7764 47.7407 35.2052 48.3304 34.4346C49.7005 32.4143 49.7925 29.3823 48.9584 27.1054V27.1053ZM45.1338 32.3397C45.0385 32.782 44.7407 33.2405 44.271 33.4071C43.5194 33.7371 42.5046 33.6449 41.8101 33.2596C41.2263 32.8552 41.1534 32.1766 41.0774 31.5328C41.0203 30.2641 40.9251 28.9242 41.2836 27.7649C41.5658 27.0497 42.3364 26.8658 43.0312 26.8104C43.7634 26.8103 44.477 26.9213 44.9275 27.5095C45.2098 27.9313 45.1909 28.4834 45.2479 28.9781C45.2288 30.0263 45.321 31.2743 45.1338 32.3398V32.3397Z" fill="white"/>
<path d="M33.523 36.1078C31.62 37.0973 29.1415 36.915 27.2187 36.1078C26.9041 35.9412 26.5901 35.7588 26.2752 35.6099L26.238 36.4932L23.4644 36.5105C23.4088 35.0406 23.4288 33.3325 23.4644 31.845L25.9604 31.8261C26.1095 32.0099 26.2021 32.2304 26.3496 32.4143C27.6065 33.7368 29.4919 34.1033 31.229 33.626C31.3591 33.5529 31.528 33.4611 31.528 33.2961C31.5626 33.0929 31.3417 32.9282 31.1735 32.8551C29.5116 32.2843 27.7918 31.8624 26.145 31.274C24.944 30.8157 23.6871 29.8421 23.4461 28.5196C23.1313 27.1226 23.5015 25.5432 24.7037 24.6615C26.5525 23.3216 29.3992 23.4119 31.4336 24.2761L32.2827 24.7363C32.3746 24.5145 32.3018 24.2036 32.3399 23.9832C33.1708 23.9452 34.1889 23.9452 35.0198 23.9626C35.0388 25.4881 35.0927 26.8106 35.0577 28.3187C34.1698 28.3535 33.2278 28.336 32.4128 28.336C31.6547 27.142 30.3251 26.701 29.0312 26.5171C28.4207 26.4997 27.6063 26.3156 27.2544 26.9215C27.2188 27.1229 27.3115 27.2878 27.4589 27.4163L27.7918 27.5827L32.2671 28.8863C33.7638 29.2732 35.242 30.6877 35.445 32.2496C35.6512 33.8465 34.909 35.3339 33.5231 36.1077L33.523 36.1078Z" fill="white"/>
<path d="M20.8207 26.9768L20.8026 33.4246C21.3939 33.4973 22.0775 33.442 22.6879 33.48V36.5103H14.5349C14.4975 35.5007 14.4975 34.4897 14.5349 33.48L16.3648 33.442L16.3846 33.1866V26.9387C15.7741 26.8832 15.1825 26.9037 14.553 26.8832C14.5349 25.8488 14.5349 24.8143 14.553 23.78L15.6995 23.7608L22.6706 23.7798C22.7254 24.736 22.7078 25.8556 22.6879 26.9038L20.8579 26.9213L20.8207 26.9768Z" fill="white"/>
<path d="M32.7269 15.8257L32.708 15.8621L32.673 15.8257C32.1721 15.7701 31.5631 15.7526 31.0263 15.8065C30.8233 15.7891 30.5832 15.8065 30.3429 15.8257C25.9051 16.1745 21.8193 18.4706 19.2686 22.3842C19.4532 22.3652 19.6746 22.4382 19.8593 22.3652C20.3034 21.742 20.8029 21.1348 21.3571 20.5464C21.8375 20.0866 22.2824 19.6474 22.8001 19.316C23.2815 19.6283 23.8166 19.8852 24.2781 20.1787C23.7049 20.8953 23.1142 21.6121 22.6883 22.3844C22.8185 22.4384 23.0588 22.4209 23.2434 22.3844C23.7049 21.7042 24.2051 21.0239 24.7958 20.4181C25.5918 20.7115 26.3681 21.0239 27.1817 21.2443L27.2546 21.3173L26.7932 22.3846C26.996 22.421 27.1261 22.402 27.3292 22.3846C27.4964 22.0706 27.6249 21.7216 27.8096 21.4107C28.8816 21.6485 30.0099 21.7772 31.1564 21.8152C31.3039 21.9419 31.1945 22.2196 31.2499 22.3845H31.747C31.804 22.199 31.7313 21.9976 31.804 21.8326C32.8762 21.777 34.0019 21.666 35.0392 21.4107L35.1311 21.4282L35.629 22.3845C35.7972 22.3845 36.019 22.4209 36.1491 22.3464L35.6861 21.2824L35.724 21.2443C36.5741 21.024 37.3701 20.6942 38.1819 20.3627C38.7561 20.9684 39.2921 21.6868 39.7741 22.3846C39.9772 22.3846 40.1803 22.402 40.3261 22.3465C40.0999 21.9359 39.8343 21.5481 39.5332 21.1888C39.292 20.84 39.032 20.5293 38.7182 20.1978V20.1057L40.0123 19.3525L40.1993 19.2795C41.3253 20.1422 42.3244 21.1887 43.1172 22.3464C43.3392 22.3464 43.5263 22.4209 43.7102 22.329C41.2331 18.5817 37.1483 16.1744 32.7271 15.8257H32.7269ZM24.7039 19.7376C24.205 19.5536 23.7421 19.2793 23.2988 18.9655V18.9305C24.4636 18.0661 25.7576 17.4239 27.1261 16.9815L27.2918 16.8736V16.9084C27.4392 16.9465 27.5519 16.7799 27.6804 16.891L28.0127 17.148C26.8669 17.8647 25.7395 18.71 24.704 19.7376L24.7039 19.7376ZM27.5321 20.7493L27.459 20.7667C26.7012 20.5653 25.9606 20.3259 25.2589 20.0135L25.2961 19.9024C26.3127 18.9303 27.3847 18.1216 28.5684 17.4969C28.8458 17.6064 29.1217 17.6999 29.3994 17.8284L29.3445 17.9742C28.6413 18.856 28.0878 19.8121 27.532 20.7492L27.5321 20.7493ZM31.2119 21.2443C30.6934 21.3173 30.2326 21.2269 29.7149 21.1888C29.2146 21.1157 28.5857 21.0603 28.0878 20.8954C28.6238 19.8853 29.2518 18.9117 30.0098 18.0109L31.1944 18.1774C31.2498 19.132 31.2118 20.2341 31.2118 21.2444L31.2119 21.2443ZM28.6611 16.8913L28.3654 16.6517C30.3255 16.1919 32.6351 16.1553 34.5761 16.6517V16.6883C32.9681 17.8648 30.3611 17.9742 28.6611 16.8913ZM31.7851 21.2615C31.7472 20.2894 31.766 19.2048 31.7851 18.1945C32.156 18.1393 32.5622 18.0837 32.93 18.0298C33.6532 18.948 34.354 19.8851 34.8362 20.8952C33.8372 21.1347 32.8221 21.2615 31.7851 21.2615ZM37.6842 19.9771C36.9612 20.2897 36.2222 20.583 35.426 20.7494C34.8552 19.7743 34.2272 18.8021 33.523 17.8649C33.7829 17.7175 34.097 17.6064 34.3731 17.4605C35.575 18.0664 36.739 18.9306 37.7189 19.9232L37.6841 19.9772L37.6842 19.9771ZM39.6251 18.9656L38.3503 19.6839H38.255C37.2782 18.6911 36.1302 17.8286 34.9629 17.1481L35.3181 16.8358C36.869 17.2402 38.3311 17.938 39.66 18.8925L39.625 18.9656H39.6251Z" fill="white"/>
<path d="M25.2572 56.733L24.5914 56.5092C24.6083 56.4191 24.6092 56.3339 24.5943 56.2539C24.5795 56.1739 24.5507 56.1003 24.5079 56.0328C24.4652 55.9654 24.4097 55.9062 24.3418 55.8552C24.2738 55.8041 24.1952 55.7636 24.1061 55.7338C23.9449 55.6796 23.7912 55.6721 23.6449 55.7116C23.4986 55.7509 23.3671 55.8354 23.2503 55.9646C23.1335 56.0939 23.0389 56.2665 22.9664 56.4824C22.8918 56.7043 22.8622 56.9019 22.878 57.0752C22.8936 57.2486 22.9483 57.3937 23.042 57.511C23.1357 57.6282 23.261 57.7131 23.418 57.7659C23.5062 57.7956 23.592 57.8114 23.6753 57.8134C23.7586 57.8155 23.8372 57.8039 23.9112 57.7785C23.9852 57.7532 24.0525 57.7147 24.1134 57.6629C24.1742 57.6111 24.2261 57.5463 24.2693 57.4684L24.934 57.6951C24.8687 57.8322 24.7797 57.9553 24.6668 58.0647C24.554 58.1739 24.4226 58.2611 24.2727 58.3263C24.1228 58.3916 23.9584 58.4278 23.7795 58.4346C23.6007 58.4417 23.4114 58.4116 23.2118 58.3445C22.9342 58.2513 22.7073 58.1051 22.5311 57.9061C22.355 57.707 22.2438 57.4673 22.1977 57.1866C22.1516 56.9061 22.1854 56.5966 22.2991 56.2582C22.4132 55.9187 22.5741 55.6514 22.7818 55.4562C22.9895 55.261 23.2237 55.1375 23.4847 55.0859C23.7456 55.0343 24.013 55.0545 24.2865 55.1464C24.4668 55.2071 24.6259 55.2887 24.7633 55.3913C24.9008 55.4939 25.0132 55.6136 25.1002 55.7505C25.1872 55.8876 25.245 56.0386 25.2736 56.2038C25.3021 56.3689 25.2967 56.5454 25.2573 56.7329L25.2572 56.733Z" fill="#085493"/>
<path d="M26.3668 59.1991C26.1188 59.1471 25.9162 59.052 25.759 58.9136C25.6018 58.7753 25.4945 58.6032 25.4372 58.3973C25.3798 58.1914 25.3778 57.9614 25.4311 57.7071C25.483 57.4591 25.5768 57.2516 25.7123 57.0844C25.8478 56.9174 26.0141 56.8 26.2113 56.7319C26.4085 56.6641 26.6253 56.6549 26.8619 56.7044C27.0208 56.7378 27.1639 56.7942 27.2908 56.8738C27.4178 56.9535 27.5221 57.0548 27.6039 57.1778C27.6857 57.301 27.7392 57.4451 27.7647 57.6105C27.7901 57.7758 27.7814 57.961 27.7384 58.1661L27.6999 58.3497L25.6643 57.923L25.7511 57.5087L27.1574 57.8035C27.1776 57.7072 27.1745 57.6175 27.1482 57.5345C27.1218 57.4514 27.0763 57.381 27.0115 57.3232C26.9467 57.2653 26.8655 57.2262 26.7682 57.2057C26.6667 57.1844 26.5722 57.189 26.4844 57.2192C26.3968 57.2493 26.3228 57.299 26.2625 57.3676C26.2022 57.4364 26.1616 57.5183 26.1406 57.6133L26.058 58.0072C26.033 58.1265 26.0336 58.2342 26.0599 58.3303C26.0862 58.4265 26.1351 58.5067 26.2069 58.5709C26.2786 58.6351 26.3705 58.6789 26.4824 58.7023C26.5567 58.7179 26.6269 58.7217 26.693 58.7136C26.7592 58.7057 26.8186 58.6853 26.8713 58.6527C26.924 58.62 26.9682 58.5758 27.004 58.5199L27.6138 58.6904C27.5513 58.8323 27.46 58.9484 27.3401 59.0385C27.2202 59.1285 27.0778 59.1882 26.9127 59.2177C26.7476 59.2469 26.5657 59.2407 26.3669 59.1991L26.3668 59.1991Z" fill="#085493"/>
<path d="M28.1006 59.4619L28.3918 57.0161L29.0495 57.0944L28.9987 57.5212L29.0241 57.5242C29.0867 57.3778 29.1753 57.2717 29.2896 57.2061C29.4041 57.1406 29.5297 57.1161 29.6666 57.1324C29.7006 57.1365 29.7369 57.143 29.7757 57.1519C29.8145 57.1608 29.8483 57.1708 29.8772 57.1817L29.8055 57.7836C29.7748 57.7703 29.7318 57.7564 29.6764 57.7424C29.621 57.7283 29.5699 57.7183 29.5232 57.7127C29.4235 57.7009 29.332 57.7118 29.2488 57.7455C29.1657 57.7791 29.0969 57.8316 29.0428 57.9026C28.9885 57.9738 28.9555 58.0591 28.9436 58.1589L28.7789 59.5426L28.1006 59.4619Z" fill="#085493"/>
<path d="M31.6229 57.2768L31.6004 57.7895L30.1187 57.7246L30.1411 57.2119L31.6229 57.2768ZM30.5033 56.6372L31.1857 56.667L31.0852 58.961C31.0825 59.0242 31.0899 59.0734 31.1076 59.1088C31.1253 59.1445 31.1512 59.1699 31.1853 59.1853C31.2194 59.2007 31.2594 59.2094 31.3054 59.2115C31.3374 59.2129 31.3696 59.2113 31.4019 59.2069C31.4342 59.2023 31.4589 59.199 31.4762 59.1964L31.5612 59.709C31.5266 59.7182 31.478 59.7287 31.4154 59.7403C31.3528 59.7521 31.2771 59.7576 31.1883 59.7569C31.0236 59.7561 30.8806 59.7278 30.7594 59.6723C30.6383 59.6168 30.5458 59.5346 30.4822 59.4259C30.4183 59.3171 30.3906 59.1822 30.3988 59.0209L30.5032 56.6372H30.5033Z" fill="#085493"/>
<path d="M32.3782 56.9499C32.2765 56.9514 32.1892 56.919 32.1162 56.8527C32.043 56.7864 32.0058 56.7057 32.0044 56.6105C32.0031 56.5154 32.0382 56.4334 32.1099 56.3645C32.1817 56.2955 32.2677 56.2603 32.3682 56.2589C32.4698 56.2574 32.5571 56.2898 32.6302 56.3561C32.7033 56.4225 32.7406 56.5032 32.7419 56.5983C32.7433 56.6935 32.7084 56.7755 32.6371 56.8444C32.566 56.9134 32.4796 56.9485 32.3782 56.9499ZM32.075 59.7351L32.0397 57.2724L32.7226 57.2625L32.7581 59.7254L32.075 59.7351Z" fill="#085493"/>
<path d="M34.5621 57.1516L34.5992 57.6633L33.0831 57.7735L33.0459 57.2617L34.5621 57.1516ZM33.5714 59.6931L33.3801 57.059C33.3672 56.881 33.3913 56.7308 33.4527 56.6083C33.514 56.486 33.6033 56.3911 33.7207 56.3237C33.838 56.2563 33.9739 56.2169 34.1285 56.2057C34.233 56.198 34.3293 56.1992 34.4173 56.2089C34.5054 56.2186 34.5712 56.2283 34.6148 56.238L34.5304 56.7586C34.5031 56.7519 34.4697 56.7464 34.4304 56.7416C34.3909 56.737 34.3508 56.7362 34.3103 56.7391C34.2102 56.7464 34.142 56.7747 34.1058 56.8239C34.0697 56.8731 34.0547 56.9393 34.0608 57.0225L34.251 59.6438L33.5714 59.6931Z" fill="#085493"/>
<path d="M35.2456 56.7418C35.1449 56.755 35.0545 56.733 34.9742 56.6756C34.8939 56.6182 34.8475 56.5423 34.8351 56.448C34.8227 56.3536 34.8481 56.2681 34.9113 56.1913C34.9746 56.1145 35.056 56.0696 35.1556 56.0565C35.2564 56.0434 35.3468 56.0654 35.4272 56.1228C35.5075 56.1803 35.5538 56.2561 35.5662 56.3504C35.5786 56.4447 35.5534 56.5302 35.4907 56.6068C35.4281 56.6837 35.3463 56.7285 35.2456 56.7418ZM35.2674 59.5434L34.9467 57.1014L35.624 57.0123L35.9447 59.4544L35.2674 59.5434Z" fill="#085493"/>
<path d="M37.7454 59.1807C37.4975 59.2329 37.2737 59.2274 37.0742 59.1639C36.8746 59.1006 36.707 58.9862 36.5717 58.8207C36.4363 58.6552 36.342 58.4453 36.2884 58.1912C36.2363 57.9433 36.2385 57.7156 36.2954 57.5081C36.3523 57.3006 36.4573 57.1261 36.6105 56.9846C36.7637 56.8431 36.9585 56.7475 37.195 56.6977C37.3539 56.6642 37.5076 56.6584 37.6558 56.6802C37.8041 56.702 37.9404 56.7528 38.0648 56.8324C38.1892 56.9122 38.2963 57.0227 38.3861 57.1638C38.476 57.3049 38.5424 57.4781 38.5855 57.683L38.6243 57.8666L36.589 58.2951L36.5018 57.8807L37.9078 57.5848C37.8876 57.4886 37.8486 57.4077 37.7912 57.3422C37.7336 57.2767 37.6637 57.2306 37.5809 57.2036C37.4983 57.1769 37.4084 57.1737 37.3111 57.1942C37.2095 57.2155 37.1247 57.2577 37.0566 57.3207C36.9885 57.3836 36.9406 57.4586 36.9132 57.5458C36.8856 57.633 36.8813 57.7244 36.9004 57.8198L36.9832 58.2135C37.0084 58.3328 37.0523 58.4312 37.115 58.5087C37.1777 58.5862 37.2548 58.6398 37.3464 58.6698C37.4378 58.6996 37.5396 58.7028 37.6515 58.6792C37.7257 58.6636 37.7915 58.6388 37.8489 58.605C37.9062 58.5711 37.9524 58.5285 37.9876 58.4775C38.0227 58.4265 38.0454 58.368 38.0556 58.3026L38.6824 58.2132C38.6824 58.3684 38.6456 58.5114 38.572 58.6421C38.4984 58.7728 38.3919 58.8848 38.2527 58.9781C38.1133 59.0713 37.9443 59.1389 37.7455 59.1806L37.7454 59.1807Z" fill="#085493"/>
<path d="M40.3586 58.4837C40.1809 58.5418 40.005 58.5484 39.8311 58.5036C39.6572 58.4586 39.4991 58.3602 39.3566 58.2083C39.2142 58.0564 39.1001 57.8499 39.0147 57.5888C38.927 57.3206 38.8972 57.0831 38.9252 56.8766C38.9532 56.67 39.0246 56.4988 39.1394 56.3628C39.254 56.2269 39.3973 56.1309 39.569 56.0748C39.7 56.0319 39.8168 56.0181 39.919 56.0336C40.0214 56.0491 40.1105 56.0806 40.1863 56.1285C40.2621 56.1762 40.3245 56.2269 40.3735 56.2806L40.3934 56.2741L40.0095 55.1005L40.6572 54.8887L41.6781 58.01L41.038 58.2194L40.9154 57.8445L40.8879 57.8534C40.8787 57.9285 40.8568 58.0068 40.8222 58.0884C40.7876 58.17 40.7331 58.2461 40.6589 58.3164C40.5847 58.3868 40.4845 58.4427 40.3586 58.4839L40.3586 58.4837ZM40.3954 57.8997C40.5 57.8655 40.5793 57.8078 40.6332 57.7267C40.6871 57.6456 40.7166 57.5466 40.7218 57.4302C40.7269 57.3139 40.7069 57.186 40.6613 57.0468C40.6157 56.9076 40.5569 56.793 40.4848 56.7031C40.4126 56.6132 40.3307 56.5521 40.2393 56.5201C40.1478 56.4881 40.0498 56.4893 39.9452 56.5235C39.8384 56.5584 39.7581 56.6168 39.7038 56.6986C39.6496 56.7805 39.6205 56.8789 39.6165 56.9937C39.6124 57.1087 39.6326 57.2337 39.6768 57.3688C39.7213 57.505 39.7796 57.6188 39.8518 57.7105C39.924 57.8023 40.0059 57.8654 40.0977 57.9001C40.1895 57.9348 40.2887 57.9346 40.3954 57.8997Z" fill="#085493"/>
<path d="M10.0617 14.9055L12.494 16.7705L12.2127 17.1374L9.78027 15.2724L10.0617 14.9055Z" fill="#085493"/>
<path d="M10.778 14.6074L10.4814 14.3418L12.0644 12.5751L12.3609 12.8407L11.7228 13.553L13.7091 15.3326L13.4015 15.676L11.4151 13.8963L10.778 14.6074Z" fill="#085493"/>
<path d="M15.3156 10.7606C15.2132 10.6615 15.0924 10.6185 14.9533 10.6317C14.8141 10.6449 14.6768 10.7073 14.5413 10.819C14.4443 10.8989 14.3729 10.9833 14.3271 11.072C14.2814 11.1609 14.2608 11.2476 14.2654 11.3324C14.27 11.4172 14.2999 11.4931 14.355 11.56C14.4013 11.6163 14.4547 11.6537 14.5148 11.6727C14.5751 11.6917 14.6381 11.6968 14.7041 11.6883C14.7702 11.6798 14.8357 11.6639 14.9007 11.6408C14.9656 11.6176 15.026 11.5928 15.0816 11.5663L15.3622 11.4359C15.4528 11.3923 15.5509 11.3535 15.6562 11.3197C15.7614 11.2859 15.8693 11.2669 15.9795 11.2627C16.0898 11.2583 16.1974 11.277 16.3021 11.3186C16.407 11.3604 16.5031 11.4342 16.5907 11.5405C16.7012 11.6744 16.7647 11.8218 16.7815 11.9825C16.7982 12.1433 16.7661 12.3074 16.685 12.4751C16.6041 12.6427 16.4712 12.8027 16.2864 12.955C16.1092 13.1008 15.9329 13.1991 15.7573 13.2495C15.5816 13.2999 15.4144 13.3035 15.256 13.2602C15.0975 13.217 14.9557 13.1273 14.8307 12.9912L15.1887 12.6961C15.266 12.7759 15.3525 12.8239 15.448 12.8401C15.5436 12.8565 15.6408 12.8468 15.74 12.8109C15.8391 12.7751 15.9346 12.7194 16.0262 12.6439C16.1271 12.5608 16.2038 12.4707 16.2564 12.3737C16.309 12.2767 16.3343 12.1808 16.3325 12.086C16.3307 11.9911 16.298 11.9053 16.2345 11.8283C16.1767 11.7583 16.1097 11.7172 16.0332 11.7052C15.9567 11.6933 15.8728 11.7004 15.7813 11.7267C15.6897 11.7529 15.5925 11.7897 15.4894 11.8373L15.1471 11.9914C14.9151 12.096 14.7026 12.1438 14.5097 12.1346C14.3167 12.1257 14.1523 12.0388 14.0165 11.874C13.9041 11.7377 13.843 11.5883 13.8332 11.4257C13.8233 11.2631 13.8582 11.1016 13.9379 10.9409C14.0176 10.7802 14.1366 10.6346 14.2952 10.5038C14.4553 10.3718 14.62 10.2833 14.7891 10.2383C14.9582 10.1933 15.1187 10.1906 15.2705 10.2305C15.4222 10.2703 15.5519 10.3524 15.6598 10.4768L15.3156 10.7606V10.7606Z" fill="#085493"/>
<path d="M18.3427 11.4268C18.1542 11.5525 17.9652 11.62 17.7754 11.6295C17.5857 11.6391 17.4051 11.5947 17.2333 11.4964C17.0617 11.3979 16.9097 11.2495 16.7773 11.0511C16.6468 10.8552 16.5684 10.658 16.5422 10.4596C16.516 10.2612 16.5413 10.0759 16.6178 9.90381C16.6943 9.7317 16.8214 9.58637 16.999 9.46799C17.107 9.39604 17.2234 9.34419 17.3486 9.31235C17.4737 9.28052 17.6019 9.276 17.7333 9.29858C17.8648 9.32138 17.9943 9.37798 18.1219 9.46859C18.2494 9.55928 18.371 9.69128 18.4867 9.86483L18.5747 9.99683L17.0543 11.0105L16.8683 10.7316L18.0238 9.96116C17.9585 9.86325 17.8806 9.78965 17.7902 9.74013C17.6996 9.69076 17.6038 9.66803 17.5027 9.67187C17.4015 9.67578 17.3028 9.7098 17.2065 9.77392C17.1019 9.84376 17.0278 9.92993 16.9842 10.0327C16.9406 10.1355 16.9252 10.2418 16.9377 10.3515C16.9503 10.4612 16.9884 10.5638 17.0521 10.6593L17.1974 10.8772C17.2827 11.0051 17.3778 11.0988 17.4828 11.1582C17.5878 11.2178 17.6966 11.2438 17.8093 11.2365C17.9219 11.2291 18.0326 11.1892 18.1413 11.1167C18.2119 11.0697 18.2695 11.0166 18.314 10.9575C18.3585 10.8985 18.3885 10.8344 18.4037 10.7655C18.4189 10.6966 18.4178 10.6248 18.4004 10.5501L18.7951 10.3786C18.8361 10.5013 18.8461 10.6256 18.8252 10.7518C18.8043 10.8777 18.7535 10.9985 18.6729 11.1141C18.5922 11.2295 18.4821 11.3337 18.3426 11.4267L18.3427 11.4268Z" fill="#085493"/>
<path d="M19.5251 10.6293L18.4067 8.62087L18.7846 8.41044L18.9622 8.72947L18.9831 8.7178C18.9595 8.58941 18.9768 8.46809 19.0349 8.35408C19.0931 8.23998 19.181 8.15027 19.2987 8.08472C19.3231 8.07118 19.3526 8.0559 19.3871 8.03897C19.4216 8.02203 19.4492 8.00954 19.4699 8.00149L19.6782 8.37545C19.6601 8.37989 19.6294 8.39035 19.5861 8.40698C19.5429 8.42377 19.5012 8.44318 19.461 8.46546C19.3686 8.51701 19.2973 8.58219 19.2469 8.66098C19.1967 8.73985 19.1696 8.82505 19.1659 8.91671C19.1622 9.00853 19.1845 9.09794 19.2332 9.18509L19.9161 10.4117L19.5252 10.6293H19.5251Z" fill="#085493"/>
<path d="M21.7942 6.93612L21.9875 9.37384L21.5516 9.57215L19.8394 7.82561L20.2767 7.62662L21.5392 8.99559L21.561 8.98573L21.3569 7.13503L21.7942 6.93612Z" fill="#085493"/>
<path d="M22.3805 6.34827C22.3076 6.37566 22.2361 6.37468 22.1658 6.34511C22.0955 6.31553 22.0476 6.26669 22.022 6.1985C21.9959 6.12941 21.9997 6.06063 22.033 5.99207C22.0664 5.92358 22.1195 5.87564 22.1924 5.84824C22.2652 5.82093 22.3368 5.82183 22.4071 5.85148C22.4774 5.88098 22.5253 5.9299 22.5509 5.99801C22.5769 6.0671 22.5732 6.13596 22.5398 6.20445C22.5065 6.27293 22.4534 6.32087 22.3805 6.34827ZM23.103 8.9116L22.2939 6.75993L22.7127 6.60234L23.5218 8.75408L23.103 8.9116Z" fill="#085493"/>
<path d="M24.9776 8.32164C24.7645 8.38576 24.5667 8.39238 24.3842 8.34151C24.2017 8.29071 24.0436 8.19212 23.91 8.04566C23.7764 7.89951 23.6764 7.71595 23.61 7.49522C23.5427 7.2717 23.5254 7.06142 23.5579 6.8647C23.5903 6.66789 23.6685 6.49833 23.7924 6.35572C23.9162 6.21325 24.0818 6.11082 24.2892 6.04843C24.4563 5.99816 24.6147 5.98409 24.7642 6.00636C24.9136 6.02857 25.0453 6.08305 25.1594 6.16953C25.2735 6.25607 25.3605 6.37122 25.4203 6.51467L25.0032 6.64012C24.9492 6.54379 24.8702 6.47064 24.7662 6.42074C24.662 6.37077 24.5417 6.36633 24.405 6.40735C24.2856 6.44339 24.1906 6.50609 24.1202 6.59549C24.0496 6.6849 24.0068 6.7947 23.9918 6.92483C23.9768 7.05495 23.9928 7.19824 24.0399 7.35501C24.0883 7.51546 24.1543 7.64671 24.2381 7.74854C24.3219 7.85044 24.418 7.92006 24.5266 7.95708C24.6352 7.99426 24.7502 7.99456 24.8715 7.95814C24.9527 7.93368 25.022 7.89642 25.0794 7.84638C25.1368 7.79633 25.1797 7.73627 25.208 7.66621C25.2365 7.59614 25.2478 7.51877 25.2422 7.43396L25.6592 7.30857C25.6868 7.45556 25.6787 7.59652 25.6349 7.73161C25.5911 7.86662 25.5142 7.98576 25.404 8.08871C25.2938 8.19159 25.1517 8.26918 24.9778 8.32156L24.9776 8.32164Z" fill="#085493"/>
<path d="M27.2517 7.76096C27.0296 7.80521 26.829 7.79543 26.6501 7.73183C26.471 7.66816 26.321 7.55813 26.1999 7.40167C26.0788 7.24521 25.9949 7.04991 25.9484 6.81608C25.9025 6.58518 25.9054 6.37295 25.9569 6.17961C26.0085 5.98634 26.1025 5.82469 26.2389 5.69479C26.3753 5.56497 26.5483 5.47917 26.7578 5.43748C26.8849 5.41219 27.0124 5.4088 27.1402 5.42709C27.268 5.44546 27.3883 5.49024 27.5011 5.56136C27.6139 5.63248 27.712 5.7343 27.7953 5.86676C27.8786 5.99929 27.9406 6.16779 27.9812 6.37227L28.0122 6.52783L26.2199 6.88419L26.1545 6.55538L27.5167 6.2846C27.4939 6.16907 27.4499 6.07116 27.3852 5.99109C27.3205 5.91086 27.2405 5.85329 27.1456 5.81821C27.0506 5.78307 26.9464 5.7769 26.8329 5.79948C26.7095 5.82401 26.6081 5.87549 26.5286 5.95391C26.449 6.03225 26.3942 6.1246 26.3639 6.23079C26.3337 6.33698 26.3297 6.44633 26.3521 6.55892L26.4032 6.81578C26.4332 6.96652 26.4854 7.08942 26.5597 7.18432C26.634 7.27945 26.7246 7.34515 26.8315 7.38135C26.9384 7.41755 27.0559 7.42297 27.1842 7.39745C27.2673 7.38097 27.3408 7.35388 27.4046 7.31633C27.4683 7.27862 27.5203 7.23091 27.5608 7.17311C27.6011 7.11523 27.6275 7.04848 27.6399 6.97269L28.0703 6.96486C28.0613 7.09393 28.0232 7.21262 27.9557 7.32107C27.8883 7.42959 27.7952 7.52193 27.6766 7.59795C27.5579 7.67388 27.4163 7.72814 27.2519 7.76088L27.2517 7.76096Z" fill="#085493"/>
<path d="M29.6418 4.24439L30.2027 4.22859L31.2457 6.58247L31.2817 6.58142L32.1894 4.17215L32.7505 4.15619L32.8373 7.21999L32.3975 7.23249L32.3346 5.01535L32.3062 5.01625L31.4653 7.25446L31.1003 7.26485L30.1338 5.07639L30.1054 5.07721L30.1683 7.29578L29.7285 7.30827L29.6416 4.24432L29.6418 4.24439Z" fill="#085493"/>
<path d="M34.0493 7.39151C33.9043 7.37789 33.7757 7.33853 33.6635 7.27343C33.5514 7.20825 33.4662 7.1208 33.4079 7.01115C33.3496 6.90142 33.3274 6.7716 33.3415 6.62153C33.3536 6.49239 33.3884 6.38846 33.446 6.30973C33.5035 6.23086 33.5767 6.17111 33.6658 6.13032C33.7548 6.0896 33.8526 6.06176 33.9592 6.0467C34.0658 6.03173 34.1739 6.02285 34.2834 6.02006C34.422 6.01698 34.5345 6.01434 34.6209 6.01186C34.7072 6.00945 34.771 5.99816 34.812 5.97807C34.8529 5.95782 34.876 5.92079 34.881 5.86713L34.882 5.85675C34.8942 5.72663 34.8672 5.62232 34.8009 5.54397C34.7346 5.46563 34.6294 5.41972 34.4854 5.4061C34.3354 5.39195 34.2143 5.414 34.1222 5.47195C34.0301 5.52997 33.9639 5.59763 33.9235 5.675L33.5138 5.54028C33.5765 5.40595 33.6598 5.30028 33.7637 5.22337C33.8676 5.14645 33.9841 5.09422 34.1129 5.06668C34.2418 5.03921 34.3752 5.03206 34.5133 5.04493C34.6047 5.05351 34.7008 5.0733 34.8016 5.10431C34.9024 5.13539 34.9951 5.1834 35.0797 5.24843C35.1642 5.31353 35.2304 5.4012 35.2782 5.51138C35.326 5.62156 35.342 5.76012 35.3264 5.92697L35.1837 7.4469L34.7486 7.40596L34.7781 7.09311L34.7601 7.09145C34.7259 7.14632 34.6774 7.19892 34.6146 7.24919C34.5517 7.29932 34.4733 7.3386 34.3795 7.3669C34.2856 7.39512 34.1756 7.40333 34.0495 7.39143L34.0493 7.39151ZM34.1797 7.04298C34.3029 7.05457 34.4107 7.04013 34.5032 6.99979C34.5957 6.95937 34.6688 6.90172 34.7224 6.82714C34.776 6.75256 34.807 6.67 34.8155 6.57961L34.8432 6.28452C34.8258 6.29897 34.7939 6.31079 34.7474 6.31989C34.701 6.32915 34.6485 6.3357 34.59 6.33976C34.5314 6.34383 34.4746 6.34706 34.4192 6.34925C34.3639 6.3515 34.3175 6.35354 34.2804 6.35504C34.1929 6.35775 34.1125 6.36881 34.039 6.388C33.9655 6.40727 33.9055 6.43888 33.8587 6.48313C33.812 6.52731 33.7849 6.5891 33.7774 6.66857C33.767 6.77883 33.8 6.86598 33.8761 6.92964C33.9523 6.99346 34.0535 7.03124 34.1797 7.04314L34.1797 7.04298Z" fill="#085493"/>
<path d="M36.4034 6.2633L36.146 7.60374L35.7065 7.5193L36.14 5.26182L36.5619 5.3428L36.4913 5.71022L36.5192 5.71556C36.594 5.60606 36.6941 5.52576 36.8192 5.47443C36.9443 5.42333 37.0916 5.41407 37.2612 5.44666C37.415 5.47624 37.5435 5.53419 37.6469 5.62051C37.7501 5.70691 37.8215 5.81949 37.8609 5.95797C37.9004 6.09667 37.9022 6.25908 37.8664 6.44527L37.5907 7.88122L37.1512 7.79693L37.4168 6.41382C37.4482 6.25013 37.4302 6.11391 37.3627 6.00486C37.2953 5.89596 37.187 5.8271 37.0381 5.7985C36.9362 5.77893 36.8416 5.78367 36.7542 5.81265C36.6669 5.84162 36.5923 5.89408 36.5305 5.97009C36.4686 6.0461 36.4262 6.14394 36.4034 6.26337L36.4034 6.2633Z" fill="#085493"/>
<path d="M38.7337 8.24548C38.594 8.20453 38.4751 8.14139 38.3774 8.0562C38.2797 7.97093 38.2127 7.86903 38.1762 7.7502C38.1397 7.63136 38.1427 7.49973 38.185 7.35508C38.2214 7.23068 38.2753 7.13518 38.3467 7.06865C38.4182 7.00219 38.5015 6.95749 38.5965 6.93438C38.6916 6.91128 38.793 6.90248 38.9006 6.90789C39.0081 6.91346 39.1159 6.9252 39.224 6.94334C39.3605 6.96675 39.4715 6.98541 39.5568 6.99948C39.6422 7.01356 39.7067 7.01446 39.7508 7.00242C39.7949 6.99038 39.8245 6.95847 39.8397 6.90676L39.8426 6.89668C39.8793 6.77122 39.8725 6.66368 39.8223 6.57419C39.7721 6.48471 39.6776 6.41946 39.5388 6.3789C39.3941 6.3366 39.2711 6.33517 39.1697 6.37461C39.0682 6.41397 38.9903 6.46793 38.936 6.53626L38.5593 6.32614C38.6463 6.20603 38.7483 6.11812 38.865 6.06236C38.9816 6.00659 39.1058 5.97739 39.2375 5.97498C39.3693 5.97242 39.5017 5.99056 39.6348 6.02954C39.7228 6.05543 39.8135 6.09314 39.9066 6.14266C39.9996 6.19225 40.0815 6.25705 40.1522 6.33705C40.2228 6.41698 40.2712 6.51557 40.2972 6.63282C40.3232 6.75015 40.3126 6.88923 40.2655 7.05006L39.8368 8.5152L39.4174 8.39238L39.5057 8.09074L39.4885 8.08578C39.4445 8.13319 39.3868 8.17556 39.3156 8.21296C39.2444 8.25037 39.16 8.274 39.0625 8.28386C38.965 8.29379 38.8554 8.281 38.7338 8.24533L38.7337 8.24548ZM38.928 7.92803C39.0467 7.9628 39.1554 7.96905 39.2538 7.947C39.3523 7.92487 39.4349 7.88227 39.5017 7.81921C39.5686 7.75607 39.6147 7.68103 39.6402 7.59388L39.7234 7.30948C39.7036 7.32039 39.67 7.32581 39.6227 7.32596C39.5753 7.32618 39.5225 7.32272 39.4643 7.31542C39.4062 7.30835 39.3496 7.30067 39.2948 7.29239C39.2401 7.28411 39.1943 7.27727 39.1574 7.2717C39.0711 7.25785 38.99 7.25341 38.9143 7.25823C38.8385 7.26304 38.7735 7.28276 38.7192 7.31723C38.6648 7.35185 38.6265 7.40731 38.6041 7.484C38.573 7.59027 38.5888 7.68201 38.6515 7.75915C38.7142 7.83607 38.8063 7.89243 38.928 7.92803Z" fill="#085493"/>
<path d="M40.8896 9.88658C40.7202 9.81847 40.5836 9.73764 40.4797 9.64432C40.3759 9.55092 40.3002 9.45211 40.2528 9.34818C40.2054 9.24402 40.1802 9.14091 40.1772 9.03863L40.5933 9.03495C40.6019 9.08575 40.618 9.14257 40.6417 9.20533C40.6654 9.2681 40.7071 9.33026 40.7667 9.3919C40.8263 9.45354 40.9135 9.5075 41.0284 9.55363C41.1857 9.61693 41.3311 9.63107 41.4646 9.596C41.5981 9.56093 41.6983 9.46016 41.7654 9.29346L41.934 8.87419L41.9075 8.86351C41.8643 8.89888 41.8082 8.93485 41.7391 8.97165C41.67 9.0083 41.5865 9.03073 41.4887 9.03863C41.3909 9.04661 41.2768 9.02441 41.1461 8.97195C40.9777 8.90415 40.8421 8.8036 40.7392 8.67024C40.6363 8.53688 40.577 8.37703 40.5611 8.19046C40.5453 8.00389 40.583 7.79731 40.6743 7.57055C40.7655 7.3438 40.8823 7.16483 41.0247 7.03395C41.1671 6.90308 41.3234 6.82157 41.4934 6.78936C41.6634 6.75715 41.8339 6.77551 42.0052 6.8443C42.1377 6.89766 42.2357 6.96261 42.2995 7.03937C42.3632 7.11614 42.4063 7.1929 42.4287 7.26959C42.4511 7.34643 42.4657 7.41198 42.4729 7.46639L42.5034 7.47866L42.6425 7.13299L43.0493 7.29661L42.1725 9.47664C42.0988 9.6599 41.9957 9.79311 41.8633 9.8765C41.7307 9.95973 41.5808 10.0004 41.4132 9.99872C41.2456 9.99683 41.0711 9.95951 40.8897 9.8865L40.8896 9.88658ZM41.3764 8.66452C41.4958 8.71254 41.6081 8.72525 41.7135 8.70253C41.8189 8.6798 41.9142 8.62471 41.9996 8.53681C42.0848 8.44905 42.1571 8.33157 42.2163 8.18444C42.274 8.04092 42.3035 7.90613 42.3049 7.7797C42.3063 7.65334 42.2782 7.54278 42.2205 7.44818C42.1629 7.35335 42.0736 7.28171 41.9522 7.23294C41.8273 7.18267 41.7102 7.17288 41.601 7.20374C41.4918 7.23459 41.394 7.29653 41.3076 7.38985C41.2212 7.48303 41.1506 7.59772 41.0959 7.73371C41.0397 7.87355 41.0116 8.0048 41.0118 8.12732C41.0119 8.24999 41.0419 8.35784 41.1019 8.45078C41.1619 8.54373 41.2534 8.61492 41.3764 8.66452Z" fill="#085493"/>
<path d="M43.5283 10.1557C43.3277 10.0506 43.1777 9.91706 43.0784 9.75518C42.979 9.59345 42.9313 9.4135 42.9353 9.21564C42.9394 9.01771 42.9966 8.81316 43.1073 8.60206C43.2166 8.39344 43.3521 8.23012 43.5136 8.11197C43.6751 7.99396 43.8498 7.92721 44.0375 7.9117C44.2253 7.89635 44.4137 7.93827 44.6029 8.03731C44.7177 8.09759 44.8192 8.17496 44.9071 8.26941C44.995 8.36393 45.0605 8.47426 45.1036 8.60047C45.1466 8.72676 45.159 8.86757 45.1407 9.02298C45.1224 9.17831 45.0648 9.3484 44.968 9.53301L44.8944 9.6736L43.2757 8.82535L43.4312 8.52845L44.6615 9.17297C44.7162 9.06874 44.7435 8.96503 44.7434 8.86193C44.7434 8.7589 44.7174 8.66384 44.6655 8.57692C44.6136 8.49007 44.5364 8.41978 44.4339 8.36604C44.3225 8.30772 44.2113 8.28401 44.1002 8.29507C43.989 8.30614 43.8884 8.34354 43.7981 8.40713C43.7078 8.47088 43.6361 8.55344 43.5828 8.65511L43.4613 8.88714C43.3899 9.02321 43.3534 9.15152 43.3515 9.27216C43.3497 9.39288 43.3789 9.50103 43.4394 9.59623C43.4999 9.69158 43.588 9.76955 43.7038 9.83021C43.7789 9.86965 43.8531 9.89463 43.9263 9.90539C43.9995 9.91623 44.07 9.91179 44.1378 9.89207C44.2054 9.87236 44.268 9.83691 44.3253 9.78588L44.665 10.05C44.577 10.1448 44.4727 10.2132 44.3521 10.2553C44.2315 10.2975 44.1011 10.3107 43.9611 10.2954C43.821 10.28 43.6768 10.2335 43.5283 10.1557Z" fill="#085493"/>
<path d="M44.792 10.758L46.1 8.86757L46.4532 9.11194L46.2404 9.41967L46.2637 9.43585C46.3751 9.35894 46.4959 9.32198 46.6259 9.32522C46.756 9.32838 46.8834 9.37316 47.0081 9.45941C47.1344 9.54693 47.22 9.64974 47.2649 9.76812C47.3097 9.88658 47.3169 10.0117 47.2865 10.1434L47.3062 10.1571C47.4211 10.0874 47.5487 10.0564 47.6889 10.0643C47.829 10.0721 47.9672 10.1231 48.1035 10.2173C48.2749 10.336 48.3779 10.4867 48.4123 10.6694C48.4466 10.8521 48.3888 11.0518 48.2389 11.2684L47.3619 12.5361L46.9939 12.2815L47.8471 11.0482C47.9357 10.9203 47.9649 10.8033 47.935 10.6976C47.9049 10.5921 47.8416 10.5057 47.7447 10.4388C47.6249 10.3558 47.5064 10.328 47.3891 10.3556C47.2718 10.3831 47.1735 10.4543 47.0939 10.5691L46.2603 11.7741L45.8936 11.5202L46.763 10.2637C46.8339 10.1611 46.859 10.0566 46.8382 9.94987C46.8173 9.84323 46.7556 9.75442 46.653 9.68353C46.5832 9.63521 46.5065 9.60902 46.4226 9.60503C46.3386 9.60082 46.2564 9.61896 46.1759 9.65907C46.0953 9.69918 46.0256 9.76187 45.9665 9.84722L45.1601 11.0128L44.7921 10.7582L44.792 10.758Z" fill="#085493"/>
<path d="M48.4498 13.5767C48.2807 13.426 48.1675 13.2601 48.1103 13.079C48.0532 12.8979 48.0506 12.7118 48.1024 12.5208C48.1542 12.3299 48.2594 12.1453 48.4181 11.9673C48.5747 11.7914 48.7457 11.6658 48.931 11.5904C49.1163 11.515 49.302 11.4926 49.4879 11.5232C49.6737 11.5536 49.8463 11.64 50.0059 11.7819C50.1027 11.8682 50.1823 11.9678 50.2447 12.0808C50.3071 12.1939 50.3439 12.3168 50.3552 12.4498C50.3663 12.5827 50.3442 12.7223 50.2887 12.8685C50.2333 13.0148 50.1362 13.1658 49.9975 13.3216L49.892 13.4401L48.5274 12.2249L48.7503 11.9745L49.7875 12.8982C49.8658 12.8102 49.9175 12.7162 49.9424 12.6162C49.9673 12.5161 49.9652 12.4177 49.9358 12.3208C49.9066 12.2239 49.8487 12.1371 49.7622 12.06C49.6684 11.9764 49.5662 11.9265 49.4558 11.9103C49.3452 11.894 49.2385 11.9059 49.1355 11.9458C49.0325 11.9857 48.9429 12.0485 48.8666 12.1342L48.6925 12.3298C48.5903 12.4445 48.5237 12.5602 48.4927 12.6769C48.4616 12.7935 48.4638 12.9054 48.4994 13.0125C48.5349 13.1196 48.6014 13.2166 48.6991 13.3036C48.7624 13.3599 48.8282 13.4023 48.8966 13.4305C48.965 13.4587 49.0345 13.4715 49.1051 13.4688C49.1756 13.4661 49.2447 13.4469 49.3127 13.4112L49.5783 13.7499C49.47 13.8205 49.3522 13.8615 49.225 13.8732C49.0977 13.8847 48.9681 13.8661 48.8358 13.8173C48.7038 13.7684 48.5751 13.6881 48.4498 13.5768L48.4498 13.5767Z" fill="#085493"/>
<path d="M50.8266 13.9047L49.8235 14.8302L49.52 14.5013L51.2095 12.9425L51.5008 13.2582L51.2258 13.5119L51.2452 13.5327C51.3704 13.4891 51.4987 13.4838 51.6297 13.5169C51.7607 13.55 51.8848 13.6301 52.0018 13.7569C52.108 13.8721 52.177 13.9951 52.2089 14.1259C52.2406 14.2567 52.2313 14.3896 52.1807 14.5246C52.13 14.6596 52.035 14.7913 51.8957 14.9199L50.8211 15.9115L50.5177 15.5826L51.5528 14.6275C51.6752 14.5146 51.7417 14.3942 51.7521 14.2664C51.7624 14.1387 51.7162 14.0191 51.6134 13.9077C51.543 13.8313 51.4642 13.779 51.3767 13.7503C51.2892 13.7218 51.198 13.7197 51.1031 13.7441C51.0082 13.7685 50.9161 13.822 50.8265 13.9046L50.8266 13.9047Z" fill="#085493"/>
<path d="M53.495 14.699L53.7712 15.051L52.0604 16.3933C51.992 16.4469 51.9488 16.4973 51.9307 16.5445C51.9126 16.5917 51.9101 16.6363 51.9235 16.6784C51.9369 16.7206 51.9588 16.7608 51.9889 16.7993C52.0111 16.8276 52.0324 16.8508 52.053 16.8689C52.0735 16.887 52.0896 16.901 52.1012 16.911L51.8602 17.2027C51.8364 17.1885 51.8055 17.1657 51.7678 17.1346C51.73 17.1033 51.6885 17.0598 51.6434 17.0039C51.5692 16.9125 51.518 16.8132 51.4897 16.7061C51.4614 16.5988 51.4639 16.4922 51.4974 16.3861C51.5309 16.28 51.6021 16.1841 51.7112 16.0985L53.4952 14.699L53.495 14.699ZM53.6288 15.7619L53.3463 15.9836L52.5712 14.9956L52.8538 14.7739L53.6288 15.7619Z" fill="#085493"/>
<path d="M19.1299 46.7209V45.8614L21.1821 43.6261C21.3784 43.4059 21.5419 43.2103 21.6728 43.0392C21.8036 42.8682 21.9018 42.7024 21.9672 42.5421C22.0326 42.3818 22.0654 42.2108 22.0654 42.029C22.0654 41.8217 22.0231 41.6437 21.9384 41.4951C21.8536 41.3464 21.7373 41.2316 21.5891 41.1503C21.4409 41.069 21.2725 41.0284 21.084 41.0284C20.8895 41.0284 20.7193 41.0729 20.5731 41.1615C20.4269 41.2503 20.3138 41.3759 20.234 41.5384C20.154 41.7009 20.1141 41.8943 20.1141 42.1189H19.0952C19.0952 41.702 19.1809 41.3396 19.3522 41.0317C19.5234 40.7238 19.7595 40.4855 20.0607 40.3165C20.3618 40.1476 20.7077 40.0632 21.0984 40.0632C21.4948 40.0632 21.8431 40.1455 22.1432 40.3101C22.4433 40.4747 22.6767 40.7003 22.8432 40.9868C23.0096 41.2734 23.0928 41.6004 23.0928 41.9681C23.0928 42.2141 23.0505 42.4557 22.9658 42.693C22.8811 42.9303 22.7324 43.1932 22.5199 43.4818C22.3072 43.7705 22.0094 44.12 21.6265 44.5306L20.6077 45.682V45.7269H23.1822V46.7211H19.1298L19.1299 46.7209Z" fill="#085493"/>
<path d="M26.3662 46.8459C25.891 46.8459 25.4835 46.7118 25.1439 46.4434C24.8042 46.1752 24.5435 45.787 24.3616 45.2792C24.1798 44.7715 24.0889 44.1595 24.0889 43.4432C24.0907 42.7269 24.1826 42.117 24.3645 41.6135C24.5463 41.1099 24.8071 40.7256 25.1468 40.4606C25.4864 40.1955 25.8929 40.0629 26.3662 40.0629C26.8395 40.0629 27.2465 40.1955 27.5871 40.4606C27.9278 40.7256 28.189 41.1106 28.3708 41.6151C28.5526 42.1197 28.6436 42.7291 28.6436 43.4432C28.6436 44.1615 28.5526 44.7746 28.3708 45.2824C28.189 45.7902 27.9282 46.1776 27.5886 46.4449C27.2489 46.7122 26.8414 46.8458 26.3662 46.8458V46.8459ZM26.3662 45.8421C26.7357 45.8421 27.0277 45.6396 27.2423 45.2344C27.4568 44.8292 27.564 44.2322 27.564 43.4432C27.564 42.9215 27.515 42.4832 27.4169 42.1283C27.3187 41.7734 27.1801 41.5056 27.0012 41.3249C26.8224 41.1442 26.6107 41.0539 26.3662 41.0539C25.9986 41.0539 25.7081 41.2564 25.4946 41.6616C25.281 42.0668 25.1731 42.6605 25.1712 43.4432C25.1694 43.967 25.2169 44.4074 25.3141 44.7645C25.4112 45.1216 25.5493 45.3904 25.7283 45.571C25.9073 45.7517 26.1198 45.8421 26.3662 45.8421Z" fill="#085493"/>
<path d="M31.7866 46.8459C31.3114 46.8459 30.9039 46.7118 30.5643 46.4434C30.2246 46.1752 29.9639 45.787 29.782 45.2792C29.6002 44.7715 29.5093 44.1595 29.5093 43.4432C29.5112 42.7269 29.603 42.117 29.7849 41.6135C29.9667 41.1099 30.2275 40.7256 30.5672 40.4606C30.9068 40.1955 31.3133 40.0629 31.7866 40.0629C32.2599 40.0629 32.6669 40.1955 33.0076 40.4606C33.3482 40.7256 33.6094 41.1106 33.7912 41.6151C33.9731 42.1197 34.064 42.7291 34.064 43.4432C34.064 44.1615 33.9731 44.7746 33.7912 45.2824C33.6094 45.7902 33.3486 46.1776 33.009 46.4449C32.6693 46.7122 32.2618 46.8458 31.7866 46.8458V46.8459ZM31.7866 45.8421C32.1561 45.8421 32.4481 45.6396 32.6627 45.2344C32.8772 44.8292 32.9844 44.2322 32.9844 43.4432C32.9844 42.9215 32.9354 42.4832 32.8373 42.1283C32.7391 41.7734 32.6005 41.5056 32.4217 41.3249C32.2428 41.1442 32.0311 41.0539 31.7866 41.0539C31.4191 41.0539 31.1286 41.2564 30.915 41.6616C30.7014 42.0668 30.5935 42.6605 30.5917 43.4432C30.5898 43.967 30.6373 44.4074 30.7345 44.7645C30.8317 45.1216 30.9698 45.3904 31.1487 45.571C31.3277 45.7517 31.5402 45.8421 31.7866 45.8421Z" fill="#085493"/>
<path d="M37.207 46.8459C36.7318 46.8459 36.3243 46.7118 35.9847 46.4434C35.645 46.1752 35.3843 45.787 35.2024 45.2792C35.0206 44.7715 34.9297 44.1595 34.9297 43.4432C34.9316 42.7269 35.0235 42.117 35.2053 41.6135C35.3871 41.1099 35.6479 40.7256 35.9876 40.4606C36.3272 40.1955 36.7337 40.0629 37.207 40.0629C37.6803 40.0629 38.0873 40.1955 38.428 40.4606C38.7686 40.7256 39.0298 41.1106 39.2116 41.6151C39.3935 42.1197 39.4844 42.7291 39.4844 43.4432C39.4844 44.1615 39.3935 44.7746 39.2116 45.2824C39.0298 45.7902 38.769 46.1776 38.4294 46.4449C38.0897 46.7122 37.6822 46.8458 37.207 46.8458V46.8459ZM37.207 45.8421C37.5765 45.8421 37.8685 45.6396 38.0831 45.2344C38.2976 44.8292 38.4049 44.2322 38.4049 43.4432C38.4049 42.9215 38.3558 42.4832 38.2577 42.1283C38.1595 41.7734 38.021 41.5056 37.8421 41.3249C37.6632 41.1442 37.4515 41.0539 37.207 41.0539C36.8395 41.0539 36.549 41.2564 36.3354 41.6616C36.1218 42.0668 36.0139 42.6605 36.0121 43.4432C36.0102 43.967 36.0577 44.4074 36.1549 44.7645C36.2521 45.1216 36.3902 45.3904 36.5691 45.571C36.7481 45.7517 36.9606 45.8421 37.207 45.8421Z" fill="#085493"/>
<path d="M42.6279 46.8459C42.1527 46.8459 41.7452 46.7118 41.4056 46.4434C41.0659 46.1752 40.8052 45.787 40.6233 45.2792C40.4415 44.7715 40.3506 44.1595 40.3506 43.4432C40.3525 42.7269 40.4444 42.117 40.6262 41.6135C40.808 41.1099 41.0688 40.7256 41.4085 40.4606C41.7481 40.1955 42.1546 40.0629 42.6279 40.0629C43.1012 40.0629 43.5082 40.1955 43.8489 40.4606C44.1895 40.7256 44.4507 41.1106 44.6325 41.6151C44.8144 42.1197 44.9053 42.7291 44.9053 43.4432C44.9053 44.1615 44.8144 44.7746 44.6325 45.2824C44.4507 45.7902 44.1899 46.1776 43.8503 46.4449C43.5106 46.7122 43.1031 46.8458 42.6279 46.8458V46.8459ZM42.6279 45.8421C42.9974 45.8421 43.2894 45.6396 43.504 45.2344C43.7185 44.8292 43.8258 44.2322 43.8258 43.4432C43.8258 42.9215 43.7767 42.4832 43.6786 42.1283C43.5804 41.7734 43.4419 41.5056 43.263 41.3249C43.0841 41.1442 42.8724 41.0539 42.6279 41.0539C42.2604 41.0539 41.9699 41.2564 41.7563 41.6616C41.5427 42.0668 41.4348 42.6605 41.433 43.4432C41.4311 43.967 41.4786 44.4074 41.5758 44.7645C41.673 45.1216 41.8111 45.3904 41.99 45.571C42.169 45.7517 42.3815 45.8421 42.6279 45.8421Z" fill="#085493"/>
</g>
<defs>
<clipPath id="clip0_24_2092">
<rect width="64" height="64" fill="white"/>
</clipPath>
</defs>
</svg>
