<svg width="64" height="64" viewBox="0 0 64 64" fill="none" xmlns="http://www.w3.org/2000/svg">
<g clip-path="url(#clip0_24_2353)">
<rect width="64" height="64" rx="32" fill="white"/>
<path fill-rule="evenodd" clip-rule="evenodd" d="M32 0C14.33 0 0 14.33 0 32C0 49.67 14.33 64 32 64C49.67 64 64 49.67 64 32C64 14.33 49.67 0 32 0ZM32 0.622125C49.3337 0.622125 63.3775 14.6671 63.3775 31.9996C63.3775 49.3321 49.3325 63.3771 32 63.3771C14.6675 63.3771 0.6225 49.3321 0.6225 31.9996C0.6225 14.6659 14.6675 0.622125 32 0.622125ZM62.5537 32C62.5537 15.1775 48.8225 1.44625 32 1.44625C15.1775 1.44625 1.44625 15.1775 1.44625 32C1.44625 48.8225 15.1775 62.5537 32 62.5537C48.8225 62.5537 62.5537 48.8225 62.5537 32ZM53.8766 32C53.8852 34.8752 53.3252 37.7238 52.2289 40.3818C51.1325 43.0398 49.5215 45.4549 47.4884 47.488C45.4552 49.5211 43.0402 51.1322 40.3822 52.2285C37.7242 53.3248 34.8756 53.8848 32.0004 53.8763C29.1251 53.8848 26.2766 53.3248 23.6186 52.2285C20.9605 51.1322 18.5455 49.5211 16.5124 47.488C14.4793 45.4549 12.8682 43.0398 11.7719 40.3818C10.6755 37.7238 10.1155 34.8752 10.1241 32C10.1155 29.1248 10.6755 26.2762 11.7719 23.6182C12.8682 20.9602 14.4793 18.5451 16.5124 16.512C18.5455 14.4789 20.9605 12.8678 23.6186 11.7715C26.2766 10.6752 29.1251 10.1152 32.0004 10.1237C34.8756 10.1152 37.7242 10.6752 40.3822 11.7715C43.0402 12.8678 45.4552 14.4789 47.4884 16.512C49.5215 18.5451 51.1325 20.9602 52.2289 23.6182C53.3252 26.2762 53.8852 29.1248 53.8766 32Z" fill="#00337C"/>
<path d="M6.27565 31.6281L7.42052 31.659L7.4004 32.4075L4.07715 32.3179L4.10877 31.1453C4.13136 30.3078 4.49569 29.8987 5.20177 29.9177C5.53552 29.9268 5.80265 30.0545 6.00315 30.3011C6.20215 30.5461 6.29623 30.8695 6.2854 31.2712L6.27565 31.6281ZM4.67202 31.5849L5.7079 31.6127L5.71577 31.3184C5.72652 30.9198 5.55732 30.7158 5.20815 30.7064C4.86673 30.6972 4.69065 30.8919 4.6799 31.2905L4.67202 31.5849ZM7.80352 27.5139L7.53102 29.489L4.23765 29.0346L4.49965 27.1353L5.10365 27.2186L4.94402 28.376L5.67665 28.4771L5.82527 27.4L6.42702 27.483L6.2784 28.5601L7.03165 28.664L7.20177 27.4306L7.80352 27.5139ZM8.60027 24.2825L8.38577 25.1154L7.4284 25.4026C7.3559 25.4239 7.29052 25.4453 7.23227 25.467C7.17402 25.4887 7.12306 25.513 7.0794 25.5401C7.03465 25.5653 6.99827 25.595 6.97027 25.6294C6.94119 25.6618 6.92086 25.7005 6.90927 25.7454L6.8589 25.9408L8.0914 26.2582L7.90465 26.9834L4.68515 26.1541L4.98127 25.0047C5.18252 24.2235 5.57502 23.908 6.15877 24.0584C6.27102 24.0873 6.37061 24.1313 6.45752 24.1904C6.54294 24.2491 6.61573 24.3197 6.6759 24.4023C6.73607 24.4848 6.78227 24.578 6.81452 24.6821C6.84719 24.7847 6.86515 24.8947 6.8684 25.012L6.8774 25.0144C6.90473 24.9704 6.9414 24.9303 6.9874 24.8943C7.0319 24.8578 7.08198 24.8245 7.13765 24.7941C7.19332 24.7638 7.25219 24.7367 7.31427 24.7127C7.37519 24.6869 7.4344 24.6647 7.4919 24.646L8.60027 24.2825ZM5.41515 25.5688L6.3109 25.7995L6.3919 25.4851C6.43198 25.3295 6.41927 25.1929 6.35377 25.0755C6.28719 24.9562 6.18652 24.8792 6.05177 24.8445C5.77036 24.772 5.58627 24.9041 5.49952 25.2409L5.41515 25.5688ZM8.55915 24.0949L7.86752 23.8265C8.02136 23.7419 8.15344 23.6365 8.26377 23.5103C8.37269 23.3834 8.45623 23.2451 8.5144 23.0952C8.54848 23.0073 8.57019 22.9279 8.57952 22.8569C8.58936 22.7845 8.58898 22.7213 8.5784 22.6675C8.5669 22.6117 8.54661 22.5657 8.51752 22.5295C8.48702 22.4927 8.44944 22.4657 8.40477 22.4484C8.34427 22.4249 8.28352 22.4212 8.22252 22.4374C8.16152 22.4535 8.09911 22.484 8.03527 22.5289C7.97202 22.5723 7.90573 22.6278 7.8364 22.6954C7.76707 22.763 7.69448 22.8368 7.61865 22.9167C7.42382 23.1197 7.23044 23.2527 7.03852 23.3159C6.84711 23.3775 6.6484 23.3684 6.4424 23.2885C6.28098 23.2259 6.15523 23.1398 6.06515 23.0303C5.97356 22.9201 5.91186 22.795 5.88002 22.655C5.84869 22.5135 5.84427 22.3626 5.86677 22.2022C5.88777 22.0413 5.93015 21.8787 5.9939 21.7145C6.05648 21.5531 6.12194 21.4143 6.19027 21.2983C6.25769 21.1802 6.33194 21.0764 6.41302 20.9869L7.05927 21.2376C7.00311 21.2755 6.94931 21.3202 6.8979 21.3715C6.84706 21.4214 6.8004 21.4754 6.7579 21.5335C6.71398 21.5911 6.67515 21.6506 6.6414 21.7121C6.60815 21.7722 6.58036 21.831 6.55802 21.8886C6.52727 21.9679 6.50723 22.043 6.4979 22.114C6.48715 22.1844 6.48677 22.2473 6.49677 22.3026C6.50686 22.3579 6.52656 22.4053 6.5559 22.445C6.58381 22.484 6.62157 22.5128 6.66915 22.5312C6.72098 22.5514 6.77311 22.5559 6.82552 22.5448C6.87652 22.533 6.93052 22.5092 6.98752 22.4734C7.04311 22.437 7.1029 22.3897 7.1669 22.3316C7.2294 22.273 7.29702 22.2055 7.36977 22.1294C7.46977 22.0256 7.56832 21.9362 7.6654 21.8611C7.76165 21.784 7.86019 21.7245 7.96102 21.6824C8.06194 21.6403 8.16719 21.619 8.27677 21.6184C8.38494 21.6173 8.50173 21.641 8.62715 21.6896C8.80007 21.7567 8.93273 21.8463 9.02515 21.9585C9.11673 22.0687 9.17744 22.1942 9.20727 22.335C9.23569 22.4753 9.23669 22.6266 9.21027 22.7887C9.18436 22.9495 9.13927 23.1127 9.07502 23.2784C9.00902 23.4484 8.93173 23.6049 8.84315 23.7479C8.75507 23.8895 8.6604 24.0052 8.55915 24.0952V24.0949ZM10.4375 20.3148C10.2101 20.7329 9.88898 20.9999 9.47415 21.1156C9.05798 21.2306 8.63127 21.1692 8.19402 20.9315C7.73236 20.6804 7.43169 20.3436 7.29202 19.9211C7.15236 19.4985 7.20252 19.0666 7.44252 18.6254C7.66919 18.2085 7.98877 17.946 8.40127 17.8379C8.81452 17.7283 9.24448 17.795 9.69115 18.0379C10.1501 18.2875 10.4473 18.6224 10.5829 19.0427C10.7192 19.4617 10.6709 19.8858 10.4375 20.3148ZM7.99877 18.9515C7.87327 19.1823 7.86048 19.4129 7.9604 19.6431C8.05898 19.8727 8.25086 20.065 8.53602 20.22C8.82519 20.3772 9.0909 20.4338 9.33315 20.3896C9.57531 20.3454 9.75623 20.2133 9.8759 19.9934C9.99923 19.7666 10.0156 19.5424 9.92502 19.3207C9.83311 19.0983 9.64186 18.9081 9.35127 18.7501C9.04852 18.5855 8.77786 18.5218 8.53927 18.5592C8.30077 18.5967 8.12061 18.7274 7.99877 18.9515ZM13.2853 15.9971L12.8294 16.5999L10.3369 16.4326C10.1911 16.423 10.0841 16.412 10.0161 16.3994L10.0105 16.4067C10.1117 16.4677 10.2584 16.571 10.4506 16.7164L11.9076 17.8184L11.4811 18.3824L8.82965 16.3769L9.3164 15.7334L11.7264 15.9023C11.8355 15.9092 11.9411 15.9193 12.0434 15.9328L12.049 15.9254C11.9799 15.8886 11.8548 15.8017 11.6735 15.6646L10.2073 14.5556L10.6338 13.9916L13.2853 15.9971ZM15.8814 13.3724L15.301 13.9461L14.6129 13.5865L13.772 14.4178L14.1254 15.1082L13.5484 15.6788L12.0716 12.4638L12.7031 11.8395L15.8814 13.3724ZM14.0868 13.2981L13.0473 12.7545C12.9699 12.7136 12.8866 12.6557 12.7974 12.5809L12.7841 12.5939C12.8471 12.6685 12.9013 12.7508 12.9466 12.8407L13.4816 13.8962L14.0868 13.2981ZM17.7865 11.9135L16.226 13.132L14.1799 10.5116L14.7701 10.0508L16.4424 12.1923L17.4126 11.4346L17.7865 11.9135ZM19.2533 10.9388L17.6866 8.0065L18.7254 7.4515C19.7669 6.89508 20.5422 7.09329 21.0513 8.04613C21.2953 8.50279 21.3476 8.94358 21.2084 9.3685C21.0705 9.79267 20.765 10.1311 20.292 10.3838L19.2533 10.9388ZM18.6344 8.1915L19.6275 10.0503L19.9546 9.8755C20.2409 9.72258 20.4193 9.51688 20.4898 9.25838C20.5616 8.99921 20.5185 8.72171 20.3604 8.42588C20.2111 8.14646 20.0127 7.97033 19.7653 7.8975C19.5184 7.82258 19.2492 7.86304 18.9575 8.01888L18.6344 8.1915ZM25.0476 8.35025L24.2836 8.637L23.8024 8.02775L22.6955 8.44325L22.7363 9.21788L21.9766 9.503L21.9413 5.96525L22.7725 5.65325L25.0476 8.35025ZM23.4396 7.54975L22.7126 6.629C22.6587 6.56008 22.6063 6.47329 22.5554 6.36863L22.538 6.37513C22.565 6.46904 22.5809 6.56625 22.5856 6.66675L22.643 7.84863L23.4396 7.54975ZM26.7425 5.17325L25.8231 5.40538L26.4878 8.0375L25.7595 8.22138L25.0949 5.58925L24.18 5.82025L24.0308 5.22913L26.5933 4.58213L26.7425 5.17325ZM30.4236 7.41888L29.6144 7.524L29.2846 6.82113L28.1121 6.9735L27.9753 7.737L27.1706 7.8415L27.9425 4.38875L28.823 4.27438L30.4236 7.41888ZM29.0404 6.273L28.5424 5.21088C28.5056 5.13146 28.4743 5.035 28.4486 4.9215L28.4303 4.92388C28.4352 5.02146 28.4285 5.11975 28.4101 5.21875L28.1966 6.38263L29.0404 6.273ZM32.9553 6.29388L32.8986 7.43775L32.1508 7.40075L32.3151 4.08038L33.4868 4.13838C34.3234 4.17979 34.7243 4.55325 34.6894 5.25875C34.6729 5.59217 34.5391 5.85633 34.288 6.05125C34.0386 6.24475 33.7132 6.33154 33.3118 6.31163L32.9553 6.29388ZM33.0346 4.6915L32.9834 5.7265L33.2775 5.741C33.6758 5.76075 33.8835 5.59617 33.9008 5.24725C33.9177 4.90608 33.727 4.72567 33.3286 4.706L33.0346 4.6915ZM37.816 8.05988L36.9684 7.91388L36.604 6.98313C36.5769 6.91263 36.5502 6.84921 36.5239 6.79288C36.4975 6.73654 36.469 6.68775 36.4385 6.6465C36.4098 6.60392 36.3772 6.57008 36.3408 6.545C36.3061 6.51867 36.2659 6.50154 36.2203 6.49363L36.0215 6.45938L35.8055 7.71375L35.0675 7.58663L35.6318 4.31025L36.8015 4.51175C37.5966 4.64867 37.943 5.01413 37.8408 5.60813C37.8211 5.72238 37.7854 5.82521 37.7335 5.91663C37.6819 6.00654 37.6175 6.08483 37.5401 6.1515C37.4628 6.21817 37.3736 6.27179 37.2725 6.31238C37.1729 6.35329 37.0648 6.38017 36.9481 6.393L36.9465 6.40213C36.9926 6.42579 37.0355 6.45904 37.0751 6.50188C37.1151 6.54329 37.1524 6.5905 37.1871 6.6435C37.2219 6.6965 37.2537 6.75296 37.2826 6.81288C37.3133 6.87146 37.3403 6.92867 37.3636 6.9845L37.816 8.05988ZM36.2744 4.99025L36.1174 5.90188L36.4373 5.957C36.5957 5.98425 36.7307 5.96046 36.8424 5.88563C36.9559 5.80954 37.0244 5.70296 37.048 5.56588C37.0974 5.27954 36.9506 5.10688 36.6079 5.04788L36.2744 4.99025ZM39.394 8.61625C38.9396 8.47425 38.6154 8.21104 38.4214 7.82663C38.2278 7.44071 38.2053 7.01025 38.3538 6.53525C38.5105 6.03367 38.7826 5.67338 39.17 5.45438C39.5574 5.23538 39.9909 5.20079 40.4704 5.35063C40.9233 5.49213 41.2429 5.75471 41.429 6.13838C41.6167 6.52246 41.6347 6.95721 41.483 7.44263C41.3272 7.94129 41.0563 8.29788 40.6703 8.51238C40.2857 8.72738 39.8604 8.76204 39.3943 8.61638L39.394 8.61625ZM40.2581 5.95938C40.0074 5.88104 39.7787 5.91321 39.5721 6.05588C39.3661 6.19713 39.2146 6.42267 39.1179 6.7325C39.0197 7.04675 39.0158 7.31838 39.1061 7.54738C39.1965 7.77638 39.3611 7.92821 39.6001 8.00288C39.8465 8.07988 40.0696 8.05242 40.2695 7.9205C40.4699 7.78717 40.6194 7.56267 40.718 7.247C40.8209 6.918 40.8308 6.64017 40.7478 6.4135C40.6648 6.18675 40.5016 6.03538 40.2581 5.95938ZM44.5608 7.7305L43.6988 7.3355L42.5676 9.8035L41.8848 9.4905L43.0159 7.0225L42.1581 6.62938L42.4121 6.07513L44.8148 7.17625L44.5608 7.7305ZM45.5279 11.4506L43.8159 10.4288L45.5199 7.574L47.1661 8.55675L46.8536 9.08025L45.8504 8.48138L45.4714 9.11638L46.405 9.67363L46.0936 10.1953L45.16 9.638L44.7703 10.291L45.8393 10.9291L45.5279 11.4506ZM47.9438 13.1009C47.6795 13.0476 47.3917 12.9027 47.0804 12.666C46.6743 12.3574 46.4457 11.9954 46.3945 11.5799C46.3434 11.1644 46.4688 10.7579 46.7709 10.3605C47.0926 9.93717 47.4839 9.69296 47.9449 9.62788C48.4071 9.56371 48.8469 9.69013 49.264 10.0071C49.5224 10.2035 49.7155 10.4016 49.8431 10.6015L49.4069 11.1756C49.3102 10.9351 49.1485 10.7288 48.922 10.5568C48.6734 10.3678 48.4135 10.2935 48.1421 10.3339C47.8708 10.3742 47.6337 10.5279 47.4308 10.7949C47.2363 11.0509 47.153 11.3099 47.181 11.5719C47.21 11.8326 47.3463 12.0556 47.5899 12.2408C47.8225 12.4175 48.0784 12.5227 48.3576 12.5562L47.9438 13.1009ZM51.8731 13.2511L51.1899 12.5936L49.3075 14.5499L48.7663 14.029L50.6486 12.0728L49.9688 11.4185L50.3915 10.9791L52.296 12.8118L51.8731 13.2511ZM50.7625 16.1239L50.2699 15.5599L52.7738 13.3728L53.2664 13.9368L50.7625 16.1239ZM52.0345 17.8651C51.76 17.4762 51.6626 17.0701 51.7421 16.6469C51.8231 16.2228 52.0668 15.8672 52.4734 15.5802C52.9027 15.2772 53.3378 15.1565 53.7785 15.2181C54.2193 15.2797 54.5845 15.5157 54.8741 15.926C55.1478 16.3137 55.2419 16.7164 55.1565 17.1341C55.0721 17.5532 54.8221 17.9094 54.4066 18.2026C53.9798 18.5039 53.5479 18.6224 53.111 18.5581C52.6749 18.4951 52.3161 18.2641 52.0344 17.8651H52.0345ZM54.3356 16.2806C54.1841 16.066 53.983 15.9525 53.7323 15.9404C53.4828 15.9273 53.2254 16.0143 52.9603 16.2015C52.6914 16.3913 52.5231 16.6047 52.4556 16.8415C52.3882 17.0782 52.4267 17.2989 52.571 17.5035C52.7199 17.7143 52.9137 17.8282 53.1526 17.845C53.3928 17.8609 53.648 17.7735 53.9181 17.5828C54.1997 17.384 54.3765 17.1694 54.4484 16.9389C54.5203 16.7084 54.4827 16.489 54.3356 16.2806ZM54.6474 22.3285L54.3085 21.653L55.5613 19.4918C55.6344 19.3652 55.6916 19.2742 55.733 19.2189L55.7289 19.2106C55.6295 19.2744 55.472 19.3603 55.2564 19.4684L53.6234 20.2875L53.3063 19.6555L56.2778 18.1647L56.6395 18.8859L55.422 20.9725C55.3675 21.0672 55.3116 21.1575 55.2544 21.2434L55.2585 21.2516C55.322 21.206 55.4553 21.1322 55.6584 21.0303L57.3016 20.2059L57.6188 20.8379L54.6474 22.3285ZM56.143 27.0964L55.9271 26.3094L56.5778 25.8857L56.265 24.7455L55.4899 24.7153L55.2753 23.9328L58.8014 24.2205L59.0363 25.0767L56.143 27.0964ZM57.0869 25.5681L58.0701 24.9282C58.1437 24.8808 58.2349 24.8366 58.3439 24.7955L58.339 24.7776C58.2431 24.796 58.1449 24.8029 58.0443 24.7984L56.862 24.7476L57.0869 25.5681ZM56.6281 29.7843C56.4779 29.5604 56.3754 29.2549 56.3208 28.8678C56.2494 28.3628 56.3418 27.9447 56.5979 27.6135C56.854 27.2823 57.2291 27.0818 57.7234 27.012C58.2498 26.9377 58.6997 27.0396 59.073 27.3178C59.4465 27.5975 59.6699 27.9967 59.7433 28.5155C59.7887 28.8369 59.7864 29.1135 59.7364 29.3454L59.0225 29.4463C59.123 29.2073 59.1534 28.947 59.1136 28.6654C59.07 28.3562 58.9376 28.1205 58.7164 27.9583C58.4952 27.7959 58.2186 27.7382 57.8865 27.7851C57.5682 27.8301 57.3268 27.9555 57.1623 28.1614C56.9994 28.367 56.9393 28.6214 56.982 28.9244C57.0229 29.2136 57.1306 29.4684 57.3054 29.6887L56.6281 29.7843ZM59.3129 32.6549L59.29 31.707L56.576 31.7726L56.5579 31.0217L59.2719 30.9561L59.2491 30.0129L59.8586 29.9981L59.9225 32.6403L59.3129 32.6549Z" fill="white"/>
<path d="M18.3339 30.155V33.1376H16.3838V24.4795H19.4389C21.6205 24.4795 22.7113 25.3993 22.7113 27.2388C22.7113 28.1082 22.3973 28.8126 21.7694 29.352C21.1455 29.8873 20.3103 30.155 19.2638 30.155H18.3339ZM18.3339 25.9769V28.6758H19.1007C20.1392 28.6758 20.6584 28.2209 20.6584 27.3113C20.6584 26.4217 20.1392 25.9769 19.1007 25.9769H18.3339ZM23.9914 33.1375V24.4794H27.0585C30.1337 24.4794 31.6713 25.8862 31.6713 28.6998C31.6713 30.0482 31.2507 31.1249 30.4094 31.9299C29.5722 32.7349 28.4552 33.1374 27.0585 33.1374L23.9914 33.1375ZM25.9415 26.0674V31.5556H26.9075C27.7528 31.5556 28.4149 31.302 28.8939 30.7949C29.3769 30.2877 29.6184 29.5974 29.6184 28.724C29.6184 27.8988 29.3789 27.2508 28.8999 26.7799C28.4249 26.3049 27.7567 26.0674 26.8954 26.0674H25.9415ZM35.0702 30.155V33.1376H33.12V24.4795H36.1752C38.3567 24.4795 39.4475 25.3993 39.4475 27.2388C39.4475 28.1082 39.1336 28.8126 38.5057 29.352C37.8817 29.8873 37.0465 30.155 36 30.155H35.0702ZM35.0702 25.9769V28.6758H35.8369C36.8754 28.6758 37.3947 28.2209 37.3947 27.3113C37.3947 26.4217 36.8754 25.9769 35.8369 25.9769H35.0702ZM47.6164 33.1375H45.4912L44.8753 31.2115H41.796L41.1863 33.1375H39.073L42.2247 24.4794H44.5372L47.6164 33.1375ZM44.4285 29.7141L43.4988 26.804C43.4304 26.5867 43.3821 26.327 43.3539 26.0251H43.3057C43.2855 26.2787 43.2352 26.5303 43.1548 26.7799L42.2129 29.7143L44.4285 29.7141Z" fill="#00337C"/>
<path d="M19.1501 38.22C18.9005 38.3408 18.5747 38.4012 18.1725 38.4012C17.6479 38.4012 17.2354 38.247 16.935 37.9386C16.6346 37.6302 16.4844 37.2193 16.4844 36.7059C16.4844 36.159 16.6529 35.7155 16.9899 35.3754C17.3285 35.0352 17.7672 34.8651 18.3061 34.8651C18.64 34.8651 18.9213 34.9073 19.1503 34.9915V35.733C18.9213 35.5963 18.6606 35.528 18.3681 35.528C18.047 35.528 17.7879 35.629 17.5908 35.8309C17.3937 36.0328 17.2951 36.3062 17.2951 36.6511C17.2951 36.9818 17.3881 37.2457 17.5741 37.4427C17.7601 37.6382 18.0105 37.736 18.3253 37.736C18.6257 37.736 18.9007 37.6629 19.1503 37.5166L19.1501 38.22Z" fill="#00337C"/>
<path d="M21.1391 38.4C20.6495 38.4 20.2505 38.241 19.9421 37.9231C19.6337 37.6036 19.4795 37.188 19.4795 36.6761C19.4795 36.1356 19.6361 35.6985 19.9492 35.3647C20.2624 35.031 20.6773 34.8641 21.1939 34.864C21.6819 34.864 22.0761 35.0238 22.3765 35.3433C22.6785 35.6628 22.8295 36.084 22.8295 36.607C22.8295 37.1442 22.6729 37.5774 22.3597 37.9065C22.0482 38.2356 21.6412 38.4001 21.1389 38.4001L21.1391 38.4ZM21.1725 35.5267C20.9022 35.5267 20.6877 35.6285 20.5287 35.832C20.3698 36.0339 20.2904 36.3018 20.2904 36.6355C20.2904 36.9741 20.3698 37.2419 20.5287 37.439C20.6877 37.6361 20.8959 37.7346 21.1535 37.7346C21.419 37.7346 21.6296 37.6393 21.7854 37.4485C21.9411 37.2562 22.019 36.9899 22.019 36.6497C22.019 36.2952 21.9435 36.0195 21.7925 35.8224C21.6415 35.6253 21.4348 35.5267 21.1725 35.5267ZM27.2916 38.3413H26.531V36.2954C26.531 36.0745 26.5405 35.8305 26.5596 35.5634H26.5405C26.5007 35.7732 26.465 35.9242 26.4332 36.0164L25.6321 38.3411H25.0026L24.1871 36.0401C24.1649 35.9781 24.1291 35.8192 24.0799 35.5633H24.0584C24.079 35.9003 24.0894 36.1959 24.0894 36.4502V38.3411H23.3955V34.9219H24.5234L25.222 36.9486C25.2777 37.1108 25.3182 37.2738 25.3436 37.4375H25.3579C25.4008 37.2483 25.4461 37.0838 25.4937 36.9439L26.1924 34.9219H27.2916V38.3413ZM28.8391 37.1625V38.3404H28.069V34.9211H29.2755C30.1371 34.9211 30.5679 35.2843 30.5679 36.0107C30.5679 36.3541 30.4439 36.6322 30.1959 36.8452C29.9495 37.0567 29.6196 37.1624 29.2064 37.1624L28.8391 37.1625ZM28.8391 35.5125V36.5784H29.142C29.5521 36.5784 29.7571 36.3988 29.7571 36.0395C29.7571 35.6882 29.5521 35.5125 29.142 35.5125H28.8391ZM33.1091 38.3413H31.0729V34.922H31.843V37.7165H33.1091V38.3413ZM34.3416 38.3413H33.5715V34.922H34.3416V38.3413ZM38.1241 38.3413H37.2849L37.0416 37.5806H35.8256L35.5847 38.3413H34.7502L35.9949 34.922H36.9081L38.1241 38.3413ZM36.8651 36.9893L36.4979 35.84C36.4709 35.7542 36.4518 35.6516 36.4406 35.5324H36.4215C36.4136 35.6325 36.3937 35.7319 36.3619 35.8304L35.9899 36.9893H36.8651ZM41.6266 38.3413H40.8492L39.44 36.1929C39.3573 36.0673 39.3001 35.9727 39.2684 35.9091H39.2589C39.2716 36.03 39.278 36.2144 39.278 36.4624V38.3413H38.5507V34.922H39.3805L40.7372 37.0036C40.7992 37.0974 40.8565 37.1904 40.9089 37.2826H40.9184C40.9056 37.2031 40.8992 37.0465 40.8992 36.8129V34.922H41.6265L41.6266 38.3413Z" fill="#00337C"/>
<path d="M44.864 38.22C44.6144 38.3408 44.2885 38.4012 43.8864 38.4012C43.3618 38.4012 42.9493 38.247 42.6489 37.9386C42.3485 37.6302 42.1982 37.2193 42.1982 36.7059C42.1982 36.159 42.3667 35.7155 42.7037 35.3754C43.0423 35.0352 43.4811 34.8651 44.02 34.8651C44.3538 34.8651 44.6352 34.9073 44.8641 34.9915V35.733C44.6352 35.5963 44.3745 35.528 44.082 35.528C43.7609 35.528 43.5018 35.629 43.3046 35.8309C43.1075 36.0328 43.009 36.3062 43.009 36.6511C43.009 36.9818 43.102 37.2457 43.288 37.4427C43.474 37.6382 43.7244 37.736 44.0391 37.736C44.3395 37.736 44.6145 37.6629 44.8641 37.5166L44.864 38.22Z" fill="#00337C"/>
<path d="M47.515 38.3413H45.4644V34.922H47.4362V35.5491H46.2345V36.3097H47.3527V36.9345H46.2345V37.7166H47.5149L47.515 38.3413Z" fill="#00337C"/>
<path d="M20.871 16.9588L20.124 19.2576L21.2746 19.6323" fill="#FF9F00"/>
<path d="M20.871 16.9588L21.6179 19.2576L20.4673 19.6323" fill="#FF9F00"/>
<path d="M23.1698 18.6291L20.7527 18.6291L20.7519 19.8391" fill="#FF9F00"/>
<path d="M23.1697 18.6291L21.2142 20.0498L20.5023 19.0713" fill="#FF9F00"/>
<path d="M18.5721 18.6291L20.5276 20.0498L21.2395 19.0713" fill="#FF9F00"/>
<path d="M18.572 18.6291L20.9891 18.6291L20.9899 19.8391" fill="#FF9F00"/>
<path d="M22.2917 21.3316L21.5448 19.0328L20.3937 19.406" fill="#FF9F00"/>
<path d="M22.2916 21.3316L20.3361 19.9109L21.0467 18.9315" fill="#FF9F00"/>
<path d="M19.4504 21.3316L21.4059 19.9109L20.6953 18.9315" fill="#FF9F00"/>
<path d="M19.4503 21.3316L20.1972 19.0328L21.3483 19.406" fill="#FF9F00"/>
<path d="M26.4349 16.9588L25.688 19.2576L26.8386 19.6323" fill="#FF9F00"/>
<path d="M26.4349 16.9588L27.1819 19.2576L26.0312 19.6323" fill="#FF9F00"/>
<path d="M28.7337 18.6291L26.3166 18.6291L26.3159 19.8391" fill="#FF9F00"/>
<path d="M28.7336 18.6291L26.7782 20.0498L26.0663 19.0713" fill="#FF9F00"/>
<path d="M24.1361 18.6291L26.0916 20.0498L26.8035 19.0713" fill="#FF9F00"/>
<path d="M24.136 18.6291L26.5531 18.6291L26.5539 19.8391" fill="#FF9F00"/>
<path d="M27.8557 21.3316L27.1088 19.0328L25.9577 19.406" fill="#FF9F00"/>
<path d="M27.8555 21.3316L25.9001 19.9109L26.6107 18.9315" fill="#FF9F00"/>
<path d="M25.0144 21.3316L26.9699 19.9109L26.2592 18.9315" fill="#FF9F00"/>
<path d="M25.0142 21.3316L25.7612 19.0328L26.9123 19.406" fill="#FF9F00"/>
<path d="M31.9989 16.9588L31.252 19.2576L32.4026 19.6323" fill="#FF9F00"/>
<path d="M31.9989 16.9588L32.7458 19.2576L31.5952 19.6323" fill="#FF9F00"/>
<path d="M34.2977 18.6291L31.8806 18.6291L31.8798 19.8391" fill="#FF9F00"/>
<path d="M34.2976 18.6291L32.3421 20.0498L31.6302 19.0713" fill="#FF9F00"/>
<path d="M29.7001 18.6291L31.6555 20.0498L32.3674 19.0713" fill="#FF9F00"/>
<path d="M29.6999 18.6291L32.117 18.6291L32.1178 19.8391" fill="#FF9F00"/>
<path d="M33.4196 21.3316L32.6727 19.0328L31.5216 19.406" fill="#FF9F00"/>
<path d="M33.4195 21.3316L31.464 19.9109L32.1747 18.9315" fill="#FF9F00"/>
<path d="M30.5783 21.3316L32.5338 19.9109L31.8232 18.9315" fill="#FF9F00"/>
<path d="M30.5782 21.3316L31.3251 19.0328L32.4762 19.406" fill="#FF9F00"/>
<path d="M37.5633 16.9588L36.8164 19.2576L37.967 19.6323" fill="#FF9F00"/>
<path d="M37.5633 16.9588L38.3103 19.2576L37.1597 19.6323" fill="#FF9F00"/>
<path d="M39.8622 18.6291L37.4451 18.6291L37.4443 19.8391" fill="#FF9F00"/>
<path d="M39.862 18.6291L37.9066 20.0498L37.1947 19.0713" fill="#FF9F00"/>
<path d="M35.2645 18.6291L37.22 20.0498L37.9319 19.0713" fill="#FF9F00"/>
<path d="M35.2644 18.6291L37.6815 18.6291L37.6823 19.8391" fill="#FF9F00"/>
<path d="M38.9841 21.3316L38.2372 19.0328L37.0861 19.406" fill="#FF9F00"/>
<path d="M38.984 21.3316L37.0285 19.9109L37.7391 18.9315" fill="#FF9F00"/>
<path d="M36.1428 21.3316L38.0983 19.9109L37.3876 18.9315" fill="#FF9F00"/>
<path d="M36.1427 21.3316L36.8896 19.0328L38.0407 19.406" fill="#FF9F00"/>
<path d="M43.1273 16.9588L42.3804 19.2576L43.531 19.6323" fill="#FF9F00"/>
<path d="M43.1273 16.9588L43.8742 19.2576L42.7236 19.6323" fill="#FF9F00"/>
<path d="M45.4261 18.6291L43.009 18.6291L43.0082 19.8391" fill="#FF9F00"/>
<path d="M45.426 18.6291L43.4705 20.0498L42.7586 19.0713" fill="#FF9F00"/>
<path d="M40.8285 18.6291L42.784 20.0498L43.4958 19.0713" fill="#FF9F00"/>
<path d="M40.8284 18.6291L43.2455 18.6291L43.2462 19.8391" fill="#FF9F00"/>
<path d="M44.5481 21.3316L43.8011 19.0328L42.65 19.406" fill="#FF9F00"/>
<path d="M44.5479 21.3316L42.5924 19.9109L43.3031 18.9315" fill="#FF9F00"/>
<path d="M41.7068 21.3316L43.6622 19.9109L42.9516 18.9315" fill="#FF9F00"/>
<path d="M41.7066 21.3316L42.4535 19.0328L43.6046 19.406" fill="#FF9F00"/>
<path d="M27.3151 49.2588L24.5 46.4437L24.5221 46.4224C24.5796 46.3666 27.2533 44.0199 27.2591 44.0199C27.2628 44.0199 27.9849 44.7633 28.8638 45.672L30.4616 47.3241L37.1949 40.5909L38.3549 41.7509L39.5001 42.9248C39.4463 42.9756 30.3696 51.8365 30.2636 51.9416L30.1304 52.0734L27.3151 49.2588Z" fill="#00AE00"/>
</g>
<defs>
<clipPath id="clip0_24_2353">
<rect width="64" height="64" rx="32" fill="white"/>
</clipPath>
</defs>
</svg>
