<svg width="1280" height="348" viewBox="0 0 1280 348" fill="none" xmlns="http://www.w3.org/2000/svg">
<g clip-path="url(#clip0_437_19166)">
<mask id="path-1-inside-1_437_19166" fill="white">
<path fill-rule="evenodd" clip-rule="evenodd" d="M1458 -401H-178V79.9697C-178 227.781 188.231 347.606 640 347.606C1091.77 347.606 1458 227.781 1458 79.9697V-401Z"/>
</mask>
<path d="M-178 -401V-402H-179V-401H-178ZM1458 -401H1459V-402H1458V-401ZM-178 -400H1458V-402H-178V-400ZM-177 79.9697V-401H-179V79.9697H-177ZM640 346.606C414.192 346.606 209.801 316.658 61.8976 268.267C-12.0597 244.069 -71.8378 215.278 -113.106 183.355C-154.387 151.422 -177 116.477 -177 79.9697H-179C-179 117.368 -155.834 152.831 -114.329 184.937C-72.8111 217.053 -12.7959 245.933 61.2757 270.168C209.43 318.641 414.04 348.606 640 348.606V346.606ZM1457 79.9697C1457 116.477 1434.39 151.422 1393.11 183.355C1351.84 215.278 1292.06 244.069 1218.1 268.267C1070.2 316.658 865.808 346.606 640 346.606V348.606C865.96 348.606 1070.57 318.641 1218.72 270.168C1292.8 245.933 1352.81 217.053 1394.33 184.937C1435.83 152.831 1459 117.368 1459 79.9697H1457ZM1457 -401V79.9697H1459V-401H1457Z" fill="url(#paint0_radial_437_19166)" mask="url(#path-1-inside-1_437_19166)"/>
<mask id="mask0_437_19166" style="mask-type:alpha" maskUnits="userSpaceOnUse" x="-178" y="-188" width="1636" height="536">
<path d="M1458 79.9696C1458 227.781 1091.77 347.606 640 347.606C188.231 347.606 -178 227.781 -178 79.9696C-178 -67.8419 188.231 -187.667 640 -187.667C1091.77 -187.667 1458 -67.8419 1458 79.9696Z" fill="black"/>
</mask>
<g mask="url(#mask0_437_19166)">
<g filter="url(#filter0_f_437_19166)">
<ellipse cx="640" cy="372" rx="446" ry="76" fill="url(#paint1_radial_437_19166)"/>
</g>
</g>
</g>
<defs>
<filter id="filter0_f_437_19166" x="94" y="196" width="1092" height="352" filterUnits="userSpaceOnUse" color-interpolation-filters="sRGB">
<feFlood flood-opacity="0" result="BackgroundImageFix"/>
<feBlend mode="normal" in="SourceGraphic" in2="BackgroundImageFix" result="shape"/>
<feGaussianBlur stdDeviation="50" result="effect1_foregroundBlur_437_19166"/>
</filter>
<radialGradient id="paint0_radial_437_19166" cx="0" cy="0" r="1" gradientUnits="userSpaceOnUse" gradientTransform="translate(640 348) scale(288 629.394)">
<stop stop-color="#AED4FF"/>
<stop offset="0.1" stop-color="#5689FF"/>
<stop offset="1" stop-color="#3867FF" stop-opacity="0"/>
</radialGradient>
<radialGradient id="paint1_radial_437_19166" cx="0" cy="0" r="1" gradientUnits="userSpaceOnUse" gradientTransform="translate(640 372) rotate(90) scale(76 446)">
<stop stop-color="#5D84FF"/>
<stop offset="0.17" stop-color="#3867FF" stop-opacity="0.5"/>
<stop offset="1" stop-color="#3867FF" stop-opacity="0"/>
</radialGradient>
<clipPath id="clip0_437_19166">
<rect width="1280" height="348" fill="white"/>
</clipPath>
</defs>
</svg>
