<svg width="290" height="48" viewBox="0 0 290 48" fill="none" xmlns="http://www.w3.org/2000/svg">
<path d="M77.406 39.501V8.49899H87.518C90.791 8.49899 93.642 9.15899 96.069 10.476C98.496 11.794 100.376 13.611 101.707 15.927C103.039 18.243 103.704 20.928 103.704 23.979C103.704 27.003 103.038 29.688 101.707 32.031C100.376 34.375 98.496 36.206 96.069 37.524C93.641 38.842 90.791 39.5 87.518 39.5L77.406 39.501ZM83.065 34.507H87.643C89.751 34.507 91.575 34.07 93.115 33.196C94.655 32.322 95.854 31.102 96.714 29.534C97.574 27.967 98.004 26.115 98.004 23.978C98.004 21.815 97.574 19.957 96.714 18.402C95.854 16.849 94.654 15.642 93.115 14.782C91.576 13.922 89.751 13.492 87.643 13.492H83.065V34.507Z" fill="white"/>
<path d="M125.572 20.214C124.781 19.007 123.678 18.064 122.264 17.384C120.849 16.704 119.212 16.364 117.354 16.364C115.828 16.364 114.413 16.614 113.109 17.113C111.805 17.612 110.675 18.298 109.718 19.172C108.761 20.046 108.06 21.08 107.617 22.272L112.07 24.436C112.486 23.41 113.145 22.585 114.046 21.96C114.947 21.336 115.981 21.024 117.146 21.024C118.394 21.024 119.4 21.351 120.163 22.002C120.926 22.655 121.308 23.466 121.308 24.436V25.169L114.567 26.267C112.791 26.544 111.321 27.016 110.156 27.682C108.991 28.348 108.131 29.173 107.576 30.158C107.021 31.143 106.744 32.259 106.744 33.507C106.744 34.811 107.063 35.956 107.701 36.94C108.339 37.925 109.241 38.681 110.406 39.208C111.571 39.735 112.944 39.999 114.526 39.999C115.775 39.999 116.911 39.826 117.938 39.479C118.964 39.133 119.879 38.633 120.685 37.981C121.01 37.718 121.311 37.422 121.6 37.107V39.501H126.76V24.437C126.76 22.829 126.364 21.42 125.574 20.214H125.572ZM120.578 33.093C120.092 33.953 119.413 34.626 118.539 35.111C117.665 35.597 116.659 35.839 115.522 35.839C114.634 35.839 113.892 35.61 113.296 35.153C112.699 34.695 112.402 34.078 112.402 33.301C112.402 32.497 112.665 31.844 113.193 31.345C113.72 30.845 114.525 30.499 115.607 30.305L121.308 29.337V30.264C121.308 31.291 121.065 32.234 120.58 33.094L120.578 33.093Z" fill="white"/>
<path d="M144.398 34.836V39.496C144.008 39.556 143.568 39.606 143.068 39.666C142.568 39.726 142.108 39.746 141.698 39.746C139.138 39.746 137.168 39.046 135.768 37.646C134.368 36.246 133.668 34.276 133.668 31.716V21.736H129.758V16.866H133.668V11.706H139.118V16.866H144.318V21.736H139.118V31.426C139.118 32.176 139.248 32.816 139.508 33.346C139.778 33.866 140.188 34.276 140.758 34.546C141.328 34.826 142.058 34.966 142.948 34.966C143.138 34.966 143.368 34.946 143.628 34.926C143.898 34.896 144.148 34.866 144.398 34.836Z" fill="white"/>
<path d="M166.393 20.214C165.602 19.007 164.499 18.064 163.085 17.384C161.67 16.704 160.033 16.364 158.175 16.364C156.649 16.364 155.234 16.614 153.93 17.113C152.626 17.612 151.496 18.298 150.539 19.172C149.582 20.046 148.881 21.08 148.438 22.272L152.89 24.436C153.306 23.41 153.964 22.585 154.866 21.96C155.767 21.336 156.801 21.024 157.966 21.024C159.215 21.024 160.22 21.351 160.983 22.002C161.746 22.655 162.127 23.466 162.127 24.436V25.169L155.386 26.267C153.61 26.544 152.14 27.016 150.975 27.682C149.81 28.348 148.95 29.173 148.395 30.158C147.84 31.143 147.563 32.259 147.563 33.507C147.563 34.811 147.882 35.956 148.52 36.94C149.158 37.925 150.06 38.681 151.225 39.208C152.39 39.735 153.763 39.999 155.345 39.999C156.593 39.999 157.73 39.826 158.757 39.479C159.783 39.133 160.698 38.633 161.503 37.981C161.828 37.718 162.13 37.422 162.418 37.107V39.501H167.578V24.437C167.578 22.829 167.183 21.42 166.392 20.214H166.393ZM161.399 33.093C160.913 33.953 160.234 34.626 159.36 35.111C158.486 35.597 157.48 35.839 156.343 35.839C155.455 35.839 154.713 35.61 154.117 35.153C153.52 34.695 153.223 34.078 153.223 33.301C153.223 32.497 153.486 31.844 154.013 31.345C154.54 30.845 155.345 30.499 156.427 30.305L162.128 29.337V30.264C162.128 31.291 161.885 32.234 161.4 33.094L161.399 33.093Z" fill="white"/>
<path d="M187.635 40C185.415 40 183.37 39.598 181.497 38.793C179.624 37.988 177.987 36.865 176.587 35.422C175.186 33.979 174.097 32.287 173.32 30.345C172.543 28.404 172.155 26.281 172.155 23.978C172.155 21.675 172.536 19.547 173.299 17.591C174.062 15.635 175.144 13.943 176.545 12.515C177.945 11.086 179.589 9.977 181.476 9.186C183.362 8.395 185.415 8 187.634 8C189.853 8 191.843 8.374 193.605 9.124C195.366 9.873 196.858 10.865 198.079 12.099C199.299 13.334 200.173 14.686 200.7 16.156L195.624 18.528C195.041 16.974 194.056 15.692 192.669 14.679C191.281 13.666 189.604 13.16 187.634 13.16C185.692 13.16 183.979 13.618 182.495 14.533C181.011 15.449 179.859 16.711 179.041 18.32C178.222 19.929 177.813 21.816 177.813 23.979C177.813 26.142 178.222 28.036 179.041 29.66C179.859 31.283 181.01 32.552 182.495 33.467C183.979 34.382 185.692 34.84 187.634 34.84C189.604 34.84 191.282 34.334 192.669 33.322C194.056 32.309 195.041 31.027 195.624 29.472L200.7 31.844C200.173 33.315 199.299 34.667 198.079 35.901C196.858 37.136 195.367 38.127 193.605 38.876C191.843 39.625 189.854 40 187.635 40Z" fill="white"/>
<path d="M204.82 39.501V8H210.271V39.501H204.82Z" fill="white"/>
<path d="M226.376 40C224.156 40 222.138 39.487 220.321 38.46C218.504 37.434 217.061 36.033 215.993 34.257C214.925 32.481 214.391 30.457 214.391 28.182C214.391 25.907 214.925 23.882 215.993 22.106C217.061 20.331 218.496 18.93 220.3 17.903C222.103 16.877 224.128 16.363 226.375 16.363C228.594 16.363 230.605 16.876 232.409 17.903C234.212 18.93 235.647 20.324 236.716 22.085C237.784 23.846 238.318 25.878 238.318 28.181C238.318 30.456 237.777 32.481 236.695 34.256C235.613 36.031 234.17 37.433 232.368 38.459C230.564 39.486 228.567 40 226.376 40ZM226.376 35.006C227.597 35.006 228.671 34.715 229.601 34.132C230.53 33.55 231.265 32.738 231.806 31.698C232.347 30.658 232.618 29.486 232.618 28.182C232.618 26.85 232.347 25.678 231.806 24.665C231.265 23.653 230.529 22.848 229.601 22.252C228.671 21.656 227.597 21.357 226.376 21.357C225.128 21.357 224.032 21.656 223.089 22.252C222.146 22.848 221.404 23.653 220.863 24.665C220.322 25.678 220.052 26.85 220.052 28.182C220.052 29.486 220.322 30.658 220.863 31.698C221.404 32.738 222.146 33.55 223.089 34.132C224.032 34.714 225.128 35.006 226.376 35.006Z" fill="white"/>
<path d="M256.586 16.864V30.138C256.586 31.137 256.391 31.997 256.003 32.718C255.614 33.439 255.073 34.001 254.38 34.403C253.686 34.806 252.896 35.006 252.008 35.006C251.12 35.006 250.323 34.805 249.615 34.403C248.907 34.001 248.367 33.446 247.992 32.738C247.618 32.031 247.43 31.206 247.43 30.262V16.863H241.979V30.72C241.979 32.578 242.318 34.201 242.998 35.589C243.678 36.976 244.663 38.058 245.952 38.835C247.242 39.611 248.761 40 250.508 40C252.117 40 253.525 39.653 254.732 38.96C255.638 38.44 256.352 37.724 256.875 36.812V39.501H262.035V16.864H256.584H256.586Z" fill="white"/>
<path d="M284.549 8V19.168C283.895 18.45 283.118 17.849 282.198 17.384C280.852 16.704 279.32 16.364 277.6 16.364C275.463 16.364 273.529 16.891 271.795 17.946C270.061 19 268.695 20.415 267.696 22.19C266.697 23.966 266.198 25.963 266.198 28.182C266.198 30.373 266.697 32.371 267.696 34.173C268.695 35.977 270.054 37.398 271.774 38.438C273.494 39.478 275.449 39.999 277.641 39.999C279.277 39.999 280.789 39.672 282.177 39.021C283.248 38.518 284.133 37.84 284.84 36.997V39.5H290V8H284.549ZM283.737 31.719C283.196 32.745 282.454 33.55 281.511 34.132C280.567 34.714 279.472 35.006 278.224 35.006C277.003 35.006 275.907 34.715 274.937 34.132C273.965 33.55 273.21 32.745 272.669 31.719C272.128 30.693 271.858 29.513 271.858 28.182C271.858 26.851 272.128 25.678 272.669 24.665C273.21 23.653 273.965 22.848 274.937 22.252C275.908 21.656 277.003 21.357 278.224 21.357C279.472 21.357 280.568 21.649 281.511 22.231C282.454 22.814 283.196 23.625 283.737 24.665C284.278 25.705 284.549 26.877 284.549 28.182C284.549 29.513 284.279 30.693 283.737 31.719Z" fill="white"/>
<path d="M46.09 7.02299L30.665 17.918L5.06104 35.984L8.09504 40.138L33.244 23.287L50.352 11.825L46.588 6.67099L46.09 7.02299Z" fill="url(#paint0_linear_271_7806)"/>
<path d="M8.09497 0L23.21 20.696L28.613 16.88L21.119 6.616H46.548H46.666L46.588 6.671L50.352 11.825L68 0H8.09497Z" fill="white"/>
<path d="M21.9099 40.977L37.3349 30.082L62.9389 12.016L59.9049 7.862L34.7559 24.713L17.6479 36.175L21.4119 41.329L21.9099 40.977Z" fill="url(#paint1_linear_271_7806)"/>
<path d="M59.905 48L44.789 27.304L39.387 31.12L46.881 41.384H21.452H21.334L21.412 41.329L17.648 36.175L0 48H59.905Z" fill="white"/>
<defs>
<linearGradient id="paint0_linear_271_7806" x1="48.55" y1="9.22999" x2="6.83103" y2="37.113" gradientUnits="userSpaceOnUse">
<stop stop-color="white"/>
<stop offset="1" stop-color="white" stop-opacity="0"/>
</linearGradient>
<linearGradient id="paint1_linear_271_7806" x1="19.4499" y1="38.771" x2="61.1689" y2="10.887" gradientUnits="userSpaceOnUse">
<stop stop-color="white"/>
<stop offset="1" stop-color="white" stop-opacity="0"/>
</linearGradient>
</defs>
</svg>
