<svg width="64" height="64" viewBox="0 0 64 64" fill="none" xmlns="http://www.w3.org/2000/svg">
<path d="M47.4979 25.5228C47.6891 25.5228 47.8831 25.5412 48.0779 25.5795C49.6962 25.8981 50.7499 27.4684 50.4314 29.0869C50.1512 30.5105 48.9024 31.4973 47.5044 31.4973C47.3131 31.4973 47.1191 31.4789 46.9243 31.4406C45.306 31.122 44.2523 29.5518 44.5708 27.9333C44.8509 26.5097 46.0998 25.5229 47.4979 25.5228ZM47.498 22.1632C44.4759 22.1634 41.8584 24.3173 41.2744 27.2846C40.5988 30.718 42.8421 34.0611 46.2754 34.7369C46.6801 34.8166 47.0935 34.857 47.5043 34.857C50.5262 34.857 53.1435 32.7033 53.7276 29.7359C54.4033 26.3022 52.1598 22.9591 48.7266 22.2833C48.322 22.2036 47.9087 22.1632 47.498 22.1632Z" fill="white"/>
<path d="M33.5059 19.9651C34.4301 20.5906 35.2361 21.3909 35.8832 22.3396L40.6579 17.565L42.3023 21.224C43.2127 20.5732 44.2453 20.0923 45.3529 19.8175L41.7253 11.7455L33.5059 19.9651Z" fill="white"/>
<path d="M57.6064 47.0787L52.5771 35.8881C51.6566 36.5227 50.6131 36.9804 49.5003 37.2361L52.4139 43.7192H45.603C45.8119 44.8152 45.815 45.9507 45.5996 47.0787H57.6064Z" fill="white"/>
<path d="M14.5048 43.7192L23.4369 34.7873C22.5155 34.1583 21.7109 33.357 21.0675 32.4055L6.39453 47.0788H28.001C27.7919 45.9828 27.7887 44.8472 28.0043 43.7192H14.5048Z" fill="white"/>
<path d="M28.4802 24.3998C28.6715 24.3998 28.8655 24.4182 29.0603 24.4565C30.6786 24.7751 31.7323 26.3454 31.4138 27.9638C31.1337 29.3875 29.8848 30.3743 28.4867 30.3743C28.2955 30.3743 28.1015 30.3559 27.9067 30.3176C26.2884 29.999 25.2347 28.4288 25.5532 26.8103C25.8333 25.3866 27.0821 24.4 28.4802 24.3998ZM28.4803 21.0402C25.4583 21.0404 22.8409 23.1942 22.2569 26.1616C21.5811 29.595 23.8246 32.9381 27.2579 33.6139C27.6625 33.6936 28.076 33.734 28.4867 33.734C31.5089 33.734 34.1261 31.5802 34.7101 28.6126C35.3859 25.1792 33.1423 21.8361 29.7091 21.1603C29.3045 21.0806 28.8911 21.0402 28.4803 21.0402Z" fill="white"/>
<path d="M45.898 31.5697L43.7763 28.9654L38.811 33.0101L32.1785 28.0409L30.1641 30.7298L36.97 35.8289L35.5997 41.7278L38.8718 42.4875L40.3605 36.0805L45.898 31.5697Z" fill="white"/>
<path d="M36.7959 42.4114C36.9872 42.4114 37.1811 42.4298 37.3759 42.4681C38.9943 42.7867 40.0481 44.357 39.7295 45.9754C39.4494 47.3991 38.2005 48.3859 36.8025 48.3859C36.6113 48.3859 36.4173 48.3675 36.2225 48.3292C34.6042 48.0106 33.5504 46.4404 33.869 44.8219C34.1491 43.3982 35.398 42.4116 36.7959 42.4114ZM36.7961 39.0518C33.774 39.052 31.1566 41.2058 30.5726 44.1732C30.2452 45.8362 30.5851 47.5274 31.5297 48.935C32.4742 50.3426 33.9104 51.2981 35.5736 51.6255C35.9783 51.7052 36.3917 51.7456 36.8025 51.7456C39.8245 51.7456 42.4418 49.5918 43.0258 46.6242C43.3532 44.9612 43.0133 43.27 42.0687 41.8624C41.1242 40.4548 39.688 39.4993 38.0248 39.1719C37.6201 39.0922 37.2067 39.0518 36.7961 39.0518Z" fill="white"/>
</svg>
