<svg width="64" height="60" viewBox="0 0 64 60" fill="none" xmlns="http://www.w3.org/2000/svg">
<g id="Group 126761">
<path id="Vector" fill-rule="evenodd" clip-rule="evenodd" d="M60.1149 0.983887H63.3189L57.1619 58.9229L53.7739 58.9309L57.4569 23.8469C55.8879 25.6739 55.0469 26.9639 53.6259 28.4139L50.6729 58.9309H47.2919L49.9579 31.8249C48.8249 32.7679 47.6899 33.5919 46.5409 34.3139L44.0649 58.9309H40.6839L43.0049 36.1419C40.0959 37.3489 36.5149 38.2919 32.6269 38.4179C24.1189 38.3369 20.2589 43.4489 18.7059 48.6699L17.4389 59.0199H14.1169L14.9789 49.3029C16.4819 41.8489 21.6389 34.7479 32.8489 35.0439C47.3959 34.1159 58.0029 22.4779 58.8799 10.4929L60.1149 0.983887Z" fill="#008CFF"/>
<path id="Vector_2" fill-rule="evenodd" clip-rule="evenodd" d="M3.88591 59.0189H0.680908L6.83891 1.07189H10.2269L6.54391 36.1479C8.11291 34.3209 8.95191 33.0309 10.3739 31.5809L13.3279 1.07189H16.7089L14.0349 28.1779C15.1779 27.2279 16.3109 26.4039 17.4609 25.6889L19.9349 1.07189H23.3159L20.9969 23.8539C23.8989 22.6529 27.4849 21.7029 31.3749 21.5779C39.8809 21.6669 43.7409 16.5549 45.2959 11.3259L46.5609 0.983887H49.8829L49.0209 10.7009C47.5179 18.1469 42.3629 25.2469 31.1529 24.9599C16.6059 25.8799 5.99891 37.5259 5.12191 49.5029L3.88491 59.0199L3.88591 59.0189Z" fill="#008CFF"/>
<path id="Vector_3" fill-rule="evenodd" clip-rule="evenodd" d="M53.4569 0.975952L56.7269 1.01395L55.6729 11.458C52.9939 23.596 43.4839 31.287 32.5969 31.596C17.9479 31.736 11.7079 43.004 11.1199 55.688L10.8319 59.024H7.1189L8.5939 47.705C11.2959 36.546 18.2779 28.973 32.4579 28.148C43.0209 27.892 51.4179 19.531 52.4769 9.35995L53.4569 0.976952V0.975952Z" fill="#008CFF"/>
</g>
</svg>
